<svg width="98" height="70" viewBox="0 0 98 70" fill="none" xmlns="http://www.w3.org/2000/svg">
<path d="M6.60205 9.45996L4.97066 8.303L4.96951 8.30462L6.60205 9.45996ZM42.0879 60.1606L40.4542 59.0069L40.4502 59.0126L42.0879 60.1606ZM23.9507 67.1597C16.5621 67.1597 11.2864 64.6034 7.76733 59.6615C4.15928 54.5948 2.20068 46.7482 2.20068 35.8076H-1.79932C-1.79932 47.1018 0.200416 55.9312 4.50903 61.9818C8.90661 68.1573 15.5059 71.1597 23.9507 71.1597V67.1597ZM2.20068 35.8076C2.20068 24.4707 4.30619 16.1663 8.23459 10.6153L4.96951 8.30462C0.362753 14.8142 -1.79932 24.0748 -1.79932 35.8076H2.20068ZM8.23345 10.6169C12.1174 5.14034 17.6931 2.36816 25.2495 2.36816V-1.63184C16.5396 -1.63184 9.68376 1.65719 4.97066 8.303L8.23345 10.6169ZM25.2495 2.36816C32.4197 2.36816 37.5537 4.94517 40.9938 9.97446C44.5271 15.1403 46.4429 23.1397 46.4429 34.2769H50.4429C50.4429 22.8082 48.4931 13.8533 44.2953 7.71621C40.0042 1.44261 33.5416 -1.63184 25.2495 -1.63184V2.36816ZM46.4429 34.2769C46.4429 45.3262 44.3563 53.4814 40.4542 59.007L43.7216 61.3143C48.2928 54.8412 50.4429 45.7405 50.4429 34.2769H46.4429ZM40.4502 59.0126C36.6512 64.4318 31.2428 67.1597 23.9507 67.1597V71.1597C32.4301 71.1597 39.1131 67.8882 43.7256 61.3087L40.4502 59.0126ZM24.6001 9.54736C22.5571 9.54736 20.713 10.203 19.1557 11.5071C17.6344 12.7811 16.4805 14.5929 15.6099 16.78C13.8823 21.1201 13.0908 27.3996 13.0908 35.4365H17.0908C17.0908 27.5473 17.8842 21.8823 19.3263 18.2593C20.0406 16.4649 20.8679 15.2906 21.7238 14.5738C22.5439 13.8871 23.4733 13.5474 24.6001 13.5474V9.54736ZM13.0908 35.4365C13.0908 43.0138 13.8672 48.9566 15.5741 53.0754C16.4357 55.1543 17.5784 56.8771 19.0819 58.0864C20.6174 59.3214 22.4239 59.9341 24.4146 59.9341V55.9341C23.2973 55.9341 22.3844 55.6094 21.5889 54.9695C20.7615 54.304 19.9618 53.2147 19.2694 51.544C17.8684 48.1636 17.0908 42.8576 17.0908 35.4365H13.0908ZM24.4146 59.9341C26.3964 59.9341 28.1835 59.2873 29.6878 58.0081C31.1548 56.7607 32.262 54.9918 33.0954 52.8657C34.7497 48.6456 35.5063 42.5442 35.5063 34.7407H31.5063C31.5063 42.3995 30.7477 47.8948 29.3714 51.4058C28.6895 53.1452 27.9026 54.2755 27.0966 54.9609C26.328 55.6145 25.4633 55.9341 24.4146 55.9341V59.9341ZM35.5063 34.7407C35.5063 26.9393 34.7653 20.8435 33.1469 16.6287C32.332 14.5066 31.2482 12.7371 29.8076 11.4866C28.3278 10.202 26.5625 9.54736 24.6001 9.54736V13.5474C25.6064 13.5474 26.4388 13.8591 27.1855 14.5073C27.9715 15.1896 28.7432 16.3192 29.4127 18.0627C30.763 21.5791 31.5063 27.0799 31.5063 34.7407H35.5063ZM69.6435 55.8467H67.6435V57.8467H69.6435V55.8467ZM97.8466 55.8467H99.8466V53.8467H97.8466V55.8467ZM97.8466 68V70H99.8466V68H97.8466ZM53.5937 68H51.5937V70H53.5937V68ZM55.31 53.8521L57.1504 54.6348L57.1536 54.6272L55.31 53.8521ZM59.6239 46.5693L61.1769 47.8297L61.1857 47.8187L59.6239 46.5693ZM65.2831 40.8638L66.5354 42.4232L66.5382 42.421L65.2831 40.8638ZM71.1742 36.3643L70.0117 34.7368L70.0092 34.7386L71.1742 36.3643ZM76.2768 32.375L74.9778 30.8543L74.9699 30.861L74.962 30.8679L76.2768 32.375ZM79.9877 28.6177L78.4297 27.3637L78.426 27.3683L79.9877 28.6177ZM82.2606 24.814L84.1238 25.541L84.1267 25.5335L84.1296 25.526L82.2606 24.814ZM56.7943 18.8765H54.7943V23.2668L58.1069 20.3855L56.7943 18.8765ZM56.7943 5.98096L55.7078 4.30182L54.7943 4.8929V5.98096H56.7943ZM85.4149 1.71338L84.7759 3.60853L84.789 3.61296L84.8022 3.61721L85.4149 1.71338ZM96.455 11.4546L94.6031 12.21L94.6091 12.2248L94.6154 12.2395L96.455 11.4546ZM96.5014 27.4116L94.6461 26.6647L94.6419 26.6751L94.6378 26.6856L96.5014 27.4116ZM92.744 33.9058L91.1896 32.6474L91.1835 32.6549L91.1775 32.6624L92.744 33.9058ZM87.3632 39.2866L88.6009 40.8576L88.6082 40.8519L88.6154 40.8461L87.3632 39.2866ZM81.0082 43.9717L79.8722 42.3256L79.8621 42.3326L79.8522 42.3396L81.0082 43.9717ZM76.6942 47.126L77.8942 48.726L77.8999 48.7217L76.6942 47.126ZM73.0761 50.1875L74.4468 51.6439L74.458 51.6334L74.469 51.6227L73.0761 50.1875ZM69.6435 57.8467H97.8466V53.8467H69.6435V57.8467ZM95.8466 55.8467V68H99.8466V55.8467H95.8466ZM97.8466 66H53.5937V70H97.8466V66ZM55.5937 68V62.9902H51.5937V68H55.5937ZM55.5937 62.9902C55.5937 59.814 56.1273 57.0406 57.1504 54.6348L53.4695 53.0693C52.2042 56.0444 51.5937 59.3631 51.5937 62.9902H55.5937ZM57.1536 54.6272C58.2298 52.0676 59.573 49.8058 61.1768 47.8297L58.071 45.309C56.2113 47.6004 54.6785 50.1938 53.4663 53.0769L57.1536 54.6272ZM61.1857 47.8187C62.8313 45.7617 64.6151 43.9653 66.5354 42.4232L64.0308 39.3043C61.8691 41.0403 59.8801 43.0476 58.0622 45.3199L61.1857 47.8187ZM66.5382 42.421C68.5854 40.7709 70.5189 39.2944 72.3393 37.9899L70.0092 34.7386C68.1186 36.0936 66.1247 37.6168 64.0281 39.3066L66.5382 42.421ZM72.3367 37.9917C74.3256 36.5711 76.0793 35.2013 77.5915 33.8821L74.962 30.8679C73.5673 32.0845 71.9193 33.3743 70.0117 34.7368L72.3367 37.9917ZM77.5757 33.8957C79.1349 32.5639 80.4654 31.2222 81.5494 29.8671L78.426 27.3683C77.5309 28.4872 76.3874 29.6502 74.9778 30.8543L77.5757 33.8957ZM81.5457 29.8717C82.67 28.4749 83.5419 27.0321 84.1238 25.541L80.3975 24.0869C79.9898 25.1316 79.3464 26.2246 78.4297 27.3637L81.5457 29.8717ZM84.1296 25.526C84.715 23.9894 85.0028 22.371 85.0028 20.6855H81.0028C81.0028 21.907 80.7959 23.0408 80.3917 24.102L84.1296 25.526ZM85.0028 20.6855C85.0028 17.4616 84.0803 14.696 81.9318 12.754L79.2496 15.7215C80.3173 16.6865 81.0028 18.2194 81.0028 20.6855H85.0028ZM81.9318 12.754C79.8042 10.831 76.7674 10.0576 73.2152 10.0576V14.0576C76.2809 14.0576 78.1611 14.7377 79.2496 15.7215L81.9318 12.754ZM73.2152 10.0576C66.9152 10.0576 60.9918 12.5747 55.4818 17.3674L58.1069 20.3855C63.0494 16.0864 68.0732 14.0576 73.2152 14.0576V10.0576ZM58.7943 18.8765V5.98096H54.7943V18.8765H58.7943ZM57.8808 7.6601C63.3218 4.13947 69.4655 2.36816 76.3695 2.36816V-1.63184C68.7391 -1.63184 61.8326 0.338726 55.7078 4.30182L57.8808 7.6601ZM76.3695 2.36816C79.5653 2.36816 82.3589 2.7935 84.7759 3.60853L86.054 -0.181774C83.152 -1.16036 79.9153 -1.63184 76.3695 -1.63184V2.36816ZM84.8022 3.61721C87.2672 4.41053 89.2882 5.53732 90.9097 6.96965L93.5579 3.97176C91.4684 2.12609 88.9436 0.747997 86.0277 -0.190449L84.8022 3.61721ZM90.9097 6.96965C92.5284 8.39947 93.7577 10.1374 94.6031 12.21L98.3068 10.6992C97.2349 8.07122 95.6501 5.81993 93.5579 3.97176L90.9097 6.96965ZM94.6154 12.2395C95.4853 14.2782 95.9394 16.6036 95.9394 19.2476H99.9394C99.9394 16.1395 99.4038 13.2697 98.2945 10.6697L94.6154 12.2395ZM95.9394 19.2476C95.9394 22.1014 95.4926 24.5619 94.6461 26.6647L98.3567 28.1586C99.4274 25.4989 99.9394 22.5168 99.9394 19.2476H95.9394ZM94.6378 26.6856C93.7835 28.8782 92.6343 30.8627 91.1896 32.6474L94.2985 35.1642C96.0081 33.0523 97.3637 30.7074 98.3649 28.1377L94.6378 26.6856ZM91.1775 32.6624C89.7286 34.488 88.0418 36.1767 86.1109 37.7272L88.6154 40.8461C90.7666 39.1186 92.667 37.22 94.3106 35.1491L91.1775 32.6624ZM86.1254 37.7156C84.1184 39.2969 82.0341 40.8336 79.8722 42.3256L82.1442 45.6177C84.3736 44.0791 86.5259 42.4924 88.6009 40.8576L86.1254 37.7156ZM79.8522 42.3396C78.3518 43.4024 76.8972 44.4659 75.4886 45.5302L77.8999 48.7217C79.2745 47.6832 80.6959 46.6438 82.1642 45.6037L79.8522 42.3396ZM75.4942 45.526C74.0763 46.5894 72.804 47.6644 71.6831 48.7523L74.469 51.6227C75.451 50.6696 76.5908 49.7035 77.8942 48.726L75.4942 45.526ZM71.7053 48.7311C70.5655 49.8039 69.6165 50.9004 68.8906 52.0256L72.2518 54.1941C72.7628 53.402 73.4837 52.5503 74.4468 51.6439L71.7053 48.7311ZM68.8906 52.0256C68.1285 53.2068 67.6435 54.4917 67.6435 55.8467H71.6435C71.6435 55.4698 71.7769 54.9303 72.2518 54.1941L68.8906 52.0256Z" fill="#29343E"/>
</svg>
