<svg width="127" height="116" viewBox="0 0 127 116" fill="none" xmlns="http://www.w3.org/2000/svg">
<path d="M23.5435 0.420044C18.7322 1.481 14.1922 5.05865 12.1197 9.47521C10.7133 12.4607 10.5652 13.3983 10.4172 20.5042L10.2692 27.018L9.60297 27.9063C7.30834 30.8424 8.31995 35.3577 11.6262 37.0602C12.1937 37.3562 12.5885 37.751 12.6625 38.0964C12.7118 38.3925 12.8845 39.3548 13.0573 40.243C13.6988 43.8454 15.7713 47.6204 18.8062 50.6799L20.9774 52.8512L20.9034 55.2445L20.8294 57.6378L13.4274 59.8584C9.35624 61.0674 5.50717 62.2764 4.86566 62.5232C3.33591 63.1153 1.73213 64.5711 0.843889 66.1748L0.103685 67.5072L0.0296644 79.5725C-0.044356 92.7235 -0.0937029 92.304 1.36203 92.6495L1.9542 92.7975V103.802V114.782L2.57103 115.374C3.36058 116.188 4.49556 116.188 5.28511 115.374L5.90195 114.782V103.777V92.7975H9.23287H12.5638V103.777V114.782L13.1806 115.374C13.8962 116.114 15.0065 116.163 15.796 115.522L16.3882 115.053L16.4622 98.0776C16.5115 83.4709 16.4622 80.9296 16.1414 79.8193C15.6973 78.3142 12.1443 72.7873 11.2314 72.1952C10.4172 71.6524 9.23287 71.8991 8.69005 72.7133C8.07322 73.6756 8.44332 74.7859 10.2938 77.5493C11.2314 78.9557 12.1197 80.4608 12.2677 80.9296C12.4404 81.423 12.5638 83.2489 12.5638 85.2968V88.8498H8.09789H3.65666L3.73068 79.0297C3.80471 69.3577 3.80471 69.2097 4.3722 68.1734C5.08773 66.8164 5.92662 66.3229 9.23287 65.2866C13.5261 63.9542 13.1559 63.9542 13.5261 65.3853C13.6988 66.0515 14.2663 67.4579 14.7844 68.4695C17.5725 73.8976 22.3592 77.796 28.2314 79.3751C29.5638 79.7453 30.7975 79.8439 33.6596 79.8439C37.558 79.8439 38.4709 79.6712 41.8759 78.3142L43.4303 77.6974L44.2939 78.4622C45.3302 79.3998 46.6625 79.9673 47.7235 79.9673H48.513L48.6364 81.8918C48.9572 86.4564 51.7206 91.2431 55.619 93.9325L57.0007 94.8701L56.9267 96.3258L56.8527 97.8062L52.7322 99.2126C50.4622 99.9775 48.4143 100.767 48.1676 100.94C45.0094 103.333 44.1458 105.529 44.1458 111.229C44.1458 114.091 44.3679 115.102 45.0834 115.645C45.7743 116.163 46.9586 116.065 47.5508 115.423C48.0442 114.905 48.0936 114.584 48.0936 111.648C48.1183 107.996 48.3403 106.59 49.0065 105.652C49.648 104.813 50.9064 103.975 52.0413 103.629L52.9543 103.358L54.7801 105.184C58.0617 108.44 61.4173 109.724 66.1052 109.501C68.1778 109.427 69.0414 109.255 70.4231 108.712C72.693 107.799 74.6422 106.467 76.1967 104.739L77.4303 103.333L78.3926 103.604C79.5769 103.975 80.8353 104.813 81.4521 105.652C82.1676 106.615 82.3897 107.898 82.3897 111.574C82.3897 114.757 82.4144 114.954 82.9572 115.448C84.1415 116.583 85.918 115.867 86.2388 114.115C86.3128 113.647 86.3375 111.673 86.2634 109.748C86.1401 105.924 85.8687 104.813 84.6103 103.086C83.426 101.433 81.8716 100.57 77.5784 99.1386L73.6306 97.8062L73.5566 96.3258L73.4826 94.8454L74.7409 94.0312C76.6408 92.8222 79.0341 90.0588 80.1691 87.8135C80.7119 86.7278 81.156 85.6669 81.156 85.4942C81.156 84.976 81.2547 85.05 82.9079 86.3577C84.8077 87.8875 87.127 89.1212 89.545 89.886C91.963 90.6263 97.1198 90.7003 99.6611 90.0094C104.966 88.5537 109.407 84.8773 111.8 79.9673C112.343 78.8077 112.837 77.8454 112.861 77.796C112.96 77.6727 119.178 80.1894 120.14 80.7322C121.25 81.349 122.114 82.632 122.385 83.9891C122.484 84.5566 122.583 86.8265 122.607 89.0225V93.0443H119.277H115.946V91.9586C115.946 90.6016 115.526 89.3926 114.959 89.0965C114.169 88.677 113.108 88.8251 112.541 89.4173C111.998 89.9847 111.998 90.0094 111.998 102.445V114.93L112.565 115.448C113.207 116.065 114.367 116.139 115.008 115.645C115.872 115.004 115.946 114.091 115.946 105.48V96.992H118.166H120.387V105.874V114.782L121.004 115.374C121.793 116.188 122.928 116.188 123.718 115.374L124.335 114.782V105.874C124.335 98.5464 124.384 96.992 124.68 96.992C124.853 96.992 125.297 96.7699 125.667 96.4739L126.308 95.9804V89.3679C126.308 82.0399 126.234 81.4971 124.705 79.4245C123.52 77.8207 122.336 77.2039 114.342 74.021C110.542 72.4913 107.359 71.1836 107.236 71.0849C107.137 71.0108 107.853 70.7394 108.79 70.5174C112.787 69.5551 119.77 66.4216 121.349 64.8671C122.262 63.9542 122.262 63.9542 121.621 58.2547C120.88 51.5188 120.387 44.6842 120.14 37.1588C119.844 28.4738 119.474 26.4999 117.253 22.182C111.085 10.1414 96.4536 5.13268 84.1909 10.8816C78.7627 13.423 74.5682 17.6175 72.0268 23.0456C70.2257 26.8947 69.6088 30.349 69.5348 37.0355C69.5102 39.0094 69.4361 41.8961 69.3374 43.4506L69.1894 46.288L67.2155 47.3243L65.2663 48.3359L59.394 45.3998C56.1618 43.7713 53.5217 42.4143 53.5217 42.3403C53.5217 42.2663 53.6945 41.5754 53.8918 40.7858C54.0892 40.021 54.3113 38.96 54.3853 38.4419C54.5087 37.7017 54.7061 37.4549 55.471 37.0355C58.7772 35.3577 59.7395 30.8178 57.4448 27.8569L56.7293 26.944V20.7016C56.7293 17.272 56.6059 13.7931 56.4826 12.9788C56.1371 10.8569 55.0022 8.71033 53.4231 7.22992C52.6828 6.51439 51.992 5.70016 51.8933 5.40408C51.3258 3.60292 49.5987 1.75241 47.6001 0.790146L46.2431 0.148636L35.7568 0.0992889C27.1705 0.0746155 24.9499 0.123962 23.5435 0.420044ZM45.7003 4.31845C46.7612 4.76257 48.0196 6.21831 48.3403 7.37796C48.513 8.06882 48.9818 8.68566 50.0428 9.59858C52.5101 11.7698 52.6335 12.1646 52.7322 19.3199L52.8309 25.4389H51.2518C49.2779 25.4389 48.5871 25.9571 48.5871 27.3881C48.5871 28.8192 49.2039 29.2387 51.4985 29.3373C53.127 29.4114 53.4971 29.5347 54.0892 30.0776C55.4216 31.3359 54.7061 33.2851 52.7322 33.8033C52.14 33.9513 51.5479 34.1487 51.3998 34.2474C50.8817 34.6175 50.5609 35.5304 50.5609 36.5914C50.5363 40.2184 48.5377 44.7336 45.6262 47.6697C40.3955 52.9499 32.8701 54.2822 26.2576 51.0993C22.5565 49.2982 20.0398 46.7815 18.2634 43.0805C17.2024 40.8845 16.857 39.6015 16.5362 36.6654C16.2895 34.4448 15.9441 34.0006 14.3156 33.7292C12.3911 33.4332 11.7002 31.4593 13.0326 30.1022C13.7481 29.4114 13.7975 29.3867 16.4375 29.3867C18.066 29.3867 19.349 29.2633 19.7191 29.0659C20.2126 28.8192 20.5333 28.2024 21.3229 25.8831L22.2851 23.0209L24.9005 22.8729C29.3171 22.5768 34.7699 21.9847 37.484 21.4665C42.0733 20.5783 46.5392 19.0979 47.6741 18.1109C48.2663 17.5434 48.2169 16.1124 47.5508 15.3968C46.8599 14.6566 46.021 14.6813 44.2692 15.4709C40.5682 17.0993 33.6103 18.333 25.3446 18.8265C21.1748 19.0732 20.0398 19.2212 19.6204 19.542C19.3243 19.7887 18.7568 21.0471 18.2387 22.6262L17.3258 25.3156L15.8207 25.3896L14.2909 25.4636V21.0717C14.2909 18.6537 14.4143 15.915 14.5377 15.0021C15.2532 10.092 19.2256 5.70016 24.1603 4.3678C26.0602 3.84966 44.4913 3.80031 45.7003 4.31845ZM97.4405 12.6334C104.695 13.5217 111.184 18.333 114.243 25.0935C115.674 28.2764 115.946 29.8802 116.192 37.0355C116.513 46.362 117.451 58.8468 118.043 61.7089C118.166 62.2764 118.018 62.4491 116.266 63.3621C113.922 64.6204 110.567 65.9281 107.557 66.7423L105.336 67.3592V65.9528C105.336 64.5711 105.361 64.5464 106.323 63.9789C107.631 63.2387 110.591 60.4506 111.751 58.8468C114.761 54.825 116.291 49.0515 115.699 44.2155C115.378 41.8221 114.737 40.0703 113.577 38.4912C111.628 35.8018 108.79 34.5188 101.388 32.9397C94.1836 31.4099 91.3708 30.4477 88.5827 28.5478C86.6829 27.2648 86.0414 27.1661 85.1038 28.1037C84.635 28.5971 84.3636 29.1153 84.3636 29.5594C84.3636 29.9542 84.0675 30.8671 83.7221 31.558C82.7845 33.4332 80.6626 35.0123 77.9978 35.8265C76.1473 36.3693 75.4811 37.825 76.4928 39.108C77.1589 39.9469 78.3679 39.9716 80.5392 39.1327C83.5 38.0224 85.9427 36.0485 87.0777 33.8279C87.3491 33.2851 87.6452 32.841 87.6945 32.841C87.7685 32.841 88.4594 33.1617 89.2489 33.5565C91.2475 34.5681 93.8629 35.333 99.7105 36.6407C107.063 38.2938 108.371 38.812 110.098 40.7118C111.307 42.0442 111.825 43.796 111.825 46.5101C111.825 51.2721 109.876 55.5653 106.175 58.9949C102.104 62.7452 96.3796 64.2256 90.828 62.9179C90.1865 62.7699 88.6321 62.1531 87.3737 61.5362C85.0791 60.4259 85.0791 60.4259 84.3636 58.8468C83.5247 56.9963 82.2663 55.0471 80.9093 53.4927L79.9224 52.3824V48.0645C79.9224 43.8454 79.8977 43.6973 79.3302 43.0558C78.5406 42.1182 77.5044 42.1922 75.2591 43.3272C74.2721 43.8207 73.4086 44.1908 73.3839 44.1414C73.3345 44.0921 73.3839 41.0573 73.5073 37.4056C73.754 29.8308 74.0747 27.9556 75.7279 24.5754C79.2068 17.3707 86.4362 12.6828 94.4797 12.3867C94.9732 12.3867 96.3055 12.4854 97.4405 12.6334ZM57.5929 49.0515C59.1473 49.841 60.4303 50.5319 60.4303 50.6059C60.4303 50.7292 54.8788 53.5667 54.6321 53.5667C54.558 53.5667 54.5087 52.2343 54.5087 50.6059C54.5087 48.9774 54.558 47.6451 54.6321 47.6451C54.7061 47.6451 56.0384 48.2866 57.5929 49.0515ZM75.9746 50.6059C75.9746 52.2343 75.9253 53.5667 75.8512 53.5667C75.6045 53.5667 70.053 50.7292 70.053 50.6059C70.053 50.4578 75.4565 47.6944 75.8019 47.6697C75.9006 47.6451 75.9746 48.9774 75.9746 50.6059ZM49.4753 53.6407C48.8831 54.3563 47.8715 55.7626 47.2547 56.7743L46.1197 58.6001V55.7133V52.8265L48.291 50.6799L50.4376 48.5086L50.5116 50.4332L50.5856 52.3577L49.4753 53.6407ZM77.5537 58.8468C78.0225 58.9702 78.442 58.8962 78.8614 58.6248C79.2068 58.4027 79.5029 58.2547 79.5523 58.304C79.799 58.5507 81.1807 61.5116 81.5015 62.4985C81.9703 63.9049 82.3897 67.1865 82.3897 69.4071C82.3897 71.0108 82.4144 71.0849 83.3766 72.0471C84.5856 73.2561 84.709 74.3664 83.7467 75.3287C83.2039 75.8715 82.8585 75.9702 81.1067 76.0689C78.442 76.2169 78.3186 76.3897 78.0965 79.7946C77.8251 84.1371 76.7888 86.6045 74.0747 89.2692C68.992 94.3026 61.3926 94.2533 56.2852 89.1458C55.1502 88.0109 54.4593 87.0239 53.7191 85.5188C52.7815 83.545 52.7075 83.2736 52.5348 80.3374C52.3127 76.365 52.2141 76.2416 49.3273 76.0689C47.5014 75.9702 47.304 75.8962 46.7365 75.23C45.873 74.2184 45.9223 73.1821 46.8846 72.2939C47.304 71.8991 47.8468 71.5783 48.0689 71.5783C49.4259 71.5783 55.545 71.0108 57.8396 70.6901C64.1807 69.7772 70.6205 68.0254 74.6916 66.1008C77.1836 64.9165 77.7018 64.4477 77.7018 63.3621C77.7018 62.3258 77.2823 61.7583 76.2954 61.4869C75.6045 61.2895 75.2097 61.3882 73.5319 62.2024C67.6103 65.0645 60.3316 66.7177 50.0675 67.5072L48.1923 67.6306L48.365 65.8541C48.5871 63.7568 49.1299 61.857 49.9934 60.1052C50.9064 58.2793 51.0051 58.2053 51.6712 58.6494C52.5101 59.1922 53.2997 58.8962 59.6901 55.6886L65.2416 52.8758L71.0399 55.7873C74.2228 57.3664 77.1589 58.7481 77.5537 58.8468ZM26.3316 55.5159C28.0834 56.2068 31.3156 56.7743 33.5362 56.7743C35.7322 56.7743 38.9644 56.2068 40.7902 55.5159C41.4811 55.2692 42.0733 55.0471 42.1226 55.0471C42.1473 55.0471 42.172 56.0834 42.172 57.3417C42.172 60.2532 41.6785 62.2271 40.4695 63.9296C36.1269 70.1473 26.5783 68.0254 25.1473 60.4753C24.9005 59.1676 24.8018 55.0471 25.0239 55.0471C25.0732 55.0471 25.6654 55.2692 26.3316 55.5159ZM21.8163 63.4114C23.6175 68.3461 28.2808 71.5537 33.6596 71.5783C37.484 71.5783 41.4811 69.5058 43.8497 66.2735L44.3926 65.5333L44.2445 67.3592C44.0965 68.8149 43.9238 69.4071 43.381 70.1966C42.9862 70.7641 42.5174 71.8004 42.3447 72.5406C42.0733 73.8236 41.9992 73.8976 40.7902 74.4651C32.2039 78.3882 22.1618 74.7119 18.14 66.1255C17.6465 65.1139 17.2024 64.0036 17.1284 63.6335C16.9557 62.992 17.005 62.9426 18.9049 62.3505C19.9658 62.0297 20.9281 61.783 21.0515 61.8076C21.1748 61.8323 21.5203 62.5478 21.8163 63.4114ZM87.7439 66.1502C89.4216 66.7917 92.8759 67.3838 94.8498 67.3838C96.3055 67.3838 100.105 66.841 100.994 66.4956C101.339 66.3722 101.388 66.5943 101.388 68.1241C101.388 70.6901 101.783 71.7264 103.239 73.1821C104.226 74.169 104.917 74.5885 106.767 75.2794C108.001 75.7481 109.037 76.2416 109.037 76.365C109.037 76.4884 108.618 77.4259 108.124 78.4622C106.298 82.1633 102.474 85.1734 98.2794 86.2344C94.9978 87.0733 90.7047 86.4811 87.6205 84.7293C86.1154 83.9151 82.6364 80.7569 82.6364 80.2634C82.6364 80.14 83.0559 79.9673 83.574 79.8686C85.4245 79.5725 87.5465 77.648 88.0646 75.7728C88.6321 73.7496 88.2373 71.6524 86.979 69.9992C86.5595 69.4317 86.3868 68.7656 86.2634 67.4332C86.1894 66.4709 86.1894 65.6567 86.2881 65.6567C86.3868 65.6567 87.053 65.8788 87.7439 66.1502ZM65.2416 96.8686C66.2039 96.8686 67.561 96.7699 68.2765 96.6713L69.5595 96.4739V97.2881C69.5842 98.3244 70.127 99.8295 70.7192 100.496C70.9659 100.792 71.6567 101.236 72.2489 101.483L73.3099 101.976L72.4956 102.84C72.0268 103.308 70.8178 104.098 69.8309 104.591C68.0297 105.48 67.9064 105.504 65.2663 105.504C62.725 105.504 62.4289 105.455 60.9238 104.739C60.0355 104.32 58.8265 103.53 58.2097 102.988L57.1241 102.001L58.2097 101.507C58.8265 101.236 59.5174 100.792 59.7641 100.496C60.3563 99.8295 60.8991 98.3244 60.9238 97.2881V96.4739L62.2315 96.6713C62.9223 96.7699 64.3041 96.8686 65.2416 96.8686Z" fill="#FFBD4E"/>
<path d="M23.7147 30.2026C23.2459 30.6961 23.1719 31.0662 23.1719 32.6206C23.1719 34.1504 23.2706 34.5698 23.6653 35.014C24.3315 35.7295 25.886 35.7542 26.5028 35.0633C26.9963 34.5205 27.2923 32.3246 27.0209 31.2389C26.6262 29.6598 24.751 29.0923 23.7147 30.2026Z" fill="#FFBD4E"/>
<path d="M40.713 30.1015C39.7754 31.0391 39.7013 34.0986 40.5649 35.0609C41.1818 35.7271 42.7362 35.7271 43.4024 35.0609C43.8218 34.6415 43.8958 34.2467 43.8958 32.6429C43.8958 30.9404 43.8218 30.6444 43.3283 30.1756C42.6128 29.4847 41.3545 29.46 40.713 30.1015Z" fill="#FFBD4E"/>
<path d="M27.9839 40.8596C26.6269 42.192 27.6385 44.0672 30.4512 45.4489C31.8823 46.1397 32.2031 46.2137 33.8315 46.1151C35.9534 45.9917 37.1378 45.4982 38.6428 44.0672C39.8765 42.8828 40.0246 41.9452 39.1857 40.8843C38.4701 39.996 37.2858 40.0207 36.2002 40.9583C35.0899 41.9206 34.4483 42.2166 33.5354 42.2166C32.6225 42.2166 31.981 41.9206 30.8707 40.9583C29.8591 40.0454 28.7981 40.0207 27.9839 40.8596Z" fill="#FFBD4E"/>
<path d="M85.0765 40.7116C84.5337 41.1311 84.4844 41.3778 84.4844 43.2036C84.4844 45.0295 84.5337 45.2762 85.0765 45.6957C85.8661 46.3372 87.0998 46.3125 87.7659 45.597C88.2347 45.1035 88.3088 44.7334 88.3088 43.179C88.3088 41.5505 88.2347 41.2544 87.7413 40.7856C87.0257 40.1195 85.8414 40.0948 85.0765 40.7116Z" fill="#FFBD4E"/>
<path d="M101.933 40.8104C101.465 41.3039 101.391 41.674 101.391 43.2284C101.391 44.8569 101.465 45.153 101.958 45.6218C102.674 46.288 103.858 46.3126 104.623 45.6958C105.166 45.2763 105.215 45.0296 105.215 43.2038C105.215 41.3779 105.166 41.1312 104.623 40.7117C103.833 40.0702 102.6 40.0949 101.933 40.8104Z" fill="#FFBD4E"/>
<path d="M89.2728 51.3219C88.3599 52.0374 88.5326 53.3945 89.6676 54.5541C92.4063 57.3669 96.7982 57.4903 99.6603 54.8502C100.771 53.8633 100.943 53.5425 100.968 52.7283C101.017 50.7544 98.9201 50.1869 97.2176 51.7167C95.6139 53.1724 94.2568 53.1724 92.505 51.7167C91.3207 50.7297 90.1857 50.5817 89.2728 51.3219Z" fill="#FFBD4E"/>
<path d="M57.5941 74.6617C56.5579 75.6733 56.8539 77.1784 58.211 77.7459C59.0746 78.116 60.2836 77.7459 60.6783 76.981C61.3692 75.698 60.3823 74.0449 58.9512 74.0449C58.4824 74.0449 57.9643 74.2669 57.5941 74.6617Z" fill="#FFBD4E"/>
<path d="M70.1762 74.6617C69.1399 75.6733 69.436 77.1784 70.793 77.7459C71.6566 78.116 72.8656 77.7459 73.2604 76.981C73.9512 75.698 72.9643 74.0449 71.5332 74.0449C71.0644 74.0449 70.5463 74.2669 70.1762 74.6617Z" fill="#FFBD4E"/>
<path d="M59.7908 83.0016C58.5571 84.0872 59.0259 85.7404 60.9751 87.0727C63.2451 88.6272 66.1072 88.8739 68.3772 87.7389C71.412 86.2338 72.3249 84.0872 70.4991 82.8289C69.6355 82.2121 68.9693 82.3601 67.711 83.3964C67.0695 83.9145 66.2306 84.4327 65.8111 84.5067C64.9229 84.6794 63.6152 84.1613 62.5049 83.1743C61.4686 82.2861 60.679 82.2367 59.7908 83.0016Z" fill="#FFBD4E"/>
</svg>
