<svg width="130" height="100" viewBox="0 0 130 100" fill="none" xmlns="http://www.w3.org/2000/svg">
<g filter="url(#filter0_b_545_4839)">
<path d="M10.059 3.27701L2 2L3.14308 7.789L5.79079 14.1182L6.72107 19.2106L10.059 21.9576L11.7859 24.8492L12.3027 27.5239L10.7284 28.9696L8.7963 29.548L8.36694 30.56L10.059 32.6844L16.5597 37.0245L18.4692 40.0385V45.9459L21.4527 48.5982L25.5104 52.9384L27.5393 55.3496L29.2101 53.5598L28.389 51.4917L25.5104 45.9459L23.2429 40.0385V37.0245L21.4527 34.7339L17.9598 28.3443L12.7407 19.7187L11.7859 14.1182L12.7407 9.82174H15.2469L17.9598 12.5354L19.1852 18.0967L23.2429 26.2947L27.5393 33.1666L31.7163 37.0245L30.5228 38.4713V40.6299L35.1772 44.1417L35.6546 45.9459L38.5021 48.5982L44.3667 57.2785L45.9182 63.5883L44.3667 67.285V69.9208L45.9182 73.3826L50.0952 75.8311L57.7332 80.6671L69.1901 86.845L77.0324 90.2325L82.9051 91.0295L86.6977 89.4354H90.4455L95.1796 92.3247L98.3356 96.1107L102.842 99H105.266V94.3173L107.606 89.4354H110.448L114.017 86.845L110.448 84.8524L111.367 81.8635L115.003 82.5609L119.057 79.9705L122.985 77.7731L123.654 72.1161L126.746 66.9656L128 64.0105L126.746 62.6595L123.654 62.1529L120.31 62.6595L119.057 63.5883H116.382L113.206 64.0105L111.367 65.4458L110.448 68.3166L108.86 72.1161L107.606 74.9868L105.266 76.8443H102.842L99.0807 77.7731L93.23 79.0396L91.3912 77.7731L88.1315 75.8311L85.8748 73.3826L83.5345 69.9208L81.5285 66.3746L80.1077 60.4643L80.8509 53.5598V49.5691L82.9051 44.1417L84.0113 40.6299V36.0007L86.5395 30.2541H82.9051L76.1104 31.5311L74.2142 27.2212L71.5279 23.2305L68.0515 19.7187H63.785H59.0444H54.936L53.5138 16.3665L47.6672 12.5354L44.1908 9.82174H38.5021L34.0776 11.0988L28.389 12.5354L22.3843 9.82174L17.9598 6.1503L10.059 3.27701Z" fill="white" fill-opacity="0.2"/>
<path d="M10.059 3.27701L2 2L3.14308 7.789L5.79079 14.1182L6.72107 19.2106L10.059 21.9576L11.7859 24.8492L12.3027 27.5239L10.7284 28.9696L8.7963 29.548L8.36694 30.56L10.059 32.6844L16.5597 37.0245L18.4692 40.0385V45.9459L21.4527 48.5982L25.5104 52.9384L27.5393 55.3496L29.2101 53.5598L28.389 51.4917L25.5104 45.9459L23.2429 40.0385V37.0245L21.4527 34.7339L17.9598 28.3443L12.7407 19.7187L11.7859 14.1182L12.7407 9.82174H15.2469L17.9598 12.5354L19.1852 18.0967L23.2429 26.2947L27.5393 33.1666L31.7163 37.0245L30.5228 38.4713V40.6299L35.1772 44.1417L35.6546 45.9459L38.5021 48.5982L44.3667 57.2785L45.9182 63.5883L44.3667 67.285V69.9208L45.9182 73.3826L50.0952 75.8311L57.7332 80.6671L69.1901 86.845L77.0324 90.2325L82.9051 91.0295L86.6977 89.4354H90.4455L95.1796 92.3247L98.3356 96.1107L102.842 99H105.266V94.3173L107.606 89.4354H110.448L114.017 86.845L110.448 84.8524L111.367 81.8635L115.003 82.5609L119.057 79.9705L122.985 77.7731L123.654 72.1161L126.746 66.9656L128 64.0105L126.746 62.6595L123.654 62.1529L120.31 62.6595L119.057 63.5883H116.382L113.206 64.0105L111.367 65.4458L110.448 68.3166L108.86 72.1161L107.606 74.9868L105.266 76.8443H102.842L99.0807 77.7731L93.23 79.0396L91.3912 77.7731L88.1315 75.8311L85.8748 73.3826L83.5345 69.9208L81.5285 66.3746L80.1077 60.4643L80.8509 53.5598V49.5691L82.9051 44.1417L84.0113 40.6299V36.0007L86.5395 30.2541H82.9051L76.1104 31.5311L74.2142 27.2212L71.5279 23.2305L68.0515 19.7187H63.785H59.0444H54.936L53.5138 16.3665L47.6672 12.5354L44.1908 9.82174H38.5021L34.0776 11.0988L28.389 12.5354L22.3843 9.82174L17.9598 6.1503L10.059 3.27701Z" stroke="white" stroke-opacity="0.3" stroke-width="2"/>
</g>
<defs>
<filter id="filter0_b_545_4839" x="-10.2578" y="-10.2119" width="150.43" height="121.212" filterUnits="userSpaceOnUse" color-interpolation-filters="sRGB">
<feFlood flood-opacity="0" result="BackgroundImageFix"/>
<feGaussianBlur in="BackgroundImageFix" stdDeviation="5.5"/>
<feComposite in2="SourceAlpha" operator="in" result="effect1_backgroundBlur_545_4839"/>
<feBlend mode="normal" in="SourceGraphic" in2="effect1_backgroundBlur_545_4839" result="shape"/>
</filter>
</defs>
</svg>
