<svg width="621" height="732" viewBox="0 0 621 732" fill="none" xmlns="http://www.w3.org/2000/svg">
<g filter="url(#filter0_b_422_4866)">
<path fill-rule="evenodd" clip-rule="evenodd" d="M341.717 23.1216V46.2432H346.413H351.11L351.438 29.9948L351.767 13.7453L361.002 29.9948L370.237 46.2432H374.895H379.554V23.1866V0.130066H375.448H371.343L371.014 16.0486L370.686 31.9671L361.657 16.3442L352.627 0.721257L347.172 0.360629L341.717 0V23.1216ZM358.862 62.7967L355.5 74.6205H350.079C341.517 74.6205 315.579 77.9159 303.647 80.5207C297.658 81.8272 292.157 82.8973 291.423 82.8973C290.69 82.8973 289.546 80.5278 288.884 77.6309L287.679 72.3645L296.074 70.4526C300.693 69.4003 308.594 67.9377 313.634 67.2011C321.166 66.1003 322.798 65.4842 322.798 63.7378C322.798 61.0243 321.108 61.0479 306.009 63.9743C278.444 69.3175 256.287 76.6412 231.161 88.717C151.573 126.968 92.4893 197.287 69.1509 281.539C65.0846 296.219 60.3029 321.202 60.3029 327.769C60.3029 333.285 63.5061 332.05 64.4437 326.174C65.8366 317.451 71.1279 290.423 71.5204 290.029C72.3032 289.243 81.5863 292.606 81.5863 293.675C81.5863 294.291 80.8189 297.798 79.8813 301.469C77.5685 310.524 74.8028 330.401 73.8226 345.021L73.015 357.071L64.5891 359.568C48.7626 364.26 49.0322 363.566 61.4853 367.576L72.7182 371.193L74.2081 386.963C75.4673 400.286 78.3087 418.678 81.1606 431.976C81.7436 434.692 81.351 435.397 78.687 436.41C72.0773 438.923 71.4626 438.359 69.3697 427.859C67.6256 419.113 65.0326 404.668 65.0326 403.698C65.0326 403.492 63.9684 403.325 62.6677 403.325C59.8382 403.325 59.869 402.574 62.1605 415.676C81.4953 526.21 160.666 617.785 267.225 652.866C281.831 657.675 300.089 662.068 318.364 665.169C322.277 665.834 322.798 665.64 322.798 663.526C322.798 660.861 323.642 661.13 303.928 657.501C296.475 656.13 290.007 654.778 289.555 654.498C288.887 654.086 290.526 646.255 291.603 644.714C291.759 644.489 299.508 645.675 308.821 647.348C325.713 650.385 353.054 653.25 354.805 652.166C355.313 651.853 356.594 654.663 357.651 658.41C358.708 662.158 360.262 667.352 361.103 669.953L362.633 674.683L366.027 664.041C367.893 658.188 369.453 653.297 369.493 653.173C369.532 653.047 376.468 652.351 384.905 651.624C398.657 650.44 428.462 645.654 433.054 643.892C434.296 643.416 435.076 644.215 435.628 646.53C436.065 648.358 436.684 650.741 437.006 651.825C437.488 653.454 435.676 654.24 426.603 656.333C420.561 657.728 411.1 659.51 405.579 660.293C397.694 661.412 395.456 662.156 395.146 663.766C394.641 666.387 398.102 666.437 412.211 664.006C487.705 651.001 553.957 611.808 601.543 552.003C625.476 521.924 645.358 482.594 655.782 444.708C658.872 433.481 664.515 406.988 664.515 403.709C664.515 403.497 663.553 403.325 662.379 403.325C660.624 403.325 659.871 405.274 658.156 414.262C657.007 420.276 655.52 427.775 654.85 430.924L653.631 436.649L649.317 435.857C646.945 435.422 644.655 434.707 644.227 434.27C643.799 433.832 644.702 427.091 646.235 419.287C647.768 411.483 649.714 397.441 650.561 388.081L652.099 371.064L662.371 367.981C668.021 366.285 672.951 364.578 673.328 364.186C673.707 363.796 669.091 361.881 663.071 359.93L652.126 356.384L650.667 339.949C649.866 330.909 647.811 316.428 646.101 307.769C644.392 299.109 643.295 291.721 643.664 291.354C644.033 290.985 646.303 290.62 648.709 290.545L653.084 290.406L655.193 298.668C656.352 303.212 657.878 310.661 658.584 315.221C659.29 319.782 660.138 325.242 660.471 327.356C660.919 330.209 661.684 331.199 663.44 331.199C665.448 331.199 665.71 330.619 665.179 327.356C664.834 325.242 663.726 318.459 662.715 312.281C656.122 271.99 639.349 229.719 616.269 195.224C568.318 123.563 495.599 76.5691 411.397 62.831C393.614 59.9294 394.925 59.9376 394.925 62.7245C394.925 64.5702 396.02 65.1567 400.542 65.7349C407.952 66.682 435.189 71.9235 435.782 72.5159C436.202 72.9368 434.101 81.8674 433.403 82.6253C433.242 82.8003 429.706 82.1547 425.546 81.1911C414.363 78.5993 395.487 75.9294 382.2 75.058L370.489 74.2906L366.668 62.6323C364.566 56.219 362.706 50.9728 362.534 50.9728C362.364 50.9728 360.711 56.2935 358.862 62.7967ZM361.996 89.9916L361.226 107.136L356.098 107.505C351.607 107.828 351.053 107.607 351.638 105.732C352.005 104.553 354.215 97.2042 356.548 89.4004C361.902 71.4908 361.788 71.8277 362.319 72.3823C362.565 72.6377 362.419 80.562 361.996 89.9916ZM282.043 80.2274L283.488 85.1202L275.061 87.6646C263.966 91.0144 244.032 99.1929 230.945 105.766L220.438 111.042L217.724 106.326C216.231 103.732 215.186 101.451 215.4 101.257C216.925 99.8775 241.516 88.3043 250.671 84.6567C263.793 79.4293 277.999 74.7139 279.528 75.0781C280.117 75.2188 281.248 77.5363 282.043 80.2274ZM455.301 78.0294C476.125 85.1462 508.442 99.9296 508.431 102.333C508.427 103.024 507.211 105.105 505.73 106.957L503.034 110.325L493.953 105.832C488.959 103.36 484.542 101.668 484.139 102.071C483.737 102.473 483.105 105.055 482.736 107.81C482.202 111.783 482.504 113.139 484.195 114.375C486.227 115.861 486.186 116.25 483.308 122.767C481.648 126.526 479.961 131.464 479.559 133.74C479.011 136.832 480.189 135.248 484.211 127.479L489.597 117.08L494.287 119.716C496.867 121.165 498.977 122.77 498.977 123.279C498.977 124.061 487.69 143.946 486.376 145.48C486.136 145.759 484.171 145.144 482.007 144.112L478.073 142.237L476.632 153.655C475.839 159.935 474.917 166.137 474.585 167.438C474.252 168.739 475.62 167.018 477.624 163.614L481.267 157.426L487.462 161.222C496.81 166.951 520.23 184.896 525.546 190.404L530.241 195.267L524.126 201.381L518.012 207.495L509.972 200.427C491.875 184.515 475.324 173.012 474.029 175.446C473.606 176.244 472.896 179.558 472.452 182.809C472.01 186.061 471.392 189.602 471.079 190.678C470.675 192.072 473.157 194.499 479.719 199.125C484.784 202.694 492.334 208.749 496.5 212.582L504.072 219.548L483.943 232.669C465.42 244.743 463.765 246.108 463.208 249.771C462.876 251.961 462.812 253.981 463.067 254.258C463.324 254.538 468.394 251.469 474.337 247.44C480.28 243.411 485.318 240.291 485.534 240.507C485.751 240.722 479.83 249.978 472.379 261.075C459.951 279.58 458.766 281.825 458.059 288.193L457.287 295.136L460.731 290.406C462.625 287.805 473.714 271.355 485.372 253.851L506.57 222.023L514.107 230.203C541.87 260.328 561.381 306.779 563.62 348.081C564.252 359.752 564.106 361.913 562.714 361.424C560.94 360.802 452.705 339.476 451.32 339.476C450.868 339.476 450.498 340.748 450.498 342.304C450.498 345.708 446.491 344.617 494.538 354.294C515.514 358.518 533.706 362.406 534.966 362.931C536.521 363.581 522.524 366.802 491.297 372.982C466.02 377.985 445.129 382.286 444.874 382.543C444.618 382.798 444.582 384.285 444.793 385.845L445.177 388.682L462.322 385.33C471.752 383.485 498.249 378.266 521.204 373.732C544.158 369.198 563.26 365.488 563.65 365.488C565.086 365.488 562.834 392.442 560.442 403.916C553.568 436.875 538.566 467.477 516.245 494.073C511.196 500.088 506.927 505.01 506.756 505.01C506.586 505.01 491.371 482.384 472.944 454.729C454.519 427.074 438.908 404.626 438.256 404.844C437.603 405.061 436.528 406.096 435.867 407.145C434.911 408.662 439.913 416.926 460.406 447.681C474.563 468.927 485.974 486.464 485.763 486.652C485.552 486.84 468.353 475.633 447.542 461.748L409.705 436.502L407.655 439.127C405.7 441.629 405.709 441.835 407.848 443.526C409.082 444.501 431.128 459.133 456.838 476.041C482.549 492.95 503.612 507.125 503.645 507.543C503.759 508.951 483.78 525.099 473.022 532.294C454.082 544.962 426.257 556.612 404.384 561.03C393.034 563.323 377.038 565.312 369.941 565.312C365.279 565.312 364.477 564.985 364.869 563.243C368.152 548.677 383.147 469.19 382.698 468.741C382.366 468.408 380.539 470.281 378.639 472.903C375.644 477.038 374.43 481.485 369.496 506.416C366.366 522.226 363.473 536.113 363.065 537.275C362.642 538.48 360.866 531.866 358.937 521.904C357.075 512.288 355.3 503.731 354.992 502.89C354.153 500.603 349.991 504.746 350.004 507.854C350.009 509.216 352.402 522.568 355.32 537.526C358.24 552.483 360.629 564.853 360.632 565.016C360.634 565.179 357.576 565.308 353.836 565.305C343.156 565.294 319.731 561.393 307.223 557.542C305.797 557.104 300.492 562.342 288.172 576.354C271.134 595.733 271.088 595.802 266.545 608.329C263.854 615.751 261.346 620.884 260.412 620.884C259.541 620.884 257.3 620.093 255.429 619.126C252.09 617.398 251.961 617.453 248.251 622.136C246.173 624.759 244.676 627.107 244.922 627.353C245.797 628.229 265.598 635.929 275.031 639.062L284.612 642.245L283.36 646.936C282.559 649.934 281.423 651.626 280.209 651.626C275.103 651.626 245.3 640.104 228.165 631.505L216.272 625.538L218.858 620.937L221.444 616.336L231.283 621.216C236.695 623.9 241.426 625.794 241.795 625.424C242.165 625.054 242.791 622.019 243.186 618.68C243.799 613.507 243.613 612.607 241.931 612.607C238.37 612.607 238.638 609.473 242.913 601.084C245.23 596.54 247.113 591.288 247.1 589.412C247.081 586.777 245.863 588.54 241.733 597.183C238.795 603.333 236.185 608.568 235.935 608.82C235.187 609.566 231.355 607.989 228.427 605.729L225.694 603.619L231.848 593.038C235.233 587.218 238.38 582.03 238.842 581.507C239.303 580.984 241.539 581.654 243.809 582.993L247.938 585.429L249.383 573.301C250.177 566.631 251.095 559.843 251.423 558.217C251.771 556.496 250.385 558.102 248.106 562.06C245.954 565.8 243.649 568.859 242.982 568.859C239.757 568.859 214.02 549.829 202.844 539.183L194.626 531.355L200.65 525.138L206.675 518.921L217.56 528.528C223.546 533.811 233.579 541.563 239.853 545.754C252.805 554.405 251.995 554.686 253.4 541.073L254.133 533.979L244.421 527.22C235.284 520.863 222.293 509.209 222.293 507.37C222.293 506.912 230.788 500.874 241.169 493.951C259.859 481.489 262.495 479.068 262.495 474.367C262.495 472.255 261.245 472.777 252.74 478.438C247.374 482.009 241.99 485.511 240.773 486.221C237.966 487.857 237.433 488.759 253.192 465.215C262.979 450.595 266.143 444.909 266.676 440.976C267.059 438.152 267.632 434.51 267.947 432.884C268.263 431.258 257.516 446.423 244.065 466.582C230.615 486.742 219.36 503.502 219.055 503.828C217.859 505.101 202.684 487.252 194.453 474.891C174.765 445.319 163.071 411.351 161.175 378.221L160.436 365.311L165.056 366.174C167.597 366.648 193.088 371.635 221.702 377.259L273.728 387.482L274.112 384.653C274.324 383.099 274.249 381.577 273.946 381.274C273.642 380.97 253.782 376.814 229.812 372.037C205.841 367.262 186.762 363.269 187.412 363.166C188.062 363.063 209.08 358.873 234.117 353.852L279.64 344.724L280.014 341.509C280.268 339.328 279.841 338.293 278.689 338.293C277.755 338.293 250.771 343.557 218.726 349.989L160.461 361.687L161.183 349.069C163.585 307.091 180.534 265.83 209.063 232.514C213.818 226.962 218.074 222.438 218.522 222.462C218.971 222.485 221.787 226.343 224.782 231.034C232.798 243.592 285.002 322.171 286.065 323.278C286.565 323.799 287.864 322.869 288.949 321.211C290.923 318.201 290.887 318.138 265.017 279.471C250.767 258.172 239.265 240.575 239.456 240.367C239.647 240.157 256.609 251.197 277.149 264.901C297.688 278.604 314.904 289.815 315.406 289.815C315.907 289.815 316.972 288.765 317.774 287.482C319.13 285.312 315.915 282.928 271.122 252.898C244.663 235.159 222.828 220.041 222.599 219.302C222.372 218.562 226.332 214.406 231.4 210.064C263.747 182.354 304.818 165.343 346.721 162.301C354.048 161.768 360.197 161.44 360.383 161.571C360.569 161.702 356.228 184.093 350.736 211.328L340.751 260.847L345.299 255.6C347.801 252.714 350.107 249.256 350.423 247.915C350.74 246.573 353.501 232.552 356.558 216.755C359.616 200.96 362.314 188.233 362.555 188.474C362.797 188.715 364.596 196.85 366.556 206.553C368.515 216.254 370.255 224.622 370.424 225.148C370.593 225.673 371.898 224.526 373.322 222.598L375.913 219.093L370.22 190.901C367.088 175.396 364.847 162.367 365.241 161.951C366.452 160.666 390.627 163.097 403.461 165.793C410.146 167.198 416.47 168.409 417.511 168.484C418.595 168.562 426.944 159.829 437.008 148.093C453.666 128.668 454.826 126.985 458.623 116.76C460.83 110.817 462.733 105.83 462.852 105.678C462.972 105.527 464.822 106.059 466.962 106.861C470.731 108.272 470.985 108.17 474.884 103.666C477.1 101.107 478.505 98.6408 478.007 98.1832C476.691 96.9748 449.408 86.8488 444.882 85.8887C442.768 85.4406 441.043 84.717 441.046 84.2818C441.065 81.9951 443.64 74.6205 444.42 74.6205C444.917 74.6205 449.815 76.1553 455.301 78.0294ZM351.176 87.6268C351.176 88.2771 350.942 88.8092 350.655 88.8092C350.367 88.8092 349.804 88.2771 349.402 87.6268C349 86.9765 349.236 86.4444 349.924 86.4444C350.612 86.4444 351.176 86.9765 351.176 87.6268ZM346.446 94.1808C346.446 103.036 342.948 114.818 340.318 114.821C337.752 114.822 337.306 113.072 336.331 99.1551L335.523 87.6268H340.985H346.446V94.1808ZM389.779 89.696C389.462 90.8346 388.872 95.4897 388.467 100.042C387.353 112.567 386.729 114.822 384.376 114.822C381.619 114.822 377.639 101.048 378.141 93.2432L378.501 87.6268H384.428C389.504 87.6268 390.272 87.9236 389.779 89.696ZM332.716 96.7903C333.148 101.181 333.815 107.237 334.197 110.251L334.891 115.73L330.062 116.191C325.686 116.608 325.177 116.372 324.63 113.668C323.293 107.065 321.633 95.122 321.625 92.0608C321.616 89.009 321.933 88.8092 326.773 88.8092H331.931L332.716 96.7903ZM403.986 92.2783C403.604 94.1867 402.633 100.306 401.828 105.876L400.363 116.004H395.28C389.323 116.004 389.361 116.171 391.533 99.2355L392.87 88.8092H398.775C404.676 88.8092 404.68 88.8116 403.986 92.2783ZM319.847 103.03C321.001 110.201 321.648 116.367 321.283 116.731C319.692 118.323 311.988 119.301 311.553 117.967C310.948 116.108 307.621 98.4019 307.186 94.7211C306.839 91.7912 308.197 91.1196 316.431 90.1477C317.222 90.0543 318.589 95.2083 319.847 103.03ZM418.394 91.8503C418.745 92.1435 414.732 111.558 413.124 117.35C412.688 118.919 411.792 119.107 408.392 118.339C406.085 117.819 403.978 117.174 403.709 116.905C403.441 116.637 404.111 110.495 405.198 103.257L407.176 90.0956L412.578 90.8015C415.551 91.1893 418.168 91.6611 418.394 91.8503ZM306.305 105.683C307.702 112.035 308.568 117.953 308.23 118.835C307.693 120.234 300.415 122.239 299.346 121.282C298.699 120.704 293.288 99.0239 293.262 96.9074C293.238 94.908 301.272 92.0194 302.936 93.43C303.391 93.8166 304.908 99.3301 306.305 105.683ZM431.799 95.7179C432.475 96.367 426.432 120.364 425.31 121.487C424.563 122.233 416.208 119.402 416.208 118.403C416.208 117.321 420.777 96.3623 421.547 93.9112C421.873 92.8707 423.146 92.8234 426.488 93.7256C428.963 94.3936 431.353 95.2911 431.799 95.7179ZM292.49 107.377C294.075 113.299 295.698 119.172 296.097 120.429C296.694 122.309 295.961 122.971 291.958 124.17C289.284 124.971 286.975 125.457 286.827 125.249C286.416 124.672 280.45 105.185 279.619 101.706C278.941 98.8737 279.277 98.5509 283.993 97.4962C286.801 96.8672 289.214 96.4108 289.354 96.4817C289.494 96.5527 290.906 101.455 292.49 107.377ZM442.074 97.8249C444.269 98.2636 445.769 99.2934 445.769 100.364C445.769 101.956 438.924 124.425 438.226 125.123C437.416 125.934 429.215 122.785 429.215 121.663C429.215 117.669 435.669 97.0859 436.921 97.0859C437.722 97.0859 440.041 97.4182 442.074 97.8249ZM279.849 113.596C282.023 120.327 283.635 126 283.433 126.202C283.231 126.404 281.086 127.398 278.666 128.409C275.204 129.855 274.156 129.926 273.748 128.742C273.464 127.914 271.366 122.208 269.086 116.062C266.805 109.917 265.227 104.596 265.577 104.238C266.598 103.194 273.626 100.799 274.812 101.089C275.409 101.236 277.676 106.864 279.849 113.596ZM457.297 103.127C458.76 103.674 459.958 104.375 459.958 104.686C459.958 104.996 457.793 110.855 455.148 117.703L450.338 130.157L446.044 128.364C443.683 127.378 441.667 126.454 441.564 126.312C441.461 126.17 443.215 120.315 445.461 113.301C449.902 99.4353 449.153 100.08 457.297 103.127ZM267.123 118.709L271.807 130.22L267.215 132.562C264.69 133.851 262.364 134.485 262.047 133.971C260.907 132.128 251.853 110.849 251.853 110.015C251.853 108.719 260.599 105.456 261.58 106.385C262.053 106.832 264.547 112.378 267.123 118.709ZM533.858 117.32C556.109 132.601 578.938 153.875 595.898 175.131C605.544 187.219 619.583 207.547 619.583 209.426C619.583 209.94 617.75 211.443 615.511 212.764L611.439 215.166L602.497 201.944C594.024 189.415 588.671 182.612 575.399 167.498C569.783 161.105 569.69 160.873 571.556 158.025C574.253 153.909 573.972 153.52 569.839 155.657C566.213 157.532 566.203 157.528 559.757 151.845C545.02 138.853 533.175 129.574 521.825 122.134L509.79 114.247L512.28 109.816L514.771 105.385L520.177 108.51C523.149 110.229 529.306 114.194 533.858 117.32ZM211.664 110.388C212.953 112.501 214.009 114.497 214.01 114.822C214.013 115.147 211.459 116.848 208.336 118.602C200.811 122.828 181.511 137.321 169.394 147.845C160.789 155.319 159.365 156.15 157.174 154.977C153.992 153.274 153.297 154.003 155.383 156.854C156.881 158.904 156.318 159.903 149.095 168.001C137.038 181.52 131.128 189.172 121.724 203.436L113.135 216.467L108.889 213.918C106.554 212.514 104.451 211.223 104.216 211.047C103.325 210.379 119.404 187.031 128.761 175.409C140.409 160.94 159.78 141.373 173.069 130.656C182.704 122.886 206.64 106.545 208.39 106.545C208.902 106.545 210.376 108.275 211.664 110.388ZM254.402 124.073L260.016 136.121L255.809 137.878C253.496 138.846 251.112 139.333 250.511 138.963C249.314 138.221 238.847 117.836 238.847 116.242C238.847 115.03 246.094 111.32 247.659 111.73C248.279 111.893 251.313 117.447 254.402 124.073ZM450.831 140.539C421.4 175.572 404.72 195.393 360.031 248.432C340.58 271.518 317.141 299.371 307.945 310.328L291.225 330.251L289.324 343.435C283.139 386.312 262.773 526.576 257.2 564.669C253.59 589.352 250.802 610.045 251.004 610.653C251.208 611.262 259.33 602.283 269.054 590.7C278.778 579.117 291.285 564.277 296.845 557.722C302.407 551.166 321.052 529.042 338.279 508.557C355.507 488.072 384.068 454.162 401.748 433.203L433.894 395.094L439.871 353.983C448.492 294.697 462.815 196.08 469.326 151.18C472.414 129.883 474.825 112.457 474.682 112.457C474.539 112.457 463.806 125.094 450.831 140.539ZM241.635 129.817L247.322 141.266L244.563 143.406C243.044 144.582 241.044 145.417 240.116 145.259C238.673 145.014 225.84 125.048 225.84 123.048C225.84 122.232 232.945 118.557 234.737 118.445C235.404 118.403 238.507 123.521 241.635 129.817ZM230.374 137.433C233.083 142.39 235.3 147.032 235.3 147.748C235.3 149.534 228.072 153.144 227.161 151.813C221.664 143.767 213.785 131.3 213.728 130.558C213.688 130.032 215.706 128.439 218.213 127.018C223.516 124.012 222.619 123.245 230.374 137.433ZM506.595 126.763C508.908 128.127 510.801 129.76 510.801 130.39C510.801 131.744 497.477 152.646 496.612 152.648C496.287 152.649 494.33 151.618 492.262 150.357L488.505 148.066L495.218 136.189C498.912 129.656 502.036 124.305 502.161 124.296C502.287 124.288 504.282 125.397 506.595 126.763ZM383.692 126.714C397.377 127.898 419.956 131.828 422.75 133.513C423.739 134.11 423.487 136.584 421.817 142.668L419.528 151.005L406.931 148.308C400.002 146.824 387.151 144.967 378.371 144.18L362.409 142.75L362.798 134.107C363.252 124.01 361.124 124.763 383.692 126.714ZM218.059 143.449L225.059 154.217L221.606 156.979C219.708 158.498 217.623 159.727 216.972 159.708C215.913 159.678 203.429 142.339 202.343 139.392C201.863 138.086 207.969 132.631 209.878 132.662C210.528 132.671 214.21 137.526 218.059 143.449ZM519.672 135.218C521.93 136.682 523.763 138.144 523.743 138.47C523.723 138.795 520.116 143.926 515.728 149.874L507.751 160.688L503.987 157.559L500.225 154.432L506.992 143.503C510.713 137.493 514.164 132.571 514.661 132.566C515.157 132.561 517.412 133.754 519.672 135.218ZM303.216 142.058C304.403 146.633 305.171 150.564 304.922 150.796C304.674 151.026 298.772 153.115 291.806 155.436C282.154 158.652 259.649 168.497 252.999 172.414C252.46 172.732 243.577 158.257 243.577 157.06C243.577 155.058 294.296 134.082 299.808 133.803C300.497 133.768 302.03 137.483 303.216 142.058ZM206.805 151.704L214.372 162.529L210.943 165.273C209.056 166.783 207.195 168.02 206.805 168.023C205.8 168.032 190.368 148.176 190.368 146.874C190.368 145.883 197.285 140.871 198.645 140.877C198.97 140.878 202.641 145.749 206.805 151.704ZM532.391 144.663L535.653 146.922L527.26 157.18C522.644 162.822 518.515 167.55 518.086 167.689C517.656 167.826 515.746 166.666 513.84 165.11C511.259 163.002 510.689 161.883 511.604 160.721C512.281 159.864 515.864 155.025 519.57 149.969C523.795 144.206 526.834 141.081 527.718 141.591C528.494 142.038 530.596 143.421 532.391 144.663ZM195.642 159.871C199.895 165.138 203.375 169.834 203.375 170.307C203.375 170.778 201.986 172.454 200.291 174.031L197.207 176.897L187.764 166.859L178.323 156.819L182.232 153.557C184.382 151.762 186.538 150.293 187.024 150.293C187.511 150.293 191.389 154.603 195.642 159.871ZM542.648 153.365L546.3 156.437L541.602 161.938C539.018 164.963 535.095 169.543 532.885 172.116L528.865 176.793L525.682 174.707C522.122 172.375 520.521 169.369 522.219 168.205C522.835 167.783 526.432 163.581 530.209 158.866C533.988 154.15 537.512 150.293 538.039 150.293C538.567 150.293 540.641 151.676 542.648 153.365ZM185.139 168.922C184.451 169.611 172.632 163.386 172.632 162.334C172.632 161.824 173.274 160.766 174.058 159.982C175.171 158.869 176.593 159.644 180.536 163.515C183.315 166.241 185.387 168.675 185.139 168.922ZM446.517 172.873C443.009 180.288 429.107 208.703 415.626 236.017C402.143 263.33 389.36 289.455 387.217 294.071L383.323 302.466L371.684 303.166C353.296 304.271 334.066 310.911 316.249 322.31C312.386 324.78 310.019 325.808 310.987 324.595C311.955 323.381 319.133 314.924 326.937 305.803C334.74 296.683 346.71 282.57 353.535 274.442C360.361 266.314 366.221 259.398 366.559 259.073C366.896 258.748 373.017 251.619 380.162 243.233C387.306 234.846 398.738 221.483 405.567 213.536C412.395 205.59 425.697 190.035 435.127 178.969C444.557 167.903 452.411 158.971 452.583 159.119C452.754 159.268 450.024 165.458 446.517 172.873ZM553.368 163.468C553.368 164.009 549.51 166.388 544.796 168.755C535.419 173.461 535.424 173.304 544.979 163.022C548.831 158.878 549.215 158.725 551.226 160.545C552.404 161.611 553.368 162.927 553.368 163.468ZM178.468 176.818C182.653 181.064 185.845 184.681 185.563 184.856C185.279 185.031 183.619 186.431 181.874 187.968L178.699 190.761L172.666 178.739C165.815 165.089 166.637 164.817 178.468 176.818ZM559.28 167.212C559.28 167.413 554.979 171.481 549.722 176.25L540.164 184.922L537.18 181.939L534.196 178.956L545.851 172.957C556.673 167.39 559.28 166.275 559.28 167.212ZM167.373 179.974C169.698 184.593 171.403 188.571 171.161 188.813C170.919 189.056 167.86 186.357 164.363 182.817C158.118 176.494 158.046 176.34 160.182 173.979C161.378 172.657 162.534 171.576 162.749 171.576C162.966 171.576 165.046 175.355 167.373 179.974ZM565.996 176.404C566.114 177.325 564.044 179.937 561.398 182.208L556.585 186.337L559.766 180.06C562.743 174.186 565.508 172.564 565.996 176.404ZM165.644 188.298C170.787 192.943 174.997 197.17 174.997 197.692C174.997 198.213 173.784 200.049 172.301 201.773L169.605 204.908L158.662 196.323L147.719 187.737L151.539 183.795C153.64 181.627 155.569 179.853 155.825 179.853C156.081 179.853 160.499 183.653 165.644 188.298ZM572.787 183.306C574.605 185.203 575.902 187.273 575.668 187.902C575.434 188.532 570.838 192.635 565.456 197.019C555.94 204.772 555.604 204.934 553.336 202.881C549.23 199.164 550.412 196.306 559.546 187.874C564.277 183.508 568.447 179.916 568.814 179.893C569.18 179.871 570.968 181.407 572.787 183.306ZM158.139 199.866L167.886 207.228L164.807 211.264C163.028 213.596 161.158 214.955 160.381 214.479C152.032 209.381 139.678 199.461 140.311 198.361C143.433 192.93 145.798 190.498 147.03 191.45C147.779 192.031 152.778 195.817 158.139 199.866ZM584.39 198.382C585.102 199.332 581.973 202.213 574.423 207.561L563.419 215.357L560.258 211.506C558.52 209.388 557.19 207.567 557.302 207.461C557.414 207.354 562.223 203.497 567.986 198.892L578.467 190.517L580.91 193.757C582.253 195.54 583.819 197.621 584.39 198.382ZM205.417 209.336C204.629 210.354 201.757 213.581 199.035 216.507C192.039 224.027 185.759 232.169 178.513 243.111C175.068 248.313 172.135 252.725 171.997 252.915C171.444 253.672 157.261 244.691 157.261 243.584C157.261 239.927 176.89 213.383 188.432 201.431L194.428 195.221L200.638 201.354C205.836 206.488 206.614 207.787 205.417 209.336ZM454.853 197.811C454.476 198.754 454.196 198.473 454.139 197.096C454.088 195.85 454.367 195.152 454.76 195.545C455.152 195.937 455.195 196.958 454.853 197.811ZM443.995 266.173C438.433 300.962 433.558 331.82 433.162 334.746C432.767 337.672 432.107 340.709 431.697 341.495C431.287 342.28 429.328 336.064 427.346 327.684L423.739 312.444L437.727 259.45C445.42 230.304 452.082 204.861 452.532 202.91C452.981 200.959 453.521 200.163 453.729 201.142C453.937 202.121 449.557 231.385 443.995 266.173ZM149.279 210.488C154.32 214.105 158.443 217.619 158.443 218.296C158.443 219.281 156.817 222.159 154.237 225.736C154.015 226.044 132.677 212.395 131.379 211.114C130.319 210.07 137.403 202.327 138.714 203.093C139.485 203.543 144.239 206.871 149.279 210.488ZM591.01 206.608C592.528 208.951 593.326 211.266 592.784 211.753C590.791 213.539 570.865 226.119 570.606 225.752C570.459 225.545 569.17 223.682 567.741 221.613L565.145 217.849L576.106 210.127C582.135 205.88 587.333 202.392 587.658 202.376C587.983 202.361 589.492 204.265 591.01 206.608ZM141.594 222.019C146.959 225.461 151.348 228.583 151.348 228.954C151.348 230.12 147.772 236.608 147.13 236.608C145.457 236.608 124.153 224.208 124.153 223.235C124.153 220.726 129.146 214.165 130.461 214.945C131.219 215.395 136.228 218.577 141.594 222.019ZM598.203 218.125C599.557 220.314 600.664 222.576 600.664 223.15C600.664 223.723 595.536 227.078 589.268 230.604C578.283 236.784 577.812 236.933 576.176 234.742C571.829 228.922 571.757 229.046 583.86 221.418C590.176 217.437 595.433 214.172 595.542 214.161C595.652 214.151 596.85 215.935 598.203 218.125ZM633.858 236.005C640.721 250.459 650.326 276.314 650.326 280.333C650.326 281.816 649.064 282.616 645.92 283.126C643.496 283.52 641.161 283.456 640.73 282.986C640.299 282.515 639.041 278.937 637.935 275.035C635.276 265.653 626.924 245.316 620.365 232.258L615.091 221.757L619.388 219.264C623.638 216.8 623.703 216.798 625.302 219.082C626.192 220.352 630.042 227.967 633.858 236.005ZM104.603 219.682C106.902 220.778 108.782 222.189 108.782 222.816C108.782 223.444 106.059 229.597 102.73 236.491C96.1241 250.17 89.7438 266.023 86.109 277.792L83.7844 285.317L79.4426 284.503C77.0553 284.055 74.7425 283.467 74.3038 283.196C72.2074 281.9 86.5347 242.788 94.9428 226.853C97.6021 221.814 99.9231 217.69 100.102 217.69C100.279 217.69 102.305 218.586 104.603 219.682ZM136.853 234.962C140.913 237.273 144.467 239.544 144.754 240.007C145.04 240.471 144.206 242.54 142.898 244.605L140.52 248.36L128.789 242.472C122.337 239.235 117.059 236.304 117.059 235.959C117.059 235.613 118.151 233.189 119.486 230.573L121.914 225.814L125.694 228.287C127.772 229.647 132.794 232.652 136.853 234.962ZM606.231 231.74L608.842 236.312L596.312 242.404C589.42 245.755 583.723 248.349 583.651 248.168C583.579 247.988 582.572 246.134 581.414 244.049C579.337 240.31 579.346 240.234 582.005 238.585C591.277 232.835 601.428 227.162 602.438 227.164C603.088 227.165 604.796 229.225 606.231 231.74ZM138.342 251.813C138.342 252.361 137.752 254.501 137.031 256.57C135.484 261.008 135.508 261.012 120.488 253.89L110.223 249.023L112.422 243.969L114.622 238.915L126.481 244.867C133.005 248.14 138.342 251.266 138.342 251.813ZM612.964 245.012L614.745 249.277L602.362 254.942C595.552 258.057 589.796 260.394 589.57 260.135C588.348 258.729 586.476 254.267 586.476 252.76C586.476 250.792 609.058 238.669 610.358 239.939C610.812 240.383 611.984 242.665 612.964 245.012ZM576.419 260.551C584.623 277.572 593.004 300.378 591.533 301.681C590.635 302.475 575.502 306.462 575.11 306.007C575.001 305.88 573.047 300.191 570.767 293.362C568.488 286.534 563.806 275.095 560.364 267.941C556.922 260.788 554.073 254.507 554.033 253.984C553.956 252.993 566.254 244.958 567.917 244.912C568.44 244.896 572.267 251.934 576.419 260.551ZM133.254 263.051C133.89 263.687 130.108 272.079 129.185 272.079C126.975 272.079 106.088 263.141 105.654 262.009C105.382 261.301 105.969 258.786 106.958 256.42L108.756 252.117L120.81 257.389C127.44 260.289 133.04 262.836 133.254 263.051ZM619.27 259.267L620.622 262.418L608.575 267.254C601.947 269.913 596.1 272.088 595.579 272.084C594.613 272.079 590.768 263.837 591.431 263.193C591.632 262.997 597.117 260.483 603.621 257.602C616.497 251.902 616.088 251.858 619.27 259.267ZM116.743 270.594C129.739 275.364 129.252 274.772 126.421 282.341L125.458 284.918L112.528 280.646L99.5968 276.374L100.746 272.749C101.379 270.755 102.098 268.459 102.346 267.645C102.974 265.58 103.215 265.629 116.743 270.594ZM623.001 268.828C625.942 276.687 626.579 275.981 612.406 280.557C599.358 284.769 599.306 284.775 598.371 282.275C595.581 274.811 595.16 275.346 607.486 270.664C613.814 268.26 619.671 266.266 620.5 266.23C621.328 266.196 622.454 267.364 623.001 268.828ZM117.409 285.671C124.147 287.773 124.249 287.87 123.492 291.472C123.068 293.488 122.286 295.601 121.754 296.169C120.521 297.485 95.7728 290.901 95.7823 289.258C95.7858 288.589 96.3333 286.08 96.999 283.683L98.2098 279.325L104.382 281.43C107.778 282.587 113.639 284.496 117.409 285.671ZM627.744 284.079C628.458 286.127 629.042 288.44 629.042 289.219C629.042 291.031 604.446 297.64 603.088 296.194C602.542 295.612 601.744 293.462 601.314 291.416L600.531 287.696L611.534 284.111C625.547 279.546 626.163 279.545 627.744 284.079ZM107.599 296.91C114.425 298.861 120.168 300.457 120.361 300.457C120.768 300.457 119.279 309.126 118.771 309.722C118.259 310.321 94.1459 304.927 93.0285 303.963C92.2458 303.286 94.0312 293.362 94.9369 293.362C95.0752 293.362 100.773 294.959 107.599 296.91ZM631.82 298.574C632.413 301.085 632.424 303.401 631.844 303.905C630.013 305.493 607.433 310.062 606.421 309.05C605.88 308.51 605.102 306.388 604.692 304.334C603.958 300.662 604.05 300.571 610.286 298.832C613.774 297.86 619.287 296.29 622.539 295.343C625.791 294.397 628.972 293.737 629.611 293.879C630.248 294.02 631.243 296.133 631.82 298.574ZM142.328 304.509C150.224 306.794 149.744 304.35 146.056 323.513C145.056 328.716 143.893 339.757 143.475 348.048L142.715 363.123H133.434H124.153V359.11C124.153 341.702 131.198 300.924 134.021 301.987C134.772 302.269 138.51 303.404 142.328 304.509ZM105.826 310.416L117.65 313.138L117.237 317.734C117.01 320.263 116.704 322.46 116.557 322.617C116.409 322.774 110.344 322.009 103.077 320.918C90.1919 318.982 89.8631 318.857 89.8797 315.902C89.9033 311.299 91.1662 307.543 92.662 307.622C93.3986 307.661 99.3224 308.918 105.826 310.416ZM634.348 310.211C636.366 318.859 636.784 318.486 622.568 320.731C615.429 321.859 609.397 322.589 609.161 322.355C608.927 322.119 608.306 320.028 607.783 317.707C606.715 312.973 605.731 313.521 622.539 309.507C632.572 307.111 633.64 307.175 634.348 310.211ZM376.301 316.025C383.11 317.504 394.069 324.398 399.533 330.638C401.743 333.16 405.201 338.709 407.219 342.967C410.521 349.936 410.888 351.829 410.888 361.941C410.888 372.08 410.526 373.936 407.177 381.005C397.922 400.538 381.96 410.02 360.06 408.995C347.002 408.384 338.707 404.743 329.311 395.496C305.873 372.43 312.602 333.103 342.369 319.173C353.822 313.813 362.444 313.014 376.301 316.025ZM350.332 319.831C331.077 326.144 319.967 341.523 319.912 361.941C319.888 370.773 320.334 372.944 323.589 379.855C328.287 389.828 335.095 396.641 345.085 401.366C352.102 404.685 354.098 405.085 363.591 405.073C372.601 405.063 375.262 404.581 380.943 401.934C390.327 397.562 397.753 390.295 402.315 381.025C405.887 373.765 406.156 372.383 406.12 361.371C406.086 350.739 405.743 348.874 402.769 343.161C398.139 334.267 390.276 326.288 382.284 322.376C374.058 318.349 358.609 317.118 350.332 319.831ZM105.003 324.243L116.005 325.758L115.214 330.547C114.779 333.182 114.351 335.387 114.263 335.448C114.103 335.558 88.3556 332.673 87.794 332.482C87.2311 332.29 87.5339 327.047 88.267 324.313C88.818 322.252 89.6279 321.71 91.502 322.146C92.8771 322.467 98.9524 323.41 105.003 324.243ZM381.436 325.587C389.495 329.733 398.469 339.749 401.368 347.831C406.668 362.609 402.851 379.035 391.472 390.413C371.649 410.236 338.407 404.492 326.857 379.25C316.876 357.434 326.6 333.307 349.203 323.807C356.873 320.582 373.494 321.501 381.436 325.587ZM637.105 326.951C637.33 329.684 636.895 331.913 636.033 332.446C634.908 333.14 618.978 335.024 611.946 335.293C610.581 335.345 608.979 328.302 609.996 326.72C610.71 325.61 631.559 321.802 634.954 322.163C636.119 322.286 636.857 323.928 637.105 326.951ZM103.165 337.75C112.849 338.457 113.511 338.674 113.511 341.139C113.511 343.285 112.343 344.141 107.2 345.762C103.728 346.857 97.6091 347.752 93.6019 347.752H86.3159V342.629C86.3159 336.703 86.9202 335.781 90.3338 336.483C91.7006 336.764 97.4755 337.334 103.165 337.75ZM354.52 337.732C347.183 340.072 339.974 348.132 338.32 355.845C334.165 375.218 352.006 391.793 370.958 386.166C380.887 383.217 389 372.324 389 361.941C389 345.014 371.1 332.446 354.52 337.732ZM638.502 341.84V347.752H631.216C627.208 347.752 621.089 346.857 617.618 345.762C612.474 344.141 611.306 343.285 611.306 341.139C611.306 338.675 611.972 338.456 621.652 337.74C627.343 337.318 632.797 336.8 633.772 336.588C638.223 335.621 638.502 335.932 638.502 341.84ZM0 341.124C0 345.04 0.308625 345.376 5.02526 346.597C17.4406 349.812 27.9309 352.673 29.5602 353.287C30.5357 353.655 24.4168 355.626 15.9625 357.665C1.24863 361.217 0.575851 361.512 0.223493 364.549C-0.184439 368.067 -1.3917 367.55 19.2142 372.668C24.9051 374.082 29.5602 375.613 29.5602 376.072C29.5602 376.53 22.9116 378.46 14.7861 380.36L0.010599 383.815L0.00593343 388.249C0.0023862 390.688 0.263648 392.683 0.586446 392.683C1.74757 392.683 45.0912 379.718 46.1802 379.044C46.7939 378.665 47.2964 377.077 47.2964 375.515C47.2964 373.226 46.4356 372.449 42.8624 371.518C40.4243 370.883 33.766 369.158 28.068 367.685C22.3712 366.212 18.3805 364.65 19.1999 364.215C20.0205 363.78 24.6923 362.549 29.5827 361.48C46.7241 357.733 47.2964 357.481 47.2964 353.688C47.2964 351.465 46.5751 350.059 45.2272 349.652C44.0897 349.309 34.3786 346.584 23.6482 343.596C12.9178 340.607 3.20667 337.89 2.06919 337.557C0.374801 337.061 0 337.708 0 341.124ZM372.793 339.926C377.43 341.915 383.691 348.34 385.394 352.854C387.84 359.343 386.947 368.1 383.244 373.94C370.978 393.283 342.211 386.483 339.634 363.631C338.568 354.168 343.729 345.106 352.949 340.255C357.366 337.93 367.741 337.759 372.793 339.926ZM353.522 345.215C347.313 348.518 343.88 355.187 344.429 362.876C345.211 373.833 352.082 380.268 363 380.268C370.757 380.268 374.688 378.125 379.258 371.412C384.526 363.672 381.839 351.102 373.762 345.707C368.661 342.299 359.423 342.074 353.522 345.215ZM89.272 351.299C88.87 351.95 87.775 352.482 86.8374 352.482C85.8997 352.482 85.1336 351.95 85.1336 351.299C85.1336 350.649 86.2297 350.117 87.5681 350.117C88.9066 350.117 89.674 350.649 89.272 351.299ZM638.502 351.299C638.502 351.95 638.001 352.482 637.389 352.482C636.776 352.482 635.948 351.95 635.546 351.299C635.144 350.649 635.645 350.117 636.658 350.117C637.672 350.117 638.502 350.649 638.502 351.299ZM637.201 357.507L654.242 362.532L637.34 362.861C628.044 363.042 620.307 363.042 620.146 362.861C619.229 361.831 618.357 352.482 619.176 352.482C619.717 352.482 627.828 354.744 637.201 357.507ZM678.704 364.897V377.312H682.842H686.98V369.035V360.759H692.247H697.515L697.863 368.74L698.213 376.721H702.352H706.49L706.84 368.74L707.189 360.759H711.865H716.541V369.035V377.312H721.27H726V364.897V352.482H702.352H678.704V364.897ZM106.417 358.985V364.306L91.9324 364.187C69.6865 364.007 69.2692 363.186 88.8641 358.167C98.1933 355.776 105.958 353.786 106.121 353.742C106.284 353.7 106.417 356.059 106.417 358.985ZM369.114 355.621C372.04 358.268 371.932 364.833 368.912 367.853C361.716 375.049 350.67 364.708 356.564 356.293C358.82 353.071 365.879 352.693 369.114 355.621ZM599.729 373.765C599.204 389.106 594.739 419.62 592.486 423.267C591.748 424.46 590.023 424.366 584.003 422.807C579.847 421.73 576.147 420.663 575.779 420.436C575.413 420.209 576.334 414.005 577.827 406.648C579.321 399.293 580.858 387.155 581.243 379.677C581.629 372.198 582.157 365.391 582.419 364.549C582.764 363.438 585.245 363.114 591.484 363.367L600.073 363.715L599.729 373.765ZM299.171 390.075L300.75 410.523L284.912 479.756C276.202 517.834 268.906 548.48 268.698 547.859C268.491 547.237 271.279 527.364 274.895 503.699C278.511 480.033 284.767 438.942 288.798 412.384C293.008 384.645 296.439 365.274 296.86 366.862C297.263 368.383 298.303 378.828 299.171 390.075ZM106.188 380.968C111.494 382.759 113.511 384.021 113.511 385.545C113.511 387.762 111.877 388.13 94.2972 389.859L86.3159 390.645V385.358C86.3159 382.449 86.6707 379.716 87.1046 379.283C88.7257 377.662 99.1132 378.578 106.188 380.968ZM638.271 384.702C638.692 391.272 639.541 391.044 622.471 388.947C613.008 387.783 611.306 387.25 611.306 385.442C611.306 382.548 624.022 378.484 631.998 378.829L637.91 379.086L638.271 384.702ZM115.093 395.872C115.484 398.277 115.589 400.46 115.326 400.722C115.064 400.985 112.818 401.467 110.338 401.794C107.856 402.123 102.008 403.049 97.3419 403.854C87.9583 405.473 87.5551 405.199 87.5149 397.17C87.4972 393.753 88.8073 393.238 99.9137 392.299C114.304 391.081 114.317 391.084 115.093 395.872ZM634.068 393.421C637.029 393.997 637.319 394.519 637.319 399.28C637.319 403.918 637.02 404.505 634.659 404.486C631.457 404.46 609.989 401.248 609.572 400.732C609.41 400.532 609.533 398.316 609.845 395.807L610.412 391.245L620.614 392.016C626.225 392.441 632.279 393.073 634.068 393.421ZM117.353 408.941C117.657 411.38 117.83 413.481 117.737 413.612C117.644 413.744 111.623 415.134 104.355 416.702L91.1425 419.555L90.3598 414.341C89.9306 411.474 89.849 408.856 90.1801 408.525C90.9486 407.756 108.186 404.842 113.087 404.651C116.524 404.518 116.841 404.837 117.353 408.941ZM624.258 406.329C630.406 407.326 635.556 408.262 635.703 408.409C635.85 408.555 635.424 411.234 634.757 414.36C634.005 417.886 633.015 419.841 632.151 419.509C631.384 419.215 625.403 417.778 618.859 416.318C607.211 413.717 606.973 413.597 607.456 410.562C608.588 403.465 607.807 403.661 624.258 406.329ZM394.063 420.765C376.283 442.334 290.957 546.402 283.778 555.273C278.901 561.301 274.727 566.064 274.504 565.858C274.279 565.652 290.192 533.495 309.865 494.398C338.542 437.407 346.006 423.459 347.518 424.046C348.554 424.449 352.916 425.077 357.211 425.441C366.664 426.244 379.339 423.617 389.604 418.73C393.506 416.871 397.147 415.306 397.695 415.25C398.244 415.195 396.609 417.675 394.063 420.765ZM119.991 422.243L120.743 426.381L107.676 430.054L94.6093 433.726L93.4258 429.462C92.7743 427.118 92.2386 424.626 92.2351 423.928C92.2268 422.528 117.169 416.343 118.444 417.428C118.882 417.801 119.578 419.967 119.991 422.243ZM632.387 422.828C633.389 423.831 631.087 432.885 629.825 432.904C629.07 432.916 622.962 431.458 616.252 429.667L604.054 426.408L604.831 422.265C605.259 419.987 605.812 417.795 606.06 417.394C606.478 416.715 631.424 421.864 632.387 422.828ZM153.709 432.589C155.807 438.93 160.667 450.731 164.509 458.816C168.35 466.9 171.084 473.871 170.584 474.306C170.085 474.74 166.603 476.818 162.846 478.924L156.016 482.754L149.056 468.164C142.097 453.581 133.612 430.968 133.612 427.009C133.612 425.498 135.349 424.398 139.82 423.081C149.893 420.112 149.486 419.833 153.709 432.589ZM123.006 433.584C123.779 435.927 123.953 438.246 123.394 438.758C122.402 439.664 100.727 447.073 99.0695 447.073C98.0644 447.073 95.3838 437.611 96.1678 436.827C96.6336 436.362 118.502 429.825 120.809 429.462C121.247 429.394 122.235 431.248 123.006 433.584ZM615.801 432.754C622.499 434.626 628.305 436.482 628.701 436.878C629.593 437.771 626.898 447.073 625.746 447.073C624.264 447.073 602.468 439.711 601.575 438.909C600.871 438.278 602.563 429.319 603.38 429.344C603.513 429.349 609.101 430.884 615.801 432.754ZM650.855 444.844C652.638 446.627 634.931 491.452 627.295 504.481L624.274 509.637L620.154 507.207C617.89 505.87 616.036 504.552 616.036 504.279C616.036 504.006 618.668 498.326 621.885 491.657C628.432 478.082 634.725 462.12 638.424 449.701L640.89 441.418L645.53 442.787C648.081 443.541 650.478 444.466 650.855 444.844ZM88.0482 454.167C92.267 467.228 98.0667 481.274 104.666 494.415C107.58 500.215 109.964 505.187 109.964 505.46C109.964 505.735 108.019 507.106 105.642 508.509C100.499 511.543 101.722 512.938 91.6924 492.595C82.7758 474.509 72.6071 446.029 74.8206 445.343C75.6152 445.097 77.8617 444.388 79.8127 443.767C81.7637 443.146 83.6839 442.971 84.0812 443.378C84.4773 443.785 86.2627 448.64 88.0482 454.167ZM127.464 446.717C128.202 449.123 128.69 451.197 128.549 451.327C128.407 451.457 123.237 453.529 117.059 455.931C110.881 458.333 105.222 460.549 104.484 460.854C103.722 461.169 102.348 459.08 101.304 456.015C100.293 453.048 99.5672 450.6 99.6901 450.576C99.8131 450.551 105.235 448.74 111.738 446.55C118.241 444.361 124.138 442.518 124.841 442.456C125.545 442.394 126.725 444.312 127.464 446.717ZM611.713 446.03C618.318 448.058 624.148 450.107 624.669 450.583C625.453 451.301 622.382 461.262 621.377 461.262C620.752 461.262 600.388 452.92 598.349 451.828C596.544 450.864 596.437 450.14 597.569 446.527C598.289 444.226 599.064 442.343 599.291 442.343C599.518 442.343 605.108 444.002 611.713 446.03ZM131.671 458.452C132.794 460.809 133.533 462.918 133.312 463.139C131.563 464.888 109.393 474.159 108.704 473.43C108.217 472.915 107.01 470.528 106.023 468.125L104.227 463.755L109.756 461.72C112.797 460.602 118.211 458.49 121.788 457.03C125.365 455.568 128.592 454.327 128.96 454.27C129.326 454.213 130.546 456.096 131.671 458.452ZM618.664 463.047C620.542 463.792 620.56 464.195 618.898 468.175C617.906 470.55 616.679 472.912 616.171 473.42C614.874 474.722 591.28 463.654 591.851 462.011C592.107 461.273 592.846 459.223 593.492 457.454L594.667 454.238L605.647 458.238C611.686 460.439 617.543 462.602 618.664 463.047ZM608.319 474.795L614.947 477.726L612.511 482.5C611.171 485.126 609.81 487.274 609.485 487.274C607.546 487.274 587.445 476.272 586.93 474.928C586.586 474.033 587.155 471.654 588.196 469.641L590.088 465.984L595.89 468.925C599.08 470.541 604.674 473.184 608.319 474.795ZM137.512 471.311L139.485 475.448L127.703 481.361C121.222 484.614 115.654 487.274 115.33 487.274C115.007 487.274 113.659 485.151 112.335 482.556L109.927 477.839L120.884 472.61C126.909 469.735 132.671 467.334 133.689 467.278C134.706 467.221 136.426 469.036 137.512 471.311ZM560.937 478.111C564.552 480.225 567.52 482.441 567.533 483.035C567.604 486.313 536.624 527.626 531.911 530.539C531.212 530.971 527.952 528.635 524.666 525.349C517.72 518.403 517.19 520.199 530.841 504.419C535.342 499.216 542.119 490.32 545.901 484.65C549.682 478.98 553.134 474.323 553.569 474.305C554.005 474.284 557.32 475.996 560.937 478.111ZM607.759 490.973C607.759 491.975 604.531 498.979 603.553 500.098C603.166 500.542 579.381 487.285 579.381 486.626C579.381 486.406 580.493 484.343 581.851 482.04L584.322 477.852L596.04 483.838C602.485 487.131 607.759 490.341 607.759 490.973ZM143.404 482.712C144.563 484.747 145.361 486.543 145.178 486.703C144.272 487.498 128.782 496.725 125.552 498.394L121.851 500.309L119.373 495.45C118.009 492.778 117.063 490.439 117.271 490.253C118.369 489.268 139.111 479.11 140.116 479.065C140.766 479.036 142.246 480.678 143.404 482.712ZM149.279 493.289C150.417 495.288 151.348 497.36 151.348 497.892C151.348 499.423 130.065 512.244 128.811 511.469C126.57 510.084 123.919 503.589 125.11 502.398C126.33 501.178 145.602 489.81 146.619 489.711C146.944 489.68 148.142 491.29 149.279 493.289ZM590.806 496.849C596.228 500.124 600.662 503.434 600.659 504.202C600.655 504.972 599.391 507.178 597.849 509.106L595.044 512.609L583.73 505.148L572.414 497.687L575.011 493.67C578.031 488.997 577.694 488.929 590.806 496.849ZM156.608 504.491C157.699 506.157 158.425 507.997 158.222 508.582C158.018 509.166 153.357 513.066 147.863 517.247L137.875 524.848L134.561 520.678C132.739 518.385 131.248 516.296 131.248 516.037C131.248 515.397 152.848 501.463 153.839 501.463C154.27 501.463 155.516 502.825 156.608 504.491ZM582.554 508.128C588.612 511.793 593.57 515.086 593.57 515.445C593.57 516.901 588.165 523.909 587.067 523.877C586.416 523.857 581.213 520.374 575.503 516.136L565.121 508.431L567.602 504.947C568.966 503.031 570.41 501.463 570.81 501.463C571.211 501.463 576.495 504.462 582.554 508.128ZM575.243 519.777C580.445 523.586 584.889 526.842 585.117 527.012C585.699 527.445 579.266 535.753 578.354 535.746C577.23 535.738 558.746 520.511 558.314 519.239C557.673 517.347 563.13 510.894 564.51 511.91C565.21 512.427 570.04 515.967 575.243 519.777ZM616.79 513.387C619.125 514.831 620.454 516.425 619.996 517.23C619.564 517.988 615.344 524.46 610.617 531.614C589.778 563.149 559.607 592.908 526.394 614.685C520.988 618.23 516.394 620.942 516.185 620.711C515.976 620.481 514.708 618.473 513.37 616.248L510.936 612.203L522.712 604.215C536.268 595.019 547.136 586.56 558.013 576.738C564.456 570.921 566.169 569.941 568.927 570.493C572.014 571.11 572.128 570.986 570.917 568.33C569.752 565.772 570.452 564.595 578.561 555.481C588.289 544.547 601.668 526.935 607.694 517.129C609.793 513.716 611.799 510.922 612.155 510.922C612.51 510.922 614.596 512.031 616.79 513.387ZM118.72 519.17C125.583 530.289 136.527 544.582 147.379 556.598C156.15 566.309 157.203 567.94 156.065 570.065C154.889 572.264 155.042 572.414 157.762 571.732C160.272 571.102 162.226 572.288 169.943 579.132C174.999 583.615 181.53 589.178 184.456 591.495C190.527 596.301 212.212 611.021 214.195 611.681C215.628 612.159 212.674 618.931 210.428 620.319C208.807 621.32 196.682 613.673 179.726 600.954C156.407 583.461 130.822 556.278 113.905 531.022C104.516 517.005 104.644 517.444 109.093 514.596C111.197 513.248 113.244 512.135 113.639 512.124C114.034 512.114 116.321 515.284 118.72 519.17ZM164.269 515.22C165.617 516.933 166.72 518.709 166.72 519.167C166.72 519.624 162.116 523.648 156.487 528.108L146.255 536.218L142.89 532.187C141.039 529.97 139.535 527.87 139.549 527.52C139.581 526.694 159.852 512.104 160.969 512.104C161.436 512.104 162.922 513.507 164.269 515.22ZM172.722 525.833L175.588 528.92L165.537 538.272L155.487 547.623L151.748 543.233L148.009 538.842L158.251 530.812C163.884 526.396 168.8 522.774 169.174 522.765C169.548 522.754 171.144 524.135 172.722 525.833ZM566.19 530.496C571.494 534.759 575.834 538.506 575.834 538.822C575.834 540.179 570.547 546.392 569.404 546.377C568.713 546.369 563.892 542.435 558.689 537.637L549.23 528.913L552.096 525.829C553.673 524.134 555.319 522.746 555.754 522.746C556.19 522.746 560.886 526.234 566.19 530.496ZM183.236 540.978C183.257 541.576 179.815 545.649 175.588 550.027C171.361 554.405 167.902 557.769 167.902 557.502C167.902 557.235 170.629 552.22 173.962 546.359C179.426 536.749 180.177 535.908 181.61 537.796C182.484 538.948 183.216 540.38 183.236 540.978ZM168.29 545.88C165.925 550.39 163.791 554.315 163.549 554.604C163.306 554.894 161.924 553.919 160.479 552.44L157.852 549.749L164.898 543.391C168.772 539.895 172.089 537.179 172.267 537.358C172.445 537.535 170.655 541.371 168.29 545.88ZM564.522 547.485C566.592 549.776 566.634 550.188 564.964 551.857C563.294 553.528 562.784 553.079 559.541 547.092L555.961 540.483L559.099 542.72C560.824 543.95 563.265 546.094 564.522 547.485ZM557.747 557.781C557.509 558.018 552.393 555.964 546.375 553.216L535.436 548.219L538.712 545.607L541.987 542.995L550.082 550.172C554.535 554.119 557.983 557.543 557.747 557.781ZM268.007 553.784C267.68 554.597 267.412 553.931 267.412 552.305C267.412 550.68 267.68 550.015 268.007 550.828C268.336 551.641 268.336 552.971 268.007 553.784ZM537.494 560.126L546.742 570.312L542.665 573.69C540.423 575.548 538.258 576.95 537.855 576.806C537.452 576.663 533.377 571.986 528.8 566.416L520.478 556.289L524.212 553.178C526.266 551.467 528.014 550.039 528.096 550.005C528.179 549.969 532.409 554.524 537.494 560.126ZM200.946 554.01L203.66 556.899L195.64 567.017C191.23 572.582 187.308 577.114 186.926 577.087C186.543 577.061 184.428 575.498 182.225 573.614L178.219 570.189L186.827 560.656C191.561 555.413 196.064 551.123 196.834 551.123C197.603 551.123 199.454 552.423 200.946 554.01ZM477.429 562.708L481.332 569.968L466.803 577.04C452.767 583.871 429.888 592.507 425.829 592.507C424.386 592.507 423.292 590.374 421.781 584.608C420.641 580.264 420.119 576.366 420.619 575.947C421.12 575.528 426.85 573.466 433.353 571.364C439.857 569.263 451.03 564.697 458.184 561.217C465.338 557.736 471.716 555.016 472.358 555.169C473 555.323 475.282 558.715 477.429 562.708ZM545.421 558.358C549.466 560.386 552.996 562.245 553.263 562.488C553.839 563.016 549.769 567.684 548.751 567.661C547.825 567.642 536.457 554.67 537.365 554.67C537.75 554.67 541.375 556.329 545.421 558.358ZM180.828 562.656C178.596 565.078 176.625 567.299 176.446 567.593C176.269 567.887 175.236 567.24 174.152 566.156C173.068 565.073 172.416 563.99 172.703 563.751C174.855 561.955 183.886 557.253 184.329 557.697C184.636 558.003 183.06 560.235 180.828 562.656ZM213.529 564.823C213.269 565.53 209.723 570.692 205.651 576.293L198.244 586.477L193.711 582.885L189.176 579.295L191.494 576.347C192.77 574.727 196.629 570.076 200.071 566.012L206.331 558.623L210.166 561.08C212.277 562.433 213.79 564.116 213.529 564.823ZM526.662 568.737C530.945 573.872 534.45 578.597 534.45 579.238C534.45 579.878 532.633 581.787 530.413 583.48L526.377 586.559L519.077 576.353C515.062 570.74 511.55 565.555 511.272 564.832C510.824 563.664 516.064 559.512 518.09 559.432C518.521 559.414 522.378 563.601 526.662 568.737ZM221.556 569.361C223.846 571.233 224.645 572.671 223.997 573.753C223.467 574.638 220.17 579.735 216.668 585.079L210.302 594.795L205.678 591.735L201.052 588.673L203.617 584.974C212.978 571.47 216.686 566.499 217.372 566.537C217.802 566.56 219.686 567.831 221.556 569.361ZM515.101 576.249C519.034 581.615 522.594 586.604 523.011 587.337C523.44 588.094 521.737 590.015 519.077 591.776L514.384 594.881L511.384 590.129C509.735 587.516 506.476 582.393 504.142 578.745L499.898 572.112L503.281 569.346C505.141 567.824 506.953 566.56 507.306 566.537C507.661 566.513 511.168 570.883 515.101 576.249ZM232.048 575.886C233.837 576.782 235.3 578.041 235.3 578.683C235.3 579.724 226.415 596.45 223.626 600.658C222.722 602.023 221.748 601.835 217.98 599.567C215.474 598.059 213.268 596.716 213.075 596.582C212.47 596.163 227.535 573.555 228.18 573.914C228.52 574.102 230.259 574.988 232.048 575.886ZM504.581 585.096L511.958 596.6L507.537 599.277C505.106 600.749 502.85 601.946 502.524 601.935C502.199 601.926 498.945 596.743 495.294 590.42L488.655 578.922L492.338 576.314C494.363 574.878 496.287 573.678 496.612 573.646C496.938 573.616 500.524 578.767 504.581 585.096ZM323.291 579.62C330.392 580.994 342.097 582.459 349.304 582.877L362.409 583.639L362.756 592.211L363.104 600.783L353.297 600.76C336.262 600.721 301.515 595.05 301.515 592.31C301.515 591.657 302.432 587.678 303.554 583.469C305.337 576.774 305.892 575.898 307.988 576.47C309.306 576.829 316.192 578.247 323.291 579.62ZM492.528 591.853C496.194 597.997 498.846 603.587 498.419 604.276C497.135 606.355 490.495 609.332 489.506 608.274C487.802 606.449 477.694 587.007 477.694 585.554C477.694 584.482 483.049 581.222 485.621 580.729C485.753 580.704 488.862 585.709 492.528 591.853ZM480.968 598.805C484.031 604.77 486.699 609.984 486.895 610.39C487.191 611.003 478.751 614.972 477.154 614.972C476.58 614.972 465.87 592.581 465.87 591.381C465.87 590.226 473.372 586.772 474.475 587.419C474.983 587.716 477.903 592.839 480.968 598.805ZM467.718 603.581C470.604 609.672 472.964 615.251 472.964 615.979C472.964 617.145 465.795 620.884 463.559 620.884C462.651 620.884 454.01 598.72 454.033 596.448C454.043 595.252 458.661 592.877 461.51 592.6C462.04 592.549 464.833 597.491 467.718 603.581ZM280.932 599.143C282.498 599.536 283.778 600.197 283.778 600.613C283.778 602.292 276.32 623.917 275.393 624.925C274.555 625.837 264.86 623.914 264.86 622.836C264.86 622.501 270.831 606.124 273.052 600.367C273.96 598.013 274.915 597.213 276.219 597.713C277.246 598.107 279.367 598.75 280.932 599.143ZM455.353 609.521C457.886 615.907 459.958 621.568 459.958 622.1C459.958 623.284 452.147 625.966 450.396 625.382C449.699 625.15 447.351 619.477 445.176 612.776L441.222 600.592L444.974 598.963C447.036 598.068 449.18 597.464 449.737 597.623C450.294 597.781 452.822 603.136 455.353 609.521ZM295.448 603.789C295.963 604.296 290.135 629.111 289.305 629.94C288.339 630.906 279.049 627.677 279.049 626.374C279.049 625.698 280.77 619.893 282.874 613.475L286.698 601.806L290.855 602.583C293.141 603.01 295.208 603.553 295.448 603.789ZM442.166 613.213C444.148 619.399 445.769 625.167 445.769 626.032C445.769 627.39 436.579 631.164 435.792 630.129C435.158 629.296 429.215 606.611 429.215 605.025C429.215 603.277 431.368 602.344 435.958 602.103C438.238 601.982 439.014 603.37 442.166 613.213ZM308.36 607.24C308.548 607.425 307.491 613.496 306.011 620.734L303.321 633.893L299.166 633.157C296.881 632.752 294.508 631.955 293.892 631.385C292.91 630.478 297.085 609.336 298.846 606.293C299.334 605.45 307.346 606.248 308.36 607.24ZM427.515 612.312C428.566 616.052 430.175 621.728 431.09 624.928C432.005 628.127 432.623 630.866 432.463 631.011C431.352 632.027 422.64 633.674 422.052 632.98C421.399 632.208 416.185 609.648 416.201 607.665C416.208 606.88 419.471 605.998 423.565 605.674C425.08 605.554 426.092 607.256 427.515 612.312ZM319.711 609.044C322.184 609.061 322.115 611.667 319.193 628.415L317.776 636.536L312.4 635.8C309.442 635.394 306.892 634.932 306.733 634.772C306.418 634.457 310.763 611.857 311.646 609.222C311.991 608.19 313.138 607.865 314.831 608.319C316.287 608.709 318.482 609.035 319.711 609.044ZM413.113 609.947C414.948 616.167 418.734 634.123 418.301 634.556C418.024 634.835 415.41 635.39 412.497 635.789L407.198 636.515L405.737 626.63C404.933 621.194 403.982 615.057 403.624 612.993C402.942 609.061 402.891 609.096 411.104 608.055C411.873 607.957 412.777 608.809 413.113 609.947ZM334.228 611.82C334.502 612.093 334.083 618.234 333.298 625.468C331.752 639.721 331.951 639.445 324.347 637.925L320.872 637.229L322.378 627.579C325.366 608.449 324.767 609.869 329.528 610.641C331.841 611.017 333.957 611.547 334.228 611.82ZM402.279 623.776C403.398 630.894 404.091 636.942 403.817 637.216C403.543 637.491 400.974 637.979 398.109 638.302L392.901 638.889L392.17 633.138C389.796 614.445 389.789 611.684 392.113 611.062C393.335 610.736 395.663 610.55 397.288 610.65C400.112 610.825 400.331 611.401 402.279 623.776ZM344.456 617.737C345.551 621.208 346.446 627.593 346.446 631.925V639.802H341.195C338.307 639.802 335.693 639.397 335.387 638.902C334.844 638.023 336.55 619.366 337.656 614.085C338.726 608.986 342.304 610.906 344.456 617.737ZM386.693 611.721C388.32 622.492 389.783 638.639 389.184 639.237C388.874 639.548 386.341 639.802 383.557 639.802H378.495L378.137 633.595C377.623 624.652 381.625 611.425 384.845 611.425C385.837 611.425 386.668 611.557 386.693 611.721ZM506.632 619.643C507.624 621.562 508.436 623.715 508.436 624.428C508.436 628.237 447.166 653.556 444.535 650.833C444.014 650.294 443.237 647.939 442.808 645.602L442.028 641.351L449.515 639.275C459.375 636.541 479.615 628.251 492.661 621.603C498.411 618.672 503.501 616.247 503.972 616.215C504.443 616.182 505.64 617.725 506.632 619.643ZM362.868 626.62C362.795 630.294 362.396 638.354 361.981 644.532L361.226 655.764L356.792 639.101C354.354 629.936 352.358 621.686 352.358 620.766C352.358 619.509 353.681 619.199 357.679 619.516L363 619.939L362.868 626.62ZM351.176 638.029C351.176 639.004 350.66 639.802 350.03 639.802C349.401 639.802 349.192 639.004 349.566 638.029C349.94 637.053 350.456 636.255 350.711 636.255C350.967 636.255 351.176 637.053 351.176 638.029ZM357.472 685.276C352.452 687.46 349.649 692.051 349.513 698.316C349.365 705.247 352.68 709.484 360.632 712.518C367.812 715.259 370.174 717.935 368.194 721.091C366.282 724.141 362.202 724.335 360.407 721.461C359.307 719.7 357.648 719.022 354.438 719.022C349.524 719.022 349.147 719.868 351.787 724.973C354.938 731.066 363.747 733.793 370.435 730.746C376.474 727.994 378.96 718.782 375.479 712.051C374.236 709.648 371.812 708.031 366.618 706.137C359.358 703.489 357.44 701.081 358.461 695.89C359.413 691.052 368.524 690.679 369.766 695.429C370.239 697.234 371.401 697.739 375.09 697.739C379.647 697.739 379.782 697.627 378.998 694.488C377.933 690.215 375.108 687.141 370.428 685.161C365.684 683.153 362.284 683.183 357.472 685.276Z" fill="url(#paint0_linear_422_4866)" fill-opacity="0.06"/>
</g>
<defs>
<filter id="filter0_b_422_4866" x="-10" y="-10" width="746" height="752" filterUnits="userSpaceOnUse" color-interpolation-filters="sRGB">
<feFlood flood-opacity="0" result="BackgroundImageFix"/>
<feGaussianBlur in="BackgroundImageFix" stdDeviation="5"/>
<feComposite in2="SourceAlpha" operator="in" result="effect1_backgroundBlur_422_4866"/>
<feBlend mode="normal" in="SourceGraphic" in2="effect1_backgroundBlur_422_4866" result="shape"/>
</filter>
<linearGradient id="paint0_linear_422_4866" x1="363" y1="0" x2="363" y2="732" gradientUnits="userSpaceOnUse">
<stop stop-color="white" stop-opacity="0.13"/>
<stop offset="1" stop-color="white"/>
</linearGradient>
</defs>
</svg>
