<svg width="98" height="70" viewBox="0 0 98 70" fill="none" xmlns="http://www.w3.org/2000/svg">
<path d="M6.60205 9.45996L4.97066 8.303L4.96951 8.30462L6.60205 9.45996ZM42.0879 60.1606L40.4542 59.0069L40.4502 59.0126L42.0879 60.1606ZM23.9507 67.1597C16.5621 67.1597 11.2864 64.6034 7.76733 59.6615C4.15928 54.5948 2.20068 46.7482 2.20068 35.8076H-1.79932C-1.79932 47.1018 0.200416 55.9312 4.50903 61.9818C8.90661 68.1573 15.5059 71.1597 23.9507 71.1597V67.1597ZM2.20068 35.8076C2.20068 24.4707 4.30619 16.1663 8.23459 10.6153L4.96951 8.30462C0.362753 14.8142 -1.79932 24.0748 -1.79932 35.8076H2.20068ZM8.23345 10.6169C12.1174 5.14034 17.6931 2.36816 25.2495 2.36816V-1.63184C16.5396 -1.63184 9.68376 1.65719 4.97066 8.303L8.23345 10.6169ZM25.2495 2.36816C32.4197 2.36816 37.5537 4.94517 40.9938 9.97446C44.5271 15.1403 46.4429 23.1397 46.4429 34.2769H50.4429C50.4429 22.8082 48.4931 13.8533 44.2953 7.71621C40.0042 1.44261 33.5416 -1.63184 25.2495 -1.63184V2.36816ZM46.4429 34.2769C46.4429 45.3262 44.3563 53.4814 40.4542 59.007L43.7216 61.3143C48.2928 54.8412 50.4429 45.7405 50.4429 34.2769H46.4429ZM40.4502 59.0126C36.6512 64.4318 31.2428 67.1597 23.9507 67.1597V71.1597C32.4301 71.1597 39.1131 67.8882 43.7256 61.3087L40.4502 59.0126ZM24.6001 9.54736C22.5571 9.54736 20.713 10.203 19.1557 11.5071C17.6344 12.7811 16.4805 14.5929 15.6099 16.78C13.8823 21.1201 13.0908 27.3996 13.0908 35.4365H17.0908C17.0908 27.5473 17.8842 21.8823 19.3263 18.2593C20.0406 16.4649 20.8679 15.2906 21.7238 14.5738C22.5439 13.8871 23.4733 13.5474 24.6001 13.5474V9.54736ZM13.0908 35.4365C13.0908 43.0138 13.8672 48.9566 15.5741 53.0754C16.4357 55.1543 17.5784 56.8771 19.0819 58.0864C20.6174 59.3214 22.4239 59.9341 24.4146 59.9341V55.9341C23.2973 55.9341 22.3844 55.6094 21.5889 54.9695C20.7615 54.304 19.9618 53.2147 19.2694 51.544C17.8684 48.1636 17.0908 42.8576 17.0908 35.4365H13.0908ZM24.4146 59.9341C26.3964 59.9341 28.1835 59.2873 29.6878 58.0081C31.1548 56.7607 32.262 54.9918 33.0954 52.8657C34.7497 48.6456 35.5063 42.5442 35.5063 34.7407H31.5063C31.5063 42.3995 30.7477 47.8948 29.3714 51.4058C28.6895 53.1452 27.9026 54.2755 27.0966 54.9609C26.328 55.6145 25.4633 55.9341 24.4146 55.9341V59.9341ZM35.5063 34.7407C35.5063 26.9393 34.7653 20.8435 33.1469 16.6287C32.332 14.5066 31.2482 12.7371 29.8076 11.4866C28.3278 10.202 26.5625 9.54736 24.6001 9.54736V13.5474C25.6064 13.5474 26.4388 13.8591 27.1855 14.5073C27.9715 15.1896 28.7432 16.3192 29.4127 18.0627C30.763 21.5791 31.5063 27.0799 31.5063 34.7407H35.5063ZM55.1708 65.8198H53.1708V67.0362L54.2509 67.5957L55.1708 65.8198ZM55.1708 53.0635L56.3491 51.4475L53.1708 49.1299V53.0635H55.1708ZM79.4774 55.522L78.2625 53.9333L78.2569 53.9376L78.2512 53.942L79.4774 55.522ZM78.7353 41.9307L77.6734 43.6255L77.6825 43.6312L78.7353 41.9307ZM61.9433 39.5186H59.9433V41.5186H61.9433V39.5186ZM61.9433 28.293V26.293H59.9433V28.293H61.9433ZM57.6757 15.8613H55.6757V19.6519L58.8046 17.5122L57.6757 15.8613ZM57.6757 3.89355L56.7765 2.10707L55.6757 2.66114V3.89355H57.6757ZM89.8681 4.96045L88.6078 6.51347L88.614 6.51847L89.8681 4.96045ZM82.3534 33.21L81.8699 31.2693L80.3534 31.6471V33.21H82.3534ZM82.3534 33.4419H80.3534V35.2075L82.1053 35.4265L82.3534 33.4419ZM93.4862 38.5908L92.0409 39.9733L92.0485 39.9811L93.4862 38.5908ZM57.1708 65.8198V53.0635H53.1708V65.8198H57.1708ZM53.9925 54.6795C58.8148 58.1958 64.4304 59.9341 70.7567 59.9341V55.9341C65.2081 55.9341 60.4331 54.4253 56.3491 51.4475L53.9925 54.6795ZM70.7567 59.9341C74.7583 59.9341 78.1588 59.077 80.7037 57.1019L78.2512 53.942C76.6522 55.183 74.2389 55.9341 70.7567 55.9341V59.9341ZM80.6923 57.1107C83.3374 55.088 84.6317 52.2327 84.6317 48.7959H80.6317C80.6317 51.1111 79.8232 52.7398 78.2625 53.9333L80.6923 57.1107ZM84.6317 48.7959C84.6317 45.1103 82.9537 42.1899 79.788 40.2301L77.6825 43.6312C79.7122 44.8876 80.6317 46.544 80.6317 48.7959H84.6317ZM79.7971 40.2358C76.7923 38.3533 72.831 37.5186 68.1127 37.5186V41.5186C72.4244 41.5186 75.5448 42.2919 77.6734 43.6255L79.7971 40.2358ZM68.1127 37.5186H61.9433V41.5186H68.1127V37.5186ZM63.9433 39.5186V28.293H59.9433V39.5186H63.9433ZM61.9433 30.293H67.6488V26.293H61.9433V30.293ZM67.6488 30.293C72.1364 30.293 75.8513 29.5592 78.4967 27.8019C81.2861 25.949 82.6371 23.1267 82.6371 19.665H78.6371C78.6371 21.9553 77.8234 23.447 76.2834 24.4701C74.5993 25.5887 71.8201 26.293 67.6488 26.293V30.293ZM82.6371 19.665C82.6371 16.5296 81.654 13.8551 79.4064 12.0257C77.2375 10.2603 74.2082 9.54736 70.664 9.54736V13.5474C73.7685 13.5474 75.7258 14.1874 76.8813 15.1279C77.958 16.0043 78.6371 17.3887 78.6371 19.665H82.6371ZM70.664 9.54736C65.7519 9.54736 61.0355 11.1409 56.5467 14.2104L58.8046 17.5122C62.7273 14.8298 66.6698 13.5474 70.664 13.5474V9.54736ZM59.6757 15.8613V3.89355H55.6757V15.8613H59.6757ZM58.5748 5.68004C62.9175 3.49434 68.0416 2.36816 74.0038 2.36816V-1.63184C67.5343 -1.63184 61.7731 -0.407753 56.7765 2.10707L58.5748 5.68004ZM74.0038 2.36816C80.5293 2.36816 85.3103 3.8376 88.6078 6.51345L91.1283 3.40744C86.8802 -0.0397491 81.0851 -1.63184 74.0038 -1.63184V2.36816ZM88.614 6.51847C91.9457 9.20005 93.5736 12.6008 93.5736 16.8818H97.5736C97.5736 11.3908 95.3979 6.8439 91.1221 3.40243L88.614 6.51847ZM93.5736 16.8818C93.5736 20.8819 92.5652 23.9365 90.7142 26.2227C88.8558 28.518 85.9807 30.2452 81.8699 31.2693L82.8369 35.1506C87.5396 33.9791 91.2746 31.8871 93.823 28.7397C96.3787 25.5832 97.5736 21.5715 97.5736 16.8818H93.5736ZM80.3534 33.21V33.4419H84.3534V33.21H80.3534ZM82.1053 35.4265C86.4457 35.969 89.6987 37.5246 92.0409 39.9733L94.9315 37.2084C91.831 33.967 87.6621 32.0899 82.6015 31.4573L82.1053 35.4265ZM92.0485 39.9811C94.3895 42.4019 95.5683 45.3582 95.5683 48.9814H99.5683C99.5683 44.3787 98.0257 40.408 94.9239 37.2005L92.0485 39.9811ZM95.5683 48.9814C95.5683 54.6369 93.536 58.9583 89.5039 62.1676L91.9949 65.2973C97.0546 61.2702 99.5683 55.7576 99.5683 48.9814H95.5683ZM89.5039 62.1676C85.425 65.4141 79.6427 67.1597 71.9164 67.1597V71.1597C80.209 71.1597 86.9821 69.2871 91.9949 65.2973L89.5039 62.1676ZM71.9164 67.1597C65.2458 67.1597 60.0112 66.0747 56.0907 64.0439L54.2509 67.5957C58.9274 70.0181 64.8565 71.1597 71.9164 71.1597V67.1597Z" fill="#29343E"/>
</svg>
