<svg width="118" height="119" viewBox="0 0 118 119" fill="none" xmlns="http://www.w3.org/2000/svg">
<path d="M16.9422 0.57206L16.275 1.14394L16.2035 7.41074L16.132 13.7014L10.1274 21.6838L4.12266 29.6662L4.05118 52.017L4.00352 74.3678L2.59766 75.726C0.977351 77.3225 0.191023 79.0619 0.0242258 81.5162C-0.28554 85.5908 2.38321 89.1889 7.57774 91.667C8.62618 92.1674 9.46016 92.6201 9.46016 92.6916C9.48399 92.7631 9.10274 93.0252 8.60235 93.2873C8.12579 93.5494 7.05352 94.4072 6.24337 95.2174C1.38243 99.8877 2.40704 106.321 8.48321 109.3C11.8191 110.968 15.2742 110.658 19.3012 108.347C21.827 106.893 24.8531 104.487 27.8316 101.508L30.3813 99.0061L30.6434 100.126C32.2875 107.274 41.1039 111.826 59.2848 114.947C74.082 117.497 90.7856 118.712 100.531 117.926C109.896 117.187 113.946 115.138 113.946 111.158C113.946 110.491 113.804 109.586 113.613 109.133C112.684 106.75 109.491 103.438 105.225 100.388L103.414 99.0775L105.225 97.6955C111.349 93.0967 115.71 86.0197 117.473 77.8467C117.878 75.8928 117.997 74.6061 117.997 71.2463C117.997 66.8143 117.759 64.6459 116.806 61.0002C114.661 52.7557 110.658 47.0131 105.154 44.2967C102.295 42.8908 100.698 42.5811 97.2906 42.7002C94.2645 42.8193 91.7148 43.4627 89.2129 44.7256C88.5695 45.0354 87.9738 45.226 87.9023 45.1068C87.807 45.0115 87.5926 44.1299 87.4496 43.1768C87.2828 42.2236 86.3535 39.0068 85.3289 36.0283C83.6133 30.9291 83.4941 30.4764 83.3988 28.1174C83.3035 25.3295 83.6371 23.3756 84.6617 21.0881C84.9953 20.3256 85.2574 19.5869 85.2574 19.4439C85.2574 19.1818 81.707 17.2756 81.5641 17.4424C81.2543 17.7998 80.4203 19.8014 79.8961 21.4455C79.3481 23.0896 79.2051 24.0428 79.1098 26.4732C78.9906 30.2143 79.3242 32.0014 81.1113 37.1244C81.8262 39.1736 82.6363 41.6994 82.8746 42.7002C83.3512 44.4873 83.7801 48.133 83.5418 48.133C83.4703 48.133 82.6363 47.6088 81.6594 46.9654C78.0852 44.6303 74.082 43.0338 71.0082 42.7478L69.2926 42.5811V36.1951V29.7853L63.2164 21.6838L57.1402 13.5822V7.48222V1.38222L56.4492 0.6912L55.7582 0.000183105H36.6719H17.6094L16.9422 0.57206ZM52.8512 8.22089V12.1525H36.6481H20.4449V8.22089V4.28925H36.6481H52.8512V8.22089ZM46.1555 22.5178L41.6043 28.5939H26.0207H10.4371L14.9883 22.5178L19.5395 16.4416H35.1231H50.7066L46.1555 22.5178ZM58.975 23.3041L62.8352 28.4748L58.9035 28.5463C56.759 28.5701 53.2324 28.5701 51.0879 28.5463L47.1801 28.4748L51.0164 23.3041C53.1371 20.4447 54.9242 18.1096 54.9957 18.1334C55.0672 18.1334 56.8543 20.4686 58.975 23.3041ZM40.6988 38.84V44.7971H24.4957H8.29259V38.84V32.883H24.4957H40.6988V38.84ZM65.0035 37.9346V43.01L63.6215 43.4389C60.5238 44.4158 56.7352 47.442 54.5906 50.635C52.3031 54.0424 50.6113 58.26 49.5867 63.1209C49.0387 65.7182 48.9672 66.7189 48.9434 70.5791L48.9195 75.0588H46.9656H44.9879V53.9709V32.883H54.9957H65.0035V37.9346ZM73.7008 47.7994C75.9645 48.6334 78.109 49.801 80.5156 51.5404C81.5164 52.2314 82.4934 52.8748 82.7078 52.9701C83.0652 53.1131 83.0652 53.2084 82.7316 54.2568C82.541 54.8764 82.3266 55.6865 82.2313 56.0439C82.1598 56.4252 81.993 56.7111 81.8738 56.7111C81.302 56.7111 79.7531 55.6865 79.0145 54.8049L78.1805 53.8518L76.3695 54.8525C75.3688 55.4244 74.5348 55.9963 74.5348 56.1631C74.5348 56.3061 75.1305 57.0924 75.8691 57.8787C79.4672 61.7627 85.4719 62.3346 89.6656 59.1416C91.0715 58.0932 92.525 56.2584 92.2152 55.9486C92.0961 55.8295 91.2621 55.3053 90.3805 54.7811L88.7602 53.8518L87.9262 54.8049C87.4734 55.3529 87.0684 55.7342 87.0207 55.6865C86.9492 55.6389 87.0684 54.9002 87.259 54.0662C87.4496 53.2322 87.6641 52.0408 87.7594 51.4213L87.9023 50.3014L90.5711 48.9908C93.9547 47.3229 96.0039 46.8463 98.7918 46.9893C99.9355 47.0607 101.341 47.3229 101.937 47.5611C108.109 50.0154 112.588 57.7596 113.613 67.7674C114.542 76.6314 111.635 85.1857 105.559 91.5479C103.986 93.192 99.9117 96.2658 99.316 96.2658C99.1969 96.2658 98.1008 95.6701 96.9094 94.9314C84.9238 87.6877 66.7191 79.4193 56.8066 76.7506L53.4469 75.8451L53.2563 74.5584C52.9465 72.5568 53.2563 66.6713 53.8043 64.0502C55.4484 56.2346 59.2371 50.2537 63.9313 48.0377C65.8375 47.1322 66.7668 46.9416 69.4117 47.0369C71.2941 47.1084 72.1996 47.2752 73.7008 47.7994ZM40.6988 62.5014V75.9166L39.4598 76.5361C38.7688 76.8697 37.7203 77.5846 37.1246 78.1088L36.0285 79.0619L35.5043 76.4408C34.7656 72.8428 33.0738 67.815 31.7395 65.2893C29.7856 61.5721 27.6649 59.6896 24.734 58.9986C20.1828 57.9264 16.0129 59.4275 14.2734 62.7873C13.0106 65.2416 13.082 68.4584 14.4641 71.7467L15.1551 73.4146L14.2973 73.224C13.7969 73.1525 12.2719 73.0572 10.866 73.0572L8.29259 73.0334V61.0479V49.0861H24.4957H40.6988V62.5014ZM23.5664 63.1686C24.5434 63.383 25.0438 63.6689 25.9492 64.5744C28.4274 67.0525 30.8102 73.6529 32.1207 81.8022L32.6211 84.8521L31.5965 88.4264C30.5957 91.9768 30.5719 92.0482 29.0469 93.8354C23.3996 100.579 16.1797 106.035 12.9629 106.035C11.3426 106.035 9.5793 105.178 8.45938 103.891C7.26798 102.485 7.19649 101.389 8.19727 99.6494C9.19805 97.9338 12.4387 95.8607 15.8461 94.7408C16.5371 94.5025 17.2758 94.0975 17.4664 93.8115C17.943 93.1205 17.9191 91.667 17.4188 91.0713C17.1805 90.8092 15.8223 90.2135 14.3688 89.7369C8.86446 87.8783 5.95743 86.0674 4.83751 83.7561C4.31329 82.6838 4.21798 82.2549 4.33712 81.4209C4.98048 77.4416 9.43633 76.3455 17.1805 78.2756C18.4672 78.6092 19.8969 78.8713 20.3734 78.8713C21.5887 78.8713 22.3512 78.1088 22.3512 76.8936C22.3512 76.1311 22.1129 75.6307 20.9453 74.0818C18.4195 70.7459 17.3234 67.815 17.8238 65.742C18.1336 64.4553 18.8246 63.7166 20.1352 63.2639C21.2551 62.8588 21.9699 62.835 23.5664 63.1686ZM50.4922 79.7291C52.6129 80.0865 58.5223 81.6115 58.7606 81.8498C58.832 81.9213 57.7836 85.8053 56.4254 90.4756C55.0672 95.1697 53.9711 99.1014 53.9473 99.2205C53.9234 99.3635 57.307 100.531 57.8789 100.555C57.9504 100.555 59.118 96.7186 60.4762 92.0244C61.8344 87.3541 62.9781 83.4701 63.002 83.4225C63.2402 83.1365 75.3926 88.474 81.6832 91.6193C88.784 95.1697 95.9801 99.292 95.9801 99.7924C95.9801 99.9592 95.5512 101.603 95.0031 103.438C94.4551 105.273 94.05 106.798 94.0977 106.846C94.3121 106.988 98.1484 108.013 98.2199 107.918C98.2438 107.87 98.6488 106.512 99.1016 104.892L99.9355 101.961L101.818 103.319C106.107 106.369 109.371 109.538 109.61 110.896C109.777 111.849 106.893 112.874 102.414 113.47C99.0301 113.922 86.9731 113.851 80.8492 113.327C78.109 113.088 75.7977 112.85 75.75 112.803C75.7023 112.755 75.893 111.945 76.1789 110.992C76.441 110.038 76.8938 108.537 77.132 107.656L77.6086 106.035L75.6309 105.44C74.5586 105.106 73.6055 104.844 73.534 104.844C73.4625 104.844 72.9383 106.464 72.3902 108.442C71.7469 110.682 71.2227 112.088 71.0082 112.183C70.5793 112.326 63.002 111.301 58.3316 110.42C48.9672 108.704 41.7473 106.25 38.1731 103.581C34.6465 100.96 33.7887 97.6479 35.1945 91.8576C36.6719 85.8291 38.6496 82.0643 41.1277 80.6107C43.3438 79.3002 46.3461 79.0143 50.4922 79.7291Z" fill="#FFBD4E"/>
</svg>
