<svg width="15" height="13" viewBox="0 0 15 13" fill="none" xmlns="http://www.w3.org/2000/svg">
<path d="M0.824 12V0.799999H2.008V12H0.824ZM10.5641 12.096C9.71079 12.096 8.92146 11.9573 8.19613 11.68C7.48146 11.392 6.85746 10.992 6.32413 10.48C5.80146 9.968 5.39079 9.36533 5.09213 8.672C4.80413 7.97867 4.66013 7.22133 4.66013 6.4C4.66013 5.57867 4.80413 4.82133 5.09213 4.128C5.39079 3.43467 5.80679 2.832 6.34013 2.32C6.87346 1.808 7.49746 1.41333 8.21213 1.136C8.93746 0.848 9.72679 0.704 10.5801 0.704C11.4335 0.704 12.2121 0.837333 12.9161 1.104C13.6308 1.37067 14.2388 1.776 14.7401 2.32L14.0041 3.072C13.5348 2.60267 13.0175 2.26667 12.4521 2.064C11.8868 1.86133 11.2788 1.76 10.6281 1.76C9.93479 1.76 9.29479 1.87733 8.70813 2.112C8.13213 2.336 7.62546 2.66133 7.18813 3.088C6.76146 3.504 6.42546 3.99467 6.18012 4.56C5.94546 5.11467 5.82812 5.728 5.82812 6.4C5.82812 7.06133 5.94546 7.67467 6.18012 8.24C6.42546 8.80533 6.76146 9.30133 7.18813 9.728C7.62546 10.144 8.13213 10.4693 8.70813 10.704C9.29479 10.928 9.92946 11.04 10.6121 11.04C11.2521 11.04 11.8548 10.944 12.4201 10.752C12.9961 10.56 13.5241 10.2347 14.0041 9.776L14.6761 10.672C14.1428 11.1413 13.5188 11.4987 12.8041 11.744C12.0895 11.9787 11.3428 12.096 10.5641 12.096ZM13.5401 10.528V6.4H14.6761V10.672L13.5401 10.528Z" fill="#F9F9F9"/>
<path d="M-1 14H16.1961V14.8H-1V14Z" fill="#F9F9F9"/>
</svg>
