<svg width="38" height="42" viewBox="0 0 38 42" fill="none" xmlns="http://www.w3.org/2000/svg">
<path d="M30.0833 6.87498H28.5V3.4375H25.3333V6.87498H12.6667V3.4375H9.5V6.87498H7.91667C6.15917 6.87498 4.76583 8.42184 4.76583 10.3125L4.75 34.3748C4.75 35.2865 5.08363 36.1608 5.6775 36.8054C6.27136 37.4501 7.07681 37.8123 7.91667 37.8123H30.0833C31.825 37.8123 33.25 36.2654 33.25 34.3748V10.3125C33.25 8.42184 31.825 6.87498 30.0833 6.87498ZM30.0833 34.3748H7.91667V17.1874H30.0833V34.3748ZM30.0833 13.7499H7.91667V10.3125H30.0833V13.7499ZM14.25 24.0624H11.0833V20.6249H14.25V24.0624ZM20.5833 24.0624H17.4167V20.6249H20.5833V24.0624ZM26.9167 24.0624H23.75V20.6249H26.9167V24.0624ZM14.25 30.9373H11.0833V27.4998H14.25V30.9373ZM20.5833 30.9373H17.4167V27.4998H20.5833V30.9373ZM26.9167 30.9373H23.75V27.4998H26.9167V30.9373Z" fill="#FFBD4E"/>
</svg>
