<svg width="16" height="26" viewBox="0 0 16 26" fill="none" xmlns="http://www.w3.org/2000/svg">
<path d="M0.269625 17.7916C0.269625 17.7916 0.141625 25.1516 8.33363 25.1516C14.7016 25.1516 15.9496 20.6396 15.9496 18.5276C15.9496 14.5916 13.5496 12.7356 8.74963 10.6556C4.20563 8.67158 3.66163 7.58358 3.66163 6.04758C3.66163 4.70358 4.52563 2.87958 7.82163 2.87958C11.1176 2.87958 12.0136 5.24758 12.0136 6.59158H15.0536C15.0536 4.57558 13.6776 0.0955772 7.94963 0.0955772C1.26163 0.0635777 0.621625 4.57558 0.621625 6.23958C0.621625 9.18358 2.50963 11.1996 7.40563 13.4076C11.9496 15.4556 12.8776 16.2876 12.9096 18.5596C12.9096 20.5436 11.1816 22.3356 8.10963 22.3356C5.03763 22.3356 3.30963 20.3196 3.30963 17.7916H0.269625Z" fill="#25616B"/>
</svg>
