<svg width="132" height="117" viewBox="0 0 132 117" fill="none" xmlns="http://www.w3.org/2000/svg">
<mask id="path-1-inside-1_422_4876" fill="white">
<path d="M63.088 0.448242C58.7587 1.63364 55.254 5.00948 53.7594 9.4161C53.1409 11.2973 53.1151 11.555 53.1151 18.152C53.1151 21.8886 53.244 25.4449 53.3986 26.0891C53.8367 28.0218 55.1252 30.3926 56.6456 32.0161C57.5991 33.0469 57.9599 33.5881 57.7279 33.6654C57.5218 33.7427 54.3521 34.7477 50.667 35.9074C46.982 37.067 43.4 38.2266 42.7299 38.4843C39.6891 39.6955 36.6225 42.3498 34.8444 45.3391C34.0456 46.6791 32.7055 50.3384 29.4328 60.2082C26.9073 67.7587 24.7427 73.7631 24.3304 74.4331C23.8407 75.2062 20.4649 78.2728 13.9967 83.839C8.71393 88.3745 4.15269 92.4461 3.89499 92.91C2.50343 95.1519 3.89499 97.3424 7.68314 98.9143C8.58508 99.2751 9.12624 99.6616 9.0747 99.842C7.65737 104.197 7.70891 107.186 9.30663 110.433L10.0282 111.902H5.54425C1.39533 111.902 1.00878 111.954 0.54493 112.418C-0.253931 113.216 -0.150853 114.814 0.699548 115.484L1.39533 116.025H66H130.605L131.3 115.484C132.151 114.814 132.254 113.216 131.455 112.418C130.991 111.954 130.605 111.902 126.945 111.902C124.755 111.902 122.951 111.825 122.951 111.696C122.951 111.593 123.131 111.284 123.363 111C124.008 110.124 124.755 107.289 124.755 105.589C124.755 103.888 124.008 101.053 123.363 100.177C122.796 99.4555 122.848 99.3782 123.93 99.0689C125.141 98.7081 127.487 97.2393 127.976 96.5177C128.182 96.2085 128.44 95.4612 128.517 94.8427C128.646 93.9407 128.543 93.5542 128.053 92.8327C127.718 92.343 123.183 88.2714 117.978 83.8133C111.793 78.5305 108.237 75.2835 107.747 74.5362C107.257 73.7888 105.402 68.6349 102.593 60.234C97.7741 45.8287 97.2844 44.7206 94.5528 42.0406C92.0016 39.5151 90.3782 38.742 82.4926 36.2424C78.6014 35.0312 75.3802 33.9746 75.3286 33.9489C75.2771 33.8973 75.8698 33.2531 76.6171 32.5058C78.3952 30.7276 79.5291 28.7176 80.1733 26.1922C80.6114 24.4914 80.6887 23.3575 80.6887 18.384C80.6887 11.6581 80.431 10.0088 78.9879 7.25144C77.2871 4.03023 74.1948 1.5048 70.6643 0.474007C68.9635 -0.0156174 64.8661 -0.0413818 63.088 0.448242ZM70.922 5.03525C72.8805 5.98872 74.6844 7.84415 75.6379 9.85419L76.4367 11.5292V18.2293V24.9295L75.6121 26.656C72.7259 32.7377 65.3042 34.3354 60.4337 29.903C59.6091 29.1299 58.6556 27.9187 58.1918 27.0168L57.3671 25.4449L57.2898 18.719C57.2125 12.3796 57.2383 11.9415 57.7537 10.55C58.7587 7.86992 60.6141 5.93719 63.32 4.80332C64.6342 4.26215 65.1496 4.18484 67.1854 4.26215C69.0666 4.3137 69.7624 4.46832 70.922 5.03525ZM72.1847 37.4278C77.8541 39.0255 87.4404 42.2209 88.7547 42.9167C90.6874 43.9475 92.749 46.0091 93.8055 47.9934C94.2694 48.8695 95.3775 51.7815 96.2794 54.4616L97.9287 59.332L97.2329 59.6928C94.8878 60.8782 89.1154 63.1975 88.9608 63.0171C88.8577 62.914 88.0846 61.1617 87.26 59.1516C86.4612 57.1158 85.6108 55.3377 85.4304 55.1831C84.8377 54.6935 83.2657 54.8481 82.6472 55.4408C82.1061 55.982 82.1061 56.085 82.0288 70.6707L81.9772 85.3594H66H50.0228L49.9712 70.6707C49.8939 56.085 49.8939 55.982 49.3528 55.4408C48.7343 54.8481 47.1623 54.6935 46.5696 55.1831C46.3635 55.3635 45.5904 56.987 44.8688 58.8166C44.1215 60.6721 43.4257 62.1667 43.2969 62.1667C43.1165 62.1667 34.8702 58.1466 34.6383 57.9405C34.4579 57.7858 37.4729 49.3334 38.1945 47.9934C39.251 46.0091 41.3126 43.9217 43.2453 42.9167C45.1265 41.9117 59.1968 37.4278 62.083 36.9124C64.2219 36.5001 70.0201 36.8093 72.1847 37.4278ZM41.7507 66.1868C41.8022 66.2383 41.5445 67.0372 41.158 67.9649C40.2818 70.1811 40.2818 71.2376 41.158 71.9334C42.6526 73.0931 43.9669 72.32 45.0235 69.6399C45.41 68.6349 45.7708 67.836 45.8223 67.836C45.8481 67.836 45.8996 71.8561 45.8996 76.7781V85.746L40.3334 87.421C33.5817 89.4568 33.659 89.431 34.9475 88.5549C37.4214 86.8798 38.7614 85.1533 39.9726 82.164C40.8745 79.8963 40.9261 78.9428 40.2561 78.1181C39.6634 77.3966 38.1687 77.3193 37.4472 77.9893C37.1637 78.2212 36.5968 79.3036 36.2102 80.3859C34.9733 83.6586 34.2775 84.1998 23.9438 89.9464C19.0218 92.7038 14.4348 95.1004 13.7648 95.3065C12.3217 95.7446 10.4663 95.6158 8.97163 94.9458L7.96661 94.5077L17.1406 86.6737C22.1915 82.3701 26.7012 78.3243 27.1908 77.6543C28.5308 75.8246 28.9174 74.8454 31.082 68.3514C32.1901 65.0271 33.1436 62.2182 33.1952 62.1152C33.2725 61.9605 41.3384 65.8002 41.7507 66.1868ZM101.176 69.1503C103.16 75.0773 103.495 75.8246 104.809 77.6543C105.299 78.3243 109.809 82.3701 114.859 86.6737L124.033 94.5077L123.028 94.9458C121.534 95.6158 119.678 95.7446 118.235 95.3065C117.565 95.1004 112.978 92.7038 108.056 89.9464C100.944 86.0037 98.8564 84.7152 97.8514 83.6844C96.666 82.4732 96.3825 81.9063 93.5736 74.7939L90.5328 67.1918L93.6767 65.8518C95.3775 65.1044 97.2587 64.254 97.8256 63.9963C98.3925 63.7129 98.9595 63.5067 99.0883 63.5583C99.2172 63.584 100.171 66.1095 101.176 69.1503ZM89.6051 76.0823C91.3832 80.5405 93.187 84.6637 93.5736 85.2306C94.5013 86.5706 95.7125 87.6787 97.3102 88.7095C98.0318 89.1734 98.4183 89.4826 98.2121 89.4053C98.006 89.3537 95.1971 88.5033 91.9759 87.5241L86.1004 85.746V76.7523C86.1004 71.8046 86.1519 67.8103 86.2292 67.8618C86.2808 67.9391 87.8012 71.6242 89.6051 76.0823ZM99.8356 94.2758C108.932 97.0331 116.869 99.6101 117.462 99.9451C119.524 101.13 120.786 103.707 120.554 106.259C120.4 108.114 119.549 109.66 117.952 110.949L116.818 111.902H96.5887H76.3594L75.9471 110.588C75.6894 109.866 75.2256 108.81 74.8648 108.269L74.2463 107.264H75.5863C78.4468 107.238 79.6322 106.619 79.658 105.125C79.6837 103.089 78.9879 102.909 72.3136 103.269C69.3501 103.45 66.8504 103.553 66.7731 103.527C66.6958 103.501 59.5833 102.728 50.9763 101.826C36.7256 100.357 35.231 100.229 34.6125 100.589C33.1952 101.362 33.2982 103.553 34.7671 104.146C35.1537 104.274 42.3176 105.099 50.667 105.975C66.3092 107.599 67.5462 107.753 68.9378 108.449C70.2778 109.145 71.927 110.949 71.927 111.773C71.927 111.851 59.841 111.902 45.0492 111.902C23.7892 111.902 17.9137 111.825 16.8829 111.567C14.0225 110.82 12.2701 108.346 12.2701 105.073C12.2959 103.063 13.0175 101.053 14.0998 100.022C14.5379 99.6101 19.1764 98.0897 31.5201 94.3531L48.3477 89.2764L65.8196 89.2507L83.2915 89.2249L99.8356 94.2758Z"/>
</mask>
<path d="M63.088 0.448242C58.7587 1.63364 55.254 5.00948 53.7594 9.4161C53.1409 11.2973 53.1151 11.555 53.1151 18.152C53.1151 21.8886 53.244 25.4449 53.3986 26.0891C53.8367 28.0218 55.1252 30.3926 56.6456 32.0161C57.5991 33.0469 57.9599 33.5881 57.7279 33.6654C57.5218 33.7427 54.3521 34.7477 50.667 35.9074C46.982 37.067 43.4 38.2266 42.7299 38.4843C39.6891 39.6955 36.6225 42.3498 34.8444 45.3391C34.0456 46.6791 32.7055 50.3384 29.4328 60.2082C26.9073 67.7587 24.7427 73.7631 24.3304 74.4331C23.8407 75.2062 20.4649 78.2728 13.9967 83.839C8.71393 88.3745 4.15269 92.4461 3.89499 92.91C2.50343 95.1519 3.89499 97.3424 7.68314 98.9143C8.58508 99.2751 9.12624 99.6616 9.0747 99.842C7.65737 104.197 7.70891 107.186 9.30663 110.433L10.0282 111.902H5.54425C1.39533 111.902 1.00878 111.954 0.54493 112.418C-0.253931 113.216 -0.150853 114.814 0.699548 115.484L1.39533 116.025H66H130.605L131.3 115.484C132.151 114.814 132.254 113.216 131.455 112.418C130.991 111.954 130.605 111.902 126.945 111.902C124.755 111.902 122.951 111.825 122.951 111.696C122.951 111.593 123.131 111.284 123.363 111C124.008 110.124 124.755 107.289 124.755 105.589C124.755 103.888 124.008 101.053 123.363 100.177C122.796 99.4555 122.848 99.3782 123.93 99.0689C125.141 98.7081 127.487 97.2393 127.976 96.5177C128.182 96.2085 128.44 95.4612 128.517 94.8427C128.646 93.9407 128.543 93.5542 128.053 92.8327C127.718 92.343 123.183 88.2714 117.978 83.8133C111.793 78.5305 108.237 75.2835 107.747 74.5362C107.257 73.7888 105.402 68.6349 102.593 60.234C97.7741 45.8287 97.2844 44.7206 94.5528 42.0406C92.0016 39.5151 90.3782 38.742 82.4926 36.2424C78.6014 35.0312 75.3802 33.9746 75.3286 33.9489C75.2771 33.8973 75.8698 33.2531 76.6171 32.5058C78.3952 30.7276 79.5291 28.7176 80.1733 26.1922C80.6114 24.4914 80.6887 23.3575 80.6887 18.384C80.6887 11.6581 80.431 10.0088 78.9879 7.25144C77.2871 4.03023 74.1948 1.5048 70.6643 0.474007C68.9635 -0.0156174 64.8661 -0.0413818 63.088 0.448242ZM70.922 5.03525C72.8805 5.98872 74.6844 7.84415 75.6379 9.85419L76.4367 11.5292V18.2293V24.9295L75.6121 26.656C72.7259 32.7377 65.3042 34.3354 60.4337 29.903C59.6091 29.1299 58.6556 27.9187 58.1918 27.0168L57.3671 25.4449L57.2898 18.719C57.2125 12.3796 57.2383 11.9415 57.7537 10.55C58.7587 7.86992 60.6141 5.93719 63.32 4.80332C64.6342 4.26215 65.1496 4.18484 67.1854 4.26215C69.0666 4.3137 69.7624 4.46832 70.922 5.03525ZM72.1847 37.4278C77.8541 39.0255 87.4404 42.2209 88.7547 42.9167C90.6874 43.9475 92.749 46.0091 93.8055 47.9934C94.2694 48.8695 95.3775 51.7815 96.2794 54.4616L97.9287 59.332L97.2329 59.6928C94.8878 60.8782 89.1154 63.1975 88.9608 63.0171C88.8577 62.914 88.0846 61.1617 87.26 59.1516C86.4612 57.1158 85.6108 55.3377 85.4304 55.1831C84.8377 54.6935 83.2657 54.8481 82.6472 55.4408C82.1061 55.982 82.1061 56.085 82.0288 70.6707L81.9772 85.3594H66H50.0228L49.9712 70.6707C49.8939 56.085 49.8939 55.982 49.3528 55.4408C48.7343 54.8481 47.1623 54.6935 46.5696 55.1831C46.3635 55.3635 45.5904 56.987 44.8688 58.8166C44.1215 60.6721 43.4257 62.1667 43.2969 62.1667C43.1165 62.1667 34.8702 58.1466 34.6383 57.9405C34.4579 57.7858 37.4729 49.3334 38.1945 47.9934C39.251 46.0091 41.3126 43.9217 43.2453 42.9167C45.1265 41.9117 59.1968 37.4278 62.083 36.9124C64.2219 36.5001 70.0201 36.8093 72.1847 37.4278ZM41.7507 66.1868C41.8022 66.2383 41.5445 67.0372 41.158 67.9649C40.2818 70.1811 40.2818 71.2376 41.158 71.9334C42.6526 73.0931 43.9669 72.32 45.0235 69.6399C45.41 68.6349 45.7708 67.836 45.8223 67.836C45.8481 67.836 45.8996 71.8561 45.8996 76.7781V85.746L40.3334 87.421C33.5817 89.4568 33.659 89.431 34.9475 88.5549C37.4214 86.8798 38.7614 85.1533 39.9726 82.164C40.8745 79.8963 40.9261 78.9428 40.2561 78.1181C39.6634 77.3966 38.1687 77.3193 37.4472 77.9893C37.1637 78.2212 36.5968 79.3036 36.2102 80.3859C34.9733 83.6586 34.2775 84.1998 23.9438 89.9464C19.0218 92.7038 14.4348 95.1004 13.7648 95.3065C12.3217 95.7446 10.4663 95.6158 8.97163 94.9458L7.96661 94.5077L17.1406 86.6737C22.1915 82.3701 26.7012 78.3243 27.1908 77.6543C28.5308 75.8246 28.9174 74.8454 31.082 68.3514C32.1901 65.0271 33.1436 62.2182 33.1952 62.1152C33.2725 61.9605 41.3384 65.8002 41.7507 66.1868ZM101.176 69.1503C103.16 75.0773 103.495 75.8246 104.809 77.6543C105.299 78.3243 109.809 82.3701 114.859 86.6737L124.033 94.5077L123.028 94.9458C121.534 95.6158 119.678 95.7446 118.235 95.3065C117.565 95.1004 112.978 92.7038 108.056 89.9464C100.944 86.0037 98.8564 84.7152 97.8514 83.6844C96.666 82.4732 96.3825 81.9063 93.5736 74.7939L90.5328 67.1918L93.6767 65.8518C95.3775 65.1044 97.2587 64.254 97.8256 63.9963C98.3925 63.7129 98.9595 63.5067 99.0883 63.5583C99.2172 63.584 100.171 66.1095 101.176 69.1503ZM89.6051 76.0823C91.3832 80.5405 93.187 84.6637 93.5736 85.2306C94.5013 86.5706 95.7125 87.6787 97.3102 88.7095C98.0318 89.1734 98.4183 89.4826 98.2121 89.4053C98.006 89.3537 95.1971 88.5033 91.9759 87.5241L86.1004 85.746V76.7523C86.1004 71.8046 86.1519 67.8103 86.2292 67.8618C86.2808 67.9391 87.8012 71.6242 89.6051 76.0823ZM99.8356 94.2758C108.932 97.0331 116.869 99.6101 117.462 99.9451C119.524 101.13 120.786 103.707 120.554 106.259C120.4 108.114 119.549 109.66 117.952 110.949L116.818 111.902H96.5887H76.3594L75.9471 110.588C75.6894 109.866 75.2256 108.81 74.8648 108.269L74.2463 107.264H75.5863C78.4468 107.238 79.6322 106.619 79.658 105.125C79.6837 103.089 78.9879 102.909 72.3136 103.269C69.3501 103.45 66.8504 103.553 66.7731 103.527C66.6958 103.501 59.5833 102.728 50.9763 101.826C36.7256 100.357 35.231 100.229 34.6125 100.589C33.1952 101.362 33.2982 103.553 34.7671 104.146C35.1537 104.274 42.3176 105.099 50.667 105.975C66.3092 107.599 67.5462 107.753 68.9378 108.449C70.2778 109.145 71.927 110.949 71.927 111.773C71.927 111.851 59.841 111.902 45.0492 111.902C23.7892 111.902 17.9137 111.825 16.8829 111.567C14.0225 110.82 12.2701 108.346 12.2701 105.073C12.2959 103.063 13.0175 101.053 14.0998 100.022C14.5379 99.6101 19.1764 98.0897 31.5201 94.3531L48.3477 89.2764L65.8196 89.2507L83.2915 89.2249L99.8356 94.2758Z" stroke="#FFBD4E" stroke-width="6" mask="url(#path-1-inside-1_422_4876)"/>
<path d="M91.5129 102.213C88.9875 102.368 86.7713 102.625 86.462 102.806C85.4055 103.424 85.2766 104.816 86.2043 105.872L86.797 106.594L94.1929 106.181C101.125 105.821 101.64 105.769 102.156 105.254C102.852 104.558 102.877 103.115 102.207 102.368C101.795 101.904 101.46 101.852 98.883 101.878C97.3111 101.904 93.9868 102.058 91.5129 102.213Z" fill="#FFBD4E"/>
</svg>
