<svg width="89" height="71" viewBox="0 0 89 71" fill="none" xmlns="http://www.w3.org/2000/svg">
<path d="M6.60205 10.46L4.97066 9.303L4.96951 9.30462L6.60205 10.46ZM42.0879 61.1606L40.4542 60.0069L40.4502 60.0126L42.0879 61.1606ZM23.9507 68.1597C16.5621 68.1597 11.2864 65.6034 7.76733 60.6615C4.15928 55.5948 2.20068 47.7482 2.20068 36.8076H-1.79932C-1.79932 48.1018 0.200416 56.9312 4.50903 62.9818C8.90661 69.1573 15.5059 72.1597 23.9507 72.1597V68.1597ZM2.20068 36.8076C2.20068 25.4707 4.30619 17.1663 8.23459 11.6153L4.96951 9.30462C0.362753 15.8142 -1.79932 25.0748 -1.79932 36.8076H2.20068ZM8.23345 11.6169C12.1174 6.14034 17.6931 3.36816 25.2495 3.36816V-0.631836C16.5396 -0.631836 9.68376 2.65719 4.97066 9.303L8.23345 11.6169ZM25.2495 3.36816C32.4197 3.36816 37.5537 5.94517 40.9938 10.9745C44.5271 16.1403 46.4429 24.1397 46.4429 35.2769H50.4429C50.4429 23.8082 48.4931 14.8533 44.2953 8.71621C40.0042 2.44261 33.5416 -0.631836 25.2495 -0.631836V3.36816ZM46.4429 35.2769C46.4429 46.3262 44.3563 54.4814 40.4542 60.007L43.7216 62.3143C48.2928 55.8412 50.4429 46.7405 50.4429 35.2769H46.4429ZM40.4502 60.0126C36.6512 65.4318 31.2428 68.1597 23.9507 68.1597V72.1597C32.4301 72.1597 39.1131 68.8882 43.7256 62.3087L40.4502 60.0126ZM24.6001 10.5474C22.5571 10.5474 20.713 11.203 19.1557 12.5071C17.6344 13.7811 16.4805 15.5929 15.6099 17.78C13.8823 22.1201 13.0908 28.3996 13.0908 36.4365H17.0908C17.0908 28.5473 17.8842 22.8823 19.3263 19.2593C20.0406 17.4649 20.8679 16.2906 21.7238 15.5738C22.5439 14.8871 23.4733 14.5474 24.6001 14.5474V10.5474ZM13.0908 36.4365C13.0908 44.0138 13.8672 49.9566 15.5741 54.0754C16.4357 56.1543 17.5784 57.8771 19.0819 59.0864C20.6174 60.3214 22.4239 60.9341 24.4146 60.9341V56.9341C23.2973 56.9341 22.3844 56.6094 21.5889 55.9695C20.7615 55.304 19.9618 54.2147 19.2694 52.544C17.8684 49.1636 17.0908 43.8576 17.0908 36.4365H13.0908ZM24.4146 60.9341C26.3964 60.9341 28.1835 60.2873 29.6878 59.0081C31.1548 57.7607 32.262 55.9918 33.0954 53.8657C34.7497 49.6456 35.5063 43.5442 35.5063 35.7407H31.5063C31.5063 43.3995 30.7477 48.8948 29.3714 52.4058C28.6895 54.1452 27.9026 55.2755 27.0966 55.9609C26.328 56.6145 25.4633 56.9341 24.4146 56.9341V60.9341ZM35.5063 35.7407C35.5063 27.9393 34.7653 21.8435 33.1469 17.6287C32.332 15.5066 31.2482 13.7371 29.8076 12.4866C28.3278 11.202 26.5625 10.5474 24.6001 10.5474V14.5474C25.6064 14.5474 26.4388 14.8591 27.1855 15.5073C27.9715 16.1896 28.7432 17.3192 29.4127 19.0627C30.763 22.5791 31.5063 28.0799 31.5063 35.7407H35.5063ZM88.3373 0.99707H90.3373V-1.00293H88.3373V0.99707ZM88.3373 69V71H90.3373V69H88.3373ZM73.7255 69H71.7255V71H73.7255V69ZM73.7255 17.5107H75.7255V13.0713L72.4003 16.0127L73.7255 17.5107ZM70.8495 19.5518L71.8418 21.2882L71.8495 21.2838L71.8573 21.2793L70.8495 19.5518ZM67.3705 21.2681L68.1133 23.125L68.1331 23.1171L68.1528 23.1087L67.3705 21.2681ZM63.5204 22.5669L64.0161 24.5045L64.0371 24.4991L64.058 24.4933L63.5204 22.5669ZM59.5775 23.3091H57.5775V25.5613L59.814 25.2951L59.5775 23.3091ZM59.5775 10.9702L59.0157 9.05074L57.5775 9.47168V10.9702H59.5775ZM79.4774 0.99707V-1.00293H78.8027L78.2659 -0.594208L79.4774 0.99707ZM86.3373 0.99707V69H90.3373V0.99707H86.3373ZM88.3373 67H73.7255V71H88.3373V67ZM75.7255 69V17.5107H71.7255V69H75.7255ZM72.4003 16.0127C71.7115 16.6221 70.8637 17.2281 69.8418 17.8242L71.8573 21.2793C73.0619 20.5766 74.1314 19.8219 75.0506 19.0087L72.4003 16.0127ZM69.8572 17.8153C68.8478 18.3921 67.7588 18.9299 66.5882 19.4274L68.1528 23.1087C69.4562 22.5548 70.6865 21.9484 71.8418 21.2882L69.8572 17.8153ZM66.6277 19.4111C65.4602 19.8781 64.2455 20.2881 62.9828 20.6405L64.058 24.4933C65.4548 24.1035 66.8068 23.6476 68.1133 23.125L66.6277 19.4111ZM63.0247 20.6293C61.7761 20.9487 60.5484 21.1794 59.3411 21.3231L59.814 25.2951C61.2043 25.1295 62.6052 24.8654 64.0161 24.5045L63.0247 20.6293ZM61.5775 23.3091V10.9702H57.5775V23.3091H61.5775ZM60.1393 12.8897C64.0591 11.7425 67.7647 10.2738 71.2532 8.48159L69.4253 4.92368C66.1722 6.59499 62.7034 7.97142 59.0157 9.05074L60.1393 12.8897ZM71.2532 8.48159C74.7175 6.7018 77.8648 4.73861 80.689 2.58835L78.2659 -0.594208C75.6474 1.39941 72.7026 3.23993 69.4253 4.92368L71.2532 8.48159ZM79.4774 2.99707H88.3373V-1.00293H79.4774V2.99707Z" fill="#29343E"/>
</svg>
