<svg width="124" height="135" viewBox="0 0 124 135" fill="none" xmlns="http://www.w3.org/2000/svg">
<g filter="url(#filter0_b_545_4835)">
<path d="M116.156 53.2876L113.986 56.975L109.418 62.8615V68.2242V73.0567L108.803 75.3617L107.942 78.7971V80.4018L106.713 83.4879L104.622 88.302L104.008 90.2771L102.286 91.2646L100.687 93.2397H97.4904H94.0474L92.2029 95.585L87.5302 98.1773L83.3494 100.893L81.7508 104.226V108.176V111.756L80.2752 113.36L78.3078 117.557L76.8322 120.15L75.4796 119.286L74.4958 121.631L72.8973 122.372L71.7906 124.347V127.309L70.9299 130.148L68.5935 132L66.995 129.284L65.5194 127.309L61.0926 123.359L57.7726 121.631L55.6821 120.15L52.0715 118.298L56.297 115.089L58.6333 111.756L63.5519 110.151V108.176V104.843L62.1993 103.362V100.276L61.0926 98.1773C60.2729 98.0538 58.6333 97.6835 58.6333 97.1898V94.5975L57.7726 92.3756H54.6984L52.0715 91.2646L50.6585 88.302L52.0715 84.9691L52.731 82.2534L52.0715 77.7554L50.6585 75.3617V73.0567C49.746 73.0863 47.7442 73.1276 47.0377 73.0567C46.1546 72.9681 45.3598 72.7021 44.8299 72.3475C44.406 72.0638 43.8879 71.2245 43.6818 70.8404V68.89V66.0531L42.2688 64.014L40.6792 62.8615H39.2662L36.5285 62.1523L34.6739 60.2906C33.5553 60.3201 31.2298 60.3615 30.8765 60.2906C30.5233 60.2196 29.2574 59.1972 28.6687 58.6948L28.1388 56.7444V54.7054V52.2231L26.6375 51.5138H24.4297L22.3985 52.8436L18.866 55.326H15.3335L12.6488 53.6415V49.1388L11.2237 48.7017L10.1153 48.9004L8.17557 50.1323L6.9088 50.6886L4.8503 50.4105L3.42519 49.1388L2 47.589V46.1583L2.35635 44.3303L4.01895 42.1446L5.48369 39.9987L5.80049 37.6541L10.3528 36.5811L14.7865 35.7068L18.7056 35.3095L17.9827 33.5101L14.3095 31.3312L13.3079 28.9846L14.3095 23.6212L12.306 22.2804V19.4311V18.4254L14.3095 17.2522L13.3079 16.079L11.1373 14.5705L13.3079 13.2297H19.3185L20.9882 14.5705L23.8265 17.2522L27.3327 16.079L31.3397 13.2297L33.1763 11.5535L31.3397 10.7155L30.5049 9.03943L31.3397 6.69297L29.1692 5.51968H31.3397H35.1799L40.1886 4.34649L42.1922 2H44.1959L45.6984 5.51968V8.20139V12.3916L50.5402 13.2297L52.377 11.5535L57.7197 12.3916L61.2259 11.5535L66.7357 12.3916L69.574 10.7155L71.7445 6.69297H73.4141L74.249 9.03943L76.2524 13.2297L77.0873 18.4254L78.9239 19.4311V23.6212L82.0961 22.2804L87.2719 23.6212L91.1341 25.6646L91.9469 27.1855V28.9846L95.4531 27.4761L99.1261 28.9846H106.64L111.314 32.3367L116.156 35.5213L119.996 37.0298L122 40.3819V45.075L119.996 49.7679L116.156 53.2876Z" fill="white" fill-opacity="0.7"/>
<path d="M116.156 53.2876L113.986 56.975L109.418 62.8615V68.2242V73.0567L108.803 75.3617L107.942 78.7971V80.4018L106.713 83.4879L104.622 88.302L104.008 90.2771L102.286 91.2646L100.687 93.2397H97.4904H94.0474L92.2029 95.585L87.5302 98.1773L83.3494 100.893L81.7508 104.226V108.176V111.756L80.2752 113.36L78.3078 117.557L76.8322 120.15L75.4796 119.286L74.4958 121.631L72.8973 122.372L71.7906 124.347V127.309L70.9299 130.148L68.5935 132L66.995 129.284L65.5194 127.309L61.0926 123.359L57.7726 121.631L55.6821 120.15L52.0715 118.298L56.297 115.089L58.6333 111.756L63.5519 110.151V108.176V104.843L62.1993 103.362V100.276L61.0926 98.1773C60.2729 98.0538 58.6333 97.6835 58.6333 97.1898V94.5975L57.7726 92.3756H54.6984L52.0715 91.2646L50.6585 88.302L52.0715 84.9691L52.731 82.2534L52.0715 77.7554L50.6585 75.3617V73.0567C49.746 73.0863 47.7442 73.1276 47.0377 73.0567C46.1546 72.9681 45.3598 72.7021 44.8299 72.3475C44.406 72.0638 43.8879 71.2245 43.6818 70.8404V68.89V66.0531L42.2688 64.014L40.6792 62.8615H39.2662L36.5285 62.1523L34.6739 60.2906C33.5553 60.3201 31.2298 60.3615 30.8765 60.2906C30.5233 60.2196 29.2574 59.1972 28.6687 58.6948L28.1388 56.7444V54.7054V52.2231L26.6375 51.5138H24.4297L22.3985 52.8436L18.866 55.326H15.3335L12.6488 53.6415V49.1388L11.2237 48.7017L10.1153 48.9004L8.17557 50.1323L6.9088 50.6886L4.8503 50.4105L3.42519 49.1388L2 47.589V46.1583L2.35635 44.3303L4.01895 42.1446L5.48369 39.9987L5.80049 37.6541L10.3528 36.5811L14.7865 35.7068L18.7056 35.3095L17.9827 33.5101L14.3095 31.3312L13.3079 28.9846L14.3095 23.6212L12.306 22.2804V19.4311V18.4254L14.3095 17.2522L13.3079 16.079L11.1373 14.5705L13.3079 13.2297H19.3185L20.9882 14.5705L23.8265 17.2522L27.3327 16.079L31.3397 13.2297L33.1763 11.5535L31.3397 10.7155L30.5049 9.03943L31.3397 6.69297L29.1692 5.51968H31.3397H35.1799L40.1886 4.34649L42.1922 2H44.1959L45.6984 5.51968V8.20139V12.3916L50.5402 13.2297L52.377 11.5535L57.7197 12.3916L61.2259 11.5535L66.7357 12.3916L69.574 10.7155L71.7445 6.69297H73.4141L74.249 9.03943L76.2524 13.2297L77.0873 18.4254L78.9239 19.4311V23.6212L82.0961 22.2804L87.2719 23.6212L91.1341 25.6646L91.9469 27.1855V28.9846L95.4531 27.4761L99.1261 28.9846H106.64L111.314 32.3367L116.156 35.5213L119.996 37.0298L122 40.3819V45.075L119.996 49.7679L116.156 53.2876Z" stroke="white" stroke-opacity="0.8" stroke-width="3"/>
</g>
<defs>
<filter id="filter0_b_545_4835" x="-30.5" y="-30.5" width="185" height="195.746" filterUnits="userSpaceOnUse" color-interpolation-filters="sRGB">
<feFlood flood-opacity="0" result="BackgroundImageFix"/>
<feGaussianBlur in="BackgroundImageFix" stdDeviation="15.5"/>
<feComposite in2="SourceAlpha" operator="in" result="effect1_backgroundBlur_545_4835"/>
<feBlend mode="normal" in="SourceGraphic" in2="effect1_backgroundBlur_545_4835" result="shape"/>
</filter>
</defs>
</svg>
