<svg width="21" height="12" viewBox="0 0 21 12" fill="none" xmlns="http://www.w3.org/2000/svg">
<path d="M1.88 6.224H7.8V7.248H1.88V6.224ZM2.008 12H0.824V0.799999H8.504V1.824H2.008V12ZM10.949 12V0.799999H15.781C17.029 0.799999 17.9943 1.05067 18.677 1.552C19.3703 2.05333 19.717 2.76267 19.717 3.68C19.717 4.288 19.573 4.8 19.285 5.216C19.0077 5.632 18.6237 5.94667 18.133 6.16C17.653 6.37333 17.125 6.48 16.549 6.48L16.821 6.096C17.5357 6.096 18.149 6.208 18.661 6.432C19.1837 6.64533 19.589 6.97067 19.877 7.408C20.165 7.83467 20.309 8.368 20.309 9.008C20.309 9.95733 19.957 10.6933 19.253 11.216C18.5597 11.7387 17.509 12 16.101 12H10.949ZM12.133 11.024H16.085C17.0663 11.024 17.8183 10.8587 18.341 10.528C18.8637 10.1867 19.125 9.648 19.125 8.912C19.125 8.18667 18.8637 7.65867 18.341 7.328C17.8183 6.98667 17.0663 6.816 16.085 6.816H12.005V5.84H15.701C16.597 5.84 17.2903 5.66933 17.781 5.328C18.2823 4.98667 18.533 4.48 18.533 3.808C18.533 3.12533 18.2823 2.61867 17.781 2.288C17.2903 1.94667 16.597 1.776 15.701 1.776H12.133V11.024Z" fill="#F9F9F9"/>
<path d="M-1 14H21.189V14.8H-1V14Z" fill="#F9F9F9"/>
</svg>
