<svg width="19" height="18" viewBox="0 0 19 18" fill="none" xmlns="http://www.w3.org/2000/svg">
<g clip-path="url(#clip0_545_4799)">
<path d="M14.5618 17.7196C14.3936 17.7191 14.226 17.7007 14.0618 17.6646C10.9351 17.0178 8.05457 15.5013 5.75177 13.2896C3.4981 11.0731 1.93506 8.25091 1.25177 5.16461C1.1712 4.77997 1.19097 4.38106 1.30919 4.00627C1.42741 3.63148 1.64009 3.29342 1.92677 3.02461L3.92677 1.09961C4.02892 1.00301 4.1503 0.929028 4.28298 0.882505C4.41565 0.835981 4.55665 0.817959 4.69677 0.829614C4.84205 0.84477 4.98225 0.89157 5.1075 0.966723C5.23276 1.04188 5.34003 1.14356 5.42177 1.26461L7.92177 4.95961C8.01552 5.10299 8.06078 5.27266 8.05087 5.44368C8.04097 5.6147 7.97644 5.77802 7.86677 5.90961L6.61177 7.40961C7.11159 8.51584 7.81944 9.51565 8.69677 10.3546C9.56842 11.224 10.5987 11.9182 11.7318 12.3996L13.2868 11.1646C13.4174 11.0614 13.5763 11.0004 13.7424 10.9897C13.9085 10.9789 14.074 11.019 14.2168 11.1046L17.9918 13.5446C18.1213 13.622 18.2317 13.7276 18.3146 13.8537C18.3975 13.9797 18.4508 14.1229 18.4705 14.2725C18.4903 14.4221 18.4759 14.5742 18.4285 14.7174C18.3811 14.8607 18.3018 14.9913 18.1968 15.0996L16.2468 17.0296C16.0253 17.25 15.7624 17.4245 15.4732 17.5429C15.184 17.6613 14.8743 17.7214 14.5618 17.7196Z" fill="#FFBD4E"/>
<path d="M4.61516 1.82031L2.61516 3.74531C2.45388 3.89559 2.3345 4.08525 2.26875 4.29565C2.203 4.50606 2.19314 4.72995 2.24016 4.94531C2.87552 7.84138 4.33601 10.4915 6.44516 12.5753C8.61225 14.6561 11.323 16.0825 14.2652 16.6903C14.4879 16.7369 14.7186 16.7274 14.9368 16.6629C15.155 16.5983 15.3537 16.4806 15.5152 16.3203L17.4652 14.3903L13.8202 12.0353L12.1502 13.3653C12.0862 13.4159 12.0109 13.4501 11.9307 13.4649C11.8505 13.4797 11.768 13.4747 11.6902 13.4503C10.3035 12.9394 9.04688 12.1284 8.01016 11.0753C6.93783 10.0739 6.10547 8.84332 5.57516 7.47531C5.55272 7.39249 5.55198 7.3053 5.57299 7.22211C5.59401 7.13892 5.63608 7.06254 5.69516 7.00031L7.04516 5.38531L4.61516 1.82031Z" fill="#262626"/>
</g>
<defs>
<clipPath id="clip0_545_4799">
<rect width="18.0213" height="18" fill="white"/>
</clipPath>
</defs>
</svg>
