<svg width="21" height="20" viewBox="0 0 21 20" fill="none" xmlns="http://www.w3.org/2000/svg">
<path d="M18.1953 3.75H3.19531C2.86379 3.75 2.54585 3.8817 2.31143 4.11612C2.07701 4.35054 1.94531 4.66848 1.94531 5V15C1.94531 15.3315 2.07701 15.6495 2.31143 15.8839C2.54585 16.1183 2.86379 16.25 3.19531 16.25H18.1953C18.5268 16.25 18.8448 16.1183 19.0792 15.8839C19.3136 15.6495 19.4453 15.3315 19.4453 15V5C19.4453 4.66848 19.3136 4.35054 19.0792 4.11612C18.8448 3.8817 18.5268 3.75 18.1953 3.75ZM16.8203 5L10.6953 9.2375L4.57031 5H16.8203Z" fill="#FFBD4E"/>
<path d="M3.19531 14.9996V5.56836L10.3391 10.5121C10.4437 10.5847 10.568 10.6236 10.6953 10.6236C10.8226 10.6236 10.9469 10.5847 11.0516 10.5121L18.1953 5.56836V14.9996H3.19531Z" fill="#262626"/>
</svg>
