<svg width="18" height="20" viewBox="0 0 18 20" fill="none" xmlns="http://www.w3.org/2000/svg">
<g clip-path="url(#clip0_545_4804)">
<path d="M9.69531 19.0035C8.43225 17.9261 7.26151 16.745 6.19531 15.4725C4.59531 13.5615 2.69531 10.7155 2.69531 8.00351C2.69462 6.61847 3.10482 5.26436 3.87401 4.11254C4.64319 2.96072 5.73678 2.06297 7.01638 1.53291C8.29598 1.00285 9.70406 0.8643 11.0624 1.1348C12.4208 1.4053 13.6684 2.07269 14.6473 3.05251C15.2991 3.70137 15.8157 4.47305 16.1672 5.32288C16.5187 6.17272 16.6982 7.08384 16.6953 8.00351C16.6953 10.7155 14.7953 13.5615 13.1953 15.4725C12.1291 16.745 10.9584 17.9261 9.69531 19.0035ZM9.69531 5.00351C8.89966 5.00351 8.1366 5.31958 7.57399 5.88219C7.01138 6.4448 6.69531 7.20786 6.69531 8.00351C6.69531 8.79916 7.01138 9.56222 7.57399 10.1248C8.1366 10.6874 8.89966 11.0035 9.69531 11.0035C10.491 11.0035 11.254 10.6874 11.8166 10.1248C12.3792 9.56222 12.6953 8.79916 12.6953 8.00351C12.6953 7.20786 12.3792 6.4448 11.8166 5.88219C11.254 5.31958 10.491 5.00351 9.69531 5.00351Z" stroke="#FFBD4E"/>
</g>
<defs>
<clipPath id="clip0_545_4804">
<rect width="17.0201" height="20" fill="white"/>
</clipPath>
</defs>
</svg>
