<svg width="53" height="46" viewBox="0 0 53 46" fill="none" xmlns="http://www.w3.org/2000/svg">
<mask id="path-1-inside-1_464_4818" fill="white">
<path d="M24.9814 0.140308C23.2671 0.609703 21.8793 1.94646 21.2875 3.69138C21.0426 4.43629 21.0324 4.53833 21.0324 7.15061C21.0324 8.63022 21.0834 10.0384 21.1446 10.2935C21.3181 11.0588 21.8283 11.9976 22.4304 12.6405C22.8079 13.0487 22.9508 13.2629 22.859 13.2936C22.7773 13.3242 21.5222 13.7221 20.063 14.1813C18.6038 14.6405 17.1854 15.0997 16.9201 15.2017C15.716 15.6813 14.5017 16.7324 13.7976 17.9161C13.4813 18.4467 12.9507 19.8957 11.6547 23.8039C10.6547 26.7937 9.79755 29.1713 9.63428 29.4366C9.4404 29.7428 8.10364 30.9571 5.54238 33.1612C3.45052 34.9571 1.64437 36.5694 1.54233 36.7531C0.991301 37.6408 1.54233 38.5082 3.04235 39.1306C3.3995 39.2735 3.61379 39.4266 3.59338 39.498C3.03215 41.2225 3.05255 42.4062 3.68522 43.6919L3.97093 44.2736H2.1954C0.552519 44.2736 0.399456 44.294 0.21578 44.4777C-0.100551 44.794 -0.0597342 45.4267 0.277005 45.692L0.552519 45.9062H26.1345H51.7165L51.992 45.692C52.3287 45.4267 52.3696 44.794 52.0532 44.4777C51.8696 44.294 51.7165 44.2736 50.2675 44.2736C49.4001 44.2736 48.6858 44.243 48.6858 44.1919C48.6858 44.1511 48.7573 44.0287 48.8491 43.9164C49.1042 43.5695 49.4001 42.447 49.4001 41.7735C49.4001 41.1001 49.1042 39.9776 48.8491 39.6307C48.6246 39.3449 48.645 39.3143 49.0736 39.1919C49.5532 39.049 50.4818 38.4674 50.6757 38.1817C50.7573 38.0592 50.8593 37.7633 50.8899 37.5184C50.941 37.1612 50.9002 37.0082 50.7063 36.7224C50.5736 36.5286 48.7777 34.9163 46.7164 33.151C44.2674 31.0591 42.8592 29.7734 42.6653 29.4775C42.4715 29.1815 41.7368 27.1407 40.6245 23.8141C38.7163 18.1099 38.5224 17.6712 37.4408 16.6099C36.4306 15.6099 35.7877 15.3038 32.6652 14.314C31.1244 13.8344 29.8488 13.416 29.8284 13.4058C29.808 13.3854 30.0427 13.1303 30.3386 12.8344C31.0427 12.1303 31.4917 11.3343 31.7468 10.3343C31.9203 9.66085 31.9509 9.21186 31.9509 7.24245C31.9509 4.57915 31.8489 3.92607 31.2774 2.83422C30.604 1.5587 29.3794 0.558681 27.9815 0.150513C27.308 -0.0433655 25.6855 -0.0535698 24.9814 0.140308ZM28.0835 1.95666C28.859 2.33422 29.5733 3.06892 29.9509 3.86485L30.2672 4.52813V7.18122V9.83432L29.9407 10.518C28.7978 12.9262 25.859 13.5589 23.9304 11.8037C23.6039 11.4976 23.2263 11.018 23.0426 10.6609L22.7161 10.0384L22.6855 7.3751C22.6549 4.86486 22.6651 4.69139 22.8692 4.14037C23.2671 3.07912 24.0018 2.31381 25.0733 1.86482C25.5937 1.65054 25.7978 1.61992 26.6039 1.65054C27.3488 1.67094 27.6243 1.73217 28.0835 1.95666ZM28.5835 14.7834C30.8284 15.416 34.6244 16.6814 35.1448 16.9569C35.9102 17.365 36.7265 18.1814 37.1449 18.9671C37.3285 19.314 37.7673 20.4671 38.1245 21.5284L38.7775 23.457L38.502 23.5998C37.5734 24.0692 35.2877 24.9876 35.2265 24.9162C35.1857 24.8753 34.8795 24.1815 34.553 23.3855C34.2367 22.5794 33.8999 21.8753 33.8285 21.8141C33.5938 21.6202 32.9713 21.6814 32.7264 21.9161C32.5121 22.1304 32.5121 22.1712 32.4815 27.9468L32.4611 33.7632H26.1345H19.8079L19.7875 27.9468C19.7569 22.1712 19.7569 22.1304 19.5426 21.9161C19.2977 21.6814 18.6752 21.6202 18.4405 21.8141C18.3589 21.8855 18.0528 22.5284 17.767 23.2529C17.4711 23.9876 17.1956 24.5794 17.1446 24.5794C17.0732 24.5794 13.8078 22.9876 13.716 22.9059C13.6445 22.8447 14.8384 19.4977 15.1241 18.9671C15.5425 18.1814 16.3589 17.3548 17.1242 16.9569C17.8691 16.5589 23.4406 14.7834 24.5835 14.5793C25.4304 14.416 27.7264 14.5385 28.5835 14.7834ZM16.5323 26.1713C16.5527 26.1917 16.4507 26.508 16.2976 26.8754C15.9507 27.7529 15.9507 28.1713 16.2976 28.4468C16.8895 28.906 17.4099 28.5999 17.8283 27.5386C17.9813 27.1407 18.1242 26.8244 18.1446 26.8244C18.1548 26.8244 18.1752 28.4162 18.1752 30.3652V33.9163L15.9711 34.5796C13.2976 35.3857 13.3282 35.3755 13.8384 35.0285C14.818 34.3653 15.3486 33.6816 15.8282 32.4979C16.1854 31.5999 16.2058 31.2224 15.9405 30.8958C15.7058 30.6101 15.1139 30.5795 14.8282 30.8448C14.716 30.9367 14.4915 31.3652 14.3384 31.7938C13.8486 33.0897 13.5731 33.304 9.48121 35.5796C7.53221 36.6714 5.71586 37.6204 5.45055 37.7021C4.87911 37.8755 4.14441 37.8245 3.55256 37.5592L3.1546 37.3857L6.7873 34.2836C8.78733 32.5795 10.5731 30.9775 10.7669 30.7122C11.2976 29.9877 11.4506 29.5999 12.3078 27.0284C12.7466 25.7121 13.1241 24.5998 13.1445 24.559C13.1751 24.4978 16.3691 26.0182 16.5323 26.1713ZM40.0633 27.3448C40.849 29.6917 40.9817 29.9877 41.5021 30.7122C41.6959 30.9775 43.4817 32.5795 45.4817 34.2836L49.1144 37.3857L48.7164 37.5592C48.1246 37.8245 47.3899 37.8755 46.8185 37.7021C46.5532 37.6204 44.7368 36.6714 42.7878 35.5796C39.9714 34.0183 39.1449 33.5081 38.7469 33.0999C38.2775 32.6204 38.1653 32.3959 37.053 29.5795L35.8489 26.5692L37.0938 26.0386C37.7673 25.7427 38.5122 25.406 38.7367 25.3039C38.9612 25.1917 39.1857 25.11 39.2367 25.1305C39.2878 25.1407 39.6653 26.1407 40.0633 27.3448ZM35.4816 30.0897C36.1857 31.855 36.9 33.4877 37.053 33.7122C37.4204 34.2428 37.9 34.6816 38.5326 35.0898C38.8184 35.2734 38.9714 35.3959 38.8898 35.3653C38.8082 35.3449 37.6959 35.0081 36.4204 34.6204L34.0938 33.9163V30.355C34.0938 28.3958 34.1142 26.8141 34.1448 26.8346C34.1652 26.8652 34.7673 28.3244 35.4816 30.0897ZM39.5327 37.2939C43.1347 38.3857 46.2776 39.4062 46.5123 39.5388C47.3287 40.0082 47.8287 41.0286 47.7368 42.0388C47.6756 42.7736 47.3389 43.3858 46.7062 43.896L46.2572 44.2736H38.2469H30.2366L30.0733 43.7532C29.9713 43.4674 29.7876 43.0491 29.6448 42.8348L29.3999 42.4368H29.9305C31.0631 42.4266 31.5325 42.1817 31.5427 41.5899C31.5529 40.7837 31.2774 40.7123 28.6345 40.8552C27.4611 40.9266 26.4712 40.9674 26.4406 40.9572C26.41 40.947 23.5937 40.6409 20.1854 40.2837C14.5425 39.7021 13.9507 39.6511 13.7058 39.7939C13.1445 40.1 13.1853 40.9674 13.767 41.2021C13.9201 41.2531 16.7568 41.5797 20.063 41.9266C26.257 42.5695 26.7468 42.6307 27.2978 42.9062C27.8284 43.1817 28.4815 43.896 28.4815 44.2226C28.4815 44.2532 23.6957 44.2736 17.8385 44.2736C9.41999 44.2736 7.09343 44.243 6.68526 44.1409C5.55259 43.845 4.8587 42.8654 4.8587 41.5695C4.86891 40.7735 5.15462 39.9776 5.5832 39.5694C5.75667 39.4062 7.59343 38.8041 12.4813 37.3245L19.1446 35.3143L26.0631 35.3041L32.9815 35.2939L39.5327 37.2939Z"/>
</mask>
<path d="M24.9814 0.140308C23.2671 0.609703 21.8793 1.94646 21.2875 3.69138C21.0426 4.43629 21.0324 4.53833 21.0324 7.15061C21.0324 8.63022 21.0834 10.0384 21.1446 10.2935C21.3181 11.0588 21.8283 11.9976 22.4304 12.6405C22.8079 13.0487 22.9508 13.2629 22.859 13.2936C22.7773 13.3242 21.5222 13.7221 20.063 14.1813C18.6038 14.6405 17.1854 15.0997 16.9201 15.2017C15.716 15.6813 14.5017 16.7324 13.7976 17.9161C13.4813 18.4467 12.9507 19.8957 11.6547 23.8039C10.6547 26.7937 9.79755 29.1713 9.63428 29.4366C9.4404 29.7428 8.10364 30.9571 5.54238 33.1612C3.45052 34.9571 1.64437 36.5694 1.54233 36.7531C0.991301 37.6408 1.54233 38.5082 3.04235 39.1306C3.3995 39.2735 3.61379 39.4266 3.59338 39.498C3.03215 41.2225 3.05255 42.4062 3.68522 43.6919L3.97093 44.2736H2.1954C0.552519 44.2736 0.399456 44.294 0.21578 44.4777C-0.100551 44.794 -0.0597342 45.4267 0.277005 45.692L0.552519 45.9062H26.1345H51.7165L51.992 45.692C52.3287 45.4267 52.3696 44.794 52.0532 44.4777C51.8696 44.294 51.7165 44.2736 50.2675 44.2736C49.4001 44.2736 48.6858 44.243 48.6858 44.1919C48.6858 44.1511 48.7573 44.0287 48.8491 43.9164C49.1042 43.5695 49.4001 42.447 49.4001 41.7735C49.4001 41.1001 49.1042 39.9776 48.8491 39.6307C48.6246 39.3449 48.645 39.3143 49.0736 39.1919C49.5532 39.049 50.4818 38.4674 50.6757 38.1817C50.7573 38.0592 50.8593 37.7633 50.8899 37.5184C50.941 37.1612 50.9002 37.0082 50.7063 36.7224C50.5736 36.5286 48.7777 34.9163 46.7164 33.151C44.2674 31.0591 42.8592 29.7734 42.6653 29.4775C42.4715 29.1815 41.7368 27.1407 40.6245 23.8141C38.7163 18.1099 38.5224 17.6712 37.4408 16.6099C36.4306 15.6099 35.7877 15.3038 32.6652 14.314C31.1244 13.8344 29.8488 13.416 29.8284 13.4058C29.808 13.3854 30.0427 13.1303 30.3386 12.8344C31.0427 12.1303 31.4917 11.3343 31.7468 10.3343C31.9203 9.66085 31.9509 9.21186 31.9509 7.24245C31.9509 4.57915 31.8489 3.92607 31.2774 2.83422C30.604 1.5587 29.3794 0.558681 27.9815 0.150513C27.308 -0.0433655 25.6855 -0.0535698 24.9814 0.140308ZM28.0835 1.95666C28.859 2.33422 29.5733 3.06892 29.9509 3.86485L30.2672 4.52813V7.18122V9.83432L29.9407 10.518C28.7978 12.9262 25.859 13.5589 23.9304 11.8037C23.6039 11.4976 23.2263 11.018 23.0426 10.6609L22.7161 10.0384L22.6855 7.3751C22.6549 4.86486 22.6651 4.69139 22.8692 4.14037C23.2671 3.07912 24.0018 2.31381 25.0733 1.86482C25.5937 1.65054 25.7978 1.61992 26.6039 1.65054C27.3488 1.67094 27.6243 1.73217 28.0835 1.95666ZM28.5835 14.7834C30.8284 15.416 34.6244 16.6814 35.1448 16.9569C35.9102 17.365 36.7265 18.1814 37.1449 18.9671C37.3285 19.314 37.7673 20.4671 38.1245 21.5284L38.7775 23.457L38.502 23.5998C37.5734 24.0692 35.2877 24.9876 35.2265 24.9162C35.1857 24.8753 34.8795 24.1815 34.553 23.3855C34.2367 22.5794 33.8999 21.8753 33.8285 21.8141C33.5938 21.6202 32.9713 21.6814 32.7264 21.9161C32.5121 22.1304 32.5121 22.1712 32.4815 27.9468L32.4611 33.7632H26.1345H19.8079L19.7875 27.9468C19.7569 22.1712 19.7569 22.1304 19.5426 21.9161C19.2977 21.6814 18.6752 21.6202 18.4405 21.8141C18.3589 21.8855 18.0528 22.5284 17.767 23.2529C17.4711 23.9876 17.1956 24.5794 17.1446 24.5794C17.0732 24.5794 13.8078 22.9876 13.716 22.9059C13.6445 22.8447 14.8384 19.4977 15.1241 18.9671C15.5425 18.1814 16.3589 17.3548 17.1242 16.9569C17.8691 16.5589 23.4406 14.7834 24.5835 14.5793C25.4304 14.416 27.7264 14.5385 28.5835 14.7834ZM16.5323 26.1713C16.5527 26.1917 16.4507 26.508 16.2976 26.8754C15.9507 27.7529 15.9507 28.1713 16.2976 28.4468C16.8895 28.906 17.4099 28.5999 17.8283 27.5386C17.9813 27.1407 18.1242 26.8244 18.1446 26.8244C18.1548 26.8244 18.1752 28.4162 18.1752 30.3652V33.9163L15.9711 34.5796C13.2976 35.3857 13.3282 35.3755 13.8384 35.0285C14.818 34.3653 15.3486 33.6816 15.8282 32.4979C16.1854 31.5999 16.2058 31.2224 15.9405 30.8958C15.7058 30.6101 15.1139 30.5795 14.8282 30.8448C14.716 30.9367 14.4915 31.3652 14.3384 31.7938C13.8486 33.0897 13.5731 33.304 9.48121 35.5796C7.53221 36.6714 5.71586 37.6204 5.45055 37.7021C4.87911 37.8755 4.14441 37.8245 3.55256 37.5592L3.1546 37.3857L6.7873 34.2836C8.78733 32.5795 10.5731 30.9775 10.7669 30.7122C11.2976 29.9877 11.4506 29.5999 12.3078 27.0284C12.7466 25.7121 13.1241 24.5998 13.1445 24.559C13.1751 24.4978 16.3691 26.0182 16.5323 26.1713ZM40.0633 27.3448C40.849 29.6917 40.9817 29.9877 41.5021 30.7122C41.6959 30.9775 43.4817 32.5795 45.4817 34.2836L49.1144 37.3857L48.7164 37.5592C48.1246 37.8245 47.3899 37.8755 46.8185 37.7021C46.5532 37.6204 44.7368 36.6714 42.7878 35.5796C39.9714 34.0183 39.1449 33.5081 38.7469 33.0999C38.2775 32.6204 38.1653 32.3959 37.053 29.5795L35.8489 26.5692L37.0938 26.0386C37.7673 25.7427 38.5122 25.406 38.7367 25.3039C38.9612 25.1917 39.1857 25.11 39.2367 25.1305C39.2878 25.1407 39.6653 26.1407 40.0633 27.3448ZM35.4816 30.0897C36.1857 31.855 36.9 33.4877 37.053 33.7122C37.4204 34.2428 37.9 34.6816 38.5326 35.0898C38.8184 35.2734 38.9714 35.3959 38.8898 35.3653C38.8082 35.3449 37.6959 35.0081 36.4204 34.6204L34.0938 33.9163V30.355C34.0938 28.3958 34.1142 26.8141 34.1448 26.8346C34.1652 26.8652 34.7673 28.3244 35.4816 30.0897ZM39.5327 37.2939C43.1347 38.3857 46.2776 39.4062 46.5123 39.5388C47.3287 40.0082 47.8287 41.0286 47.7368 42.0388C47.6756 42.7736 47.3389 43.3858 46.7062 43.896L46.2572 44.2736H38.2469H30.2366L30.0733 43.7532C29.9713 43.4674 29.7876 43.0491 29.6448 42.8348L29.3999 42.4368H29.9305C31.0631 42.4266 31.5325 42.1817 31.5427 41.5899C31.5529 40.7837 31.2774 40.7123 28.6345 40.8552C27.4611 40.9266 26.4712 40.9674 26.4406 40.9572C26.41 40.947 23.5937 40.6409 20.1854 40.2837C14.5425 39.7021 13.9507 39.6511 13.7058 39.7939C13.1445 40.1 13.1853 40.9674 13.767 41.2021C13.9201 41.2531 16.7568 41.5797 20.063 41.9266C26.257 42.5695 26.7468 42.6307 27.2978 42.9062C27.8284 43.1817 28.4815 43.896 28.4815 44.2226C28.4815 44.2532 23.6957 44.2736 17.8385 44.2736C9.41999 44.2736 7.09343 44.243 6.68526 44.1409C5.55259 43.845 4.8587 42.8654 4.8587 41.5695C4.86891 40.7735 5.15462 39.9776 5.5832 39.5694C5.75667 39.4062 7.59343 38.8041 12.4813 37.3245L19.1446 35.3143L26.0631 35.3041L32.9815 35.2939L39.5327 37.2939Z" stroke="white" stroke-width="6" mask="url(#path-1-inside-1_464_4818)"/>
<path d="M36.2352 40.4367C35.2352 40.4979 34.3576 40.5999 34.2352 40.6714C33.8168 40.9163 33.7658 41.4673 34.1331 41.8857L34.3678 42.1714L37.2964 42.0081C40.0414 41.8653 40.2455 41.8449 40.4495 41.6408C40.7251 41.3653 40.7353 40.7938 40.47 40.4979C40.3067 40.3142 40.174 40.2938 39.1536 40.304C38.5312 40.3142 37.2148 40.3754 36.2352 40.4367Z" fill="white"/>
</svg>
