<svg width="116" height="120" viewBox="0 0 116 120" fill="none" xmlns="http://www.w3.org/2000/svg">
<g filter="url(#filter0_b_545_4837)">
<path d="M52.4986 105.889L53.4571 103.505L55.1684 104.369L56.876 106.569L58.9613 109.916L59.6214 112.209L60.3303 113.855L59.6099 116.458L57.6585 118.375L54.5043 118.367L53.4209 116.87L52.4738 115.054L51.8129 113.047L51.823 109.324L52.4986 105.889Z" fill="white" fill-opacity="0.5"/>
<path d="M49.0757 104.352L51.8442 101.496L52.5174 98.9769L52.5233 96.7908L53.4834 93.8122L54.1713 91.0317L54.1781 88.5474L53.5039 86.2601L52.5634 81.9845L53.5216 79.7016L55.6614 79.3579L57.5782 77.1289L59.7186 76.3398L60.9554 74.1569L62.148 72.8683L68.9695 66.0302L70.7686 64.0476L74.2239 61.8708L75.7593 59.7882L76.3619 56.8087L77.691 55.3217L80.2306 55.3286L83.1043 55.3364L85.4855 54.2497L85.4925 51.6661C85.4944 50.9705 83.7128 50.1707 83.7153 49.2764C83.7172 48.5609 84.2478 47.7872 84.5129 47.4898C83.8861 47.19 82.5136 46.5901 82.038 46.5888C81.5623 46.5875 80.9836 45.7247 80.7537 45.2935L83.1352 43.9087L84.5271 42.2232L82.0522 41.3222L81.3661 38.558L84.5333 39.9377L85.5242 39.9404L87.3079 39.9452L87.3041 41.3364L88.3901 42.8299L90.1738 42.8347L93.4439 42.8436L96.6119 43.9453L95.9131 45.8314L93.4336 46.6197L92.8353 48.0093L93.4264 49.3027L93.4239 50.197L94.9082 50.996L95.4082 49.3081L95.9072 48.0176L97.491 48.6181L97.4867 50.208L98.5692 52.9934L99.7548 54.2884L100.551 52.9987L99.7637 51.0092L100.559 50.2164L101.057 49.3234L99.7756 46.6369L103.046 46.6457L103.048 45.8508L104.143 43.9657L104.146 42.8726L104.15 41.382L105.145 39.9935L105.148 38.6224L105.648 37.1105L106.542 36.2212L107.241 34.3736L110.614 32.9143L112.497 32.9194L111.211 31.9609L113.296 30.3763L111.913 29.0019L108.94 28.9939L109.639 27.0378L108.453 26.0403L107.263 26.037L105.675 27.0271L103.099 27.0201L101.114 27.9937L98.6306 30.3365L97.5363 31.9238L95.9482 32.8746L93.4684 33.8009L95.4488 34.3417L95.4437 36.1911L93.4595 37.0775L90.1894 37.0686L86.7212 37.0592L83.7508 36.1594L83.7558 34.31L83.7598 32.8416L82.6698 32.8386L81.379 33.7681L80.7785 36.1514L82.0638 37.0466L80.772 38.5564L77.7365 38.5481L74.2912 37.0255L70.8418 37.0162L69.0526 35.3422L66.707 35.3359L63.3985 34.2548L58.0215 32.7718L56.5106 30.2224L56.5143 28.8518L56.517 27.8729L59.1412 26.901L60.2477 25.9097L58.0477 23.08L54.6031 21.3284L54.6049 20.6366L53.5011 20.6336L52.5461 19.6387L50.7472 18.5506L50.7507 17.2844L52.5525 17.2892L54.6164 16.4137L54.6184 15.6555L54.6217 14.4558L53.5224 12.7886L52.5727 9.83868L54.6397 7.7988L53.542 5.54416L52.5962 1.13622L47.4222 1.1222L43.3194 2.09005L37.753 2.7603L34.6309 2.06651L30.9239 1.0775L27.3073 2.73199L28.0193 5.47501L28.0132 7.72666L26.6019 10.8555L27.9997 12.7194L30.8878 14.3915L32.7373 16.3544L31.5635 17.2324L30.8737 19.58L29.8882 23.0037L27.9615 26.8165L25.9569 28.769L22.3565 28.3677L20.601 27.7756L19.6183 30.1224L16.2962 31.1903L14.9256 32.6551L14.3359 34.1219L15.4999 36.8662L15.4923 39.7053L18.5098 42.9441L17.433 44.018L15.4806 44.0128L13.4277 44.9862L11.478 44.0019L8.64983 42.9173L7.27757 44.9695L4.64165 44.9624L2.19804 46.1305L4.63316 48.095L6.77611 49.863L10.9705 51.147L10.9675 52.2239L8.62463 52.2175L6.76974 52.2125L8.6188 54.3712L10.4653 57.4111L13.3898 58.9854L16.2209 58.9931L19.5443 57.4357L20.5289 54.4035L22.2735 59.0095L22.261 63.6106L23.6653 66.4534L23.6567 69.6298C24.3826 71.0955 25.8339 74.1798 25.8322 74.7908L25.825 77.4638L27.8167 80.2377L31.034 87.4062L32.4486 92.3743L34.5355 95.0529L36.9078 97.9233L38.7967 103.466L40.5913 108.721L42.7778 109.872L45.6353 109.307L47.2609 106.543L49.0715 105.88L49.0757 104.352Z" fill="white" fill-opacity="0.5"/>
<path d="M52.4986 105.889L53.4571 103.505L55.1684 104.369L56.876 106.569L58.9613 109.916L59.6214 112.209L60.3303 113.855L59.6099 116.458L57.6585 118.375L54.5043 118.367L53.4209 116.87L52.4738 115.054L51.8129 113.047L51.823 109.324L52.4986 105.889Z" stroke="white" stroke-opacity="0.6" stroke-width="2"/>
<path d="M49.0757 104.352L51.8442 101.496L52.5174 98.9769L52.5233 96.7908L53.4834 93.8122L54.1713 91.0317L54.1781 88.5474L53.5039 86.2601L52.5634 81.9845L53.5216 79.7016L55.6614 79.3579L57.5782 77.1289L59.7186 76.3398L60.9554 74.1569L62.148 72.8683L68.9695 66.0302L70.7686 64.0476L74.2239 61.8708L75.7593 59.7882L76.3619 56.8087L77.691 55.3217L80.2306 55.3286L83.1043 55.3364L85.4855 54.2497L85.4925 51.6661C85.4944 50.9705 83.7128 50.1707 83.7153 49.2764C83.7172 48.5609 84.2478 47.7872 84.5129 47.4898C83.8861 47.19 82.5136 46.5901 82.038 46.5888C81.5623 46.5875 80.9836 45.7247 80.7537 45.2935L83.1352 43.9087L84.5271 42.2232L82.0522 41.3222L81.3661 38.558L84.5333 39.9377L85.5242 39.9404L87.3079 39.9452L87.3041 41.3364L88.3901 42.8299L90.1738 42.8347L93.4439 42.8436L96.6119 43.9453L95.9131 45.8314L93.4336 46.6197L92.8353 48.0093L93.4264 49.3027L93.4239 50.197L94.9082 50.996L95.4082 49.3081L95.9072 48.0176L97.491 48.6181L97.4867 50.208L98.5692 52.9934L99.7548 54.2884L100.551 52.9987L99.7637 51.0092L100.559 50.2164L101.057 49.3234L99.7756 46.6369L103.046 46.6457L103.048 45.8508L104.143 43.9657L104.146 42.8726L104.15 41.382L105.145 39.9935L105.148 38.6224L105.648 37.1105L106.542 36.2212L107.241 34.3736L110.614 32.9143L112.497 32.9194L111.211 31.9609L113.296 30.3763L111.913 29.0019L108.94 28.9939L109.639 27.0378L108.453 26.0403L107.263 26.037L105.675 27.0271L103.099 27.0201L101.114 27.9937L98.6306 30.3365L97.5363 31.9238L95.9482 32.8746L93.4684 33.8009L95.4488 34.3417L95.4437 36.1911L93.4595 37.0775L90.1894 37.0686L86.7212 37.0592L83.7508 36.1594L83.7558 34.31L83.7598 32.8416L82.6698 32.8386L81.379 33.7681L80.7785 36.1514L82.0638 37.0466L80.772 38.5564L77.7365 38.5481L74.2912 37.0255L70.8418 37.0162L69.0526 35.3422L66.707 35.3359L63.3985 34.2548L58.0215 32.7718L56.5106 30.2224L56.5143 28.8518L56.517 27.8729L59.1412 26.901L60.2477 25.9097L58.0477 23.08L54.6031 21.3284L54.6049 20.6366L53.5011 20.6336L52.5461 19.6387L50.7472 18.5506L50.7507 17.2844L52.5525 17.2892L54.6164 16.4137L54.6184 15.6555L54.6217 14.4558L53.5224 12.7886L52.5727 9.83868L54.6397 7.7988L53.542 5.54416L52.5962 1.13622L47.4222 1.1222L43.3194 2.09005L37.753 2.7603L34.6309 2.06651L30.9239 1.0775L27.3073 2.73199L28.0193 5.47501L28.0132 7.72666L26.6019 10.8555L27.9997 12.7194L30.8878 14.3915L32.7373 16.3544L31.5635 17.2324L30.8737 19.58L29.8882 23.0037L27.9615 26.8165L25.9569 28.769L22.3565 28.3677L20.601 27.7756L19.6183 30.1224L16.2962 31.1903L14.9256 32.6551L14.3359 34.1219L15.4999 36.8662L15.4923 39.7053L18.5098 42.9441L17.433 44.018L15.4806 44.0128L13.4277 44.9862L11.478 44.0019L8.64983 42.9173L7.27757 44.9695L4.64165 44.9624L2.19804 46.1305L4.63316 48.095L6.77611 49.863L10.9705 51.147L10.9675 52.2239L8.62463 52.2175L6.76974 52.2125L8.6188 54.3712L10.4653 57.4111L13.3898 58.9854L16.2209 58.9931L19.5443 57.4357L20.5289 54.4035L22.2735 59.0095L22.261 63.6106L23.6653 66.4534L23.6567 69.6298C24.3826 71.0955 25.8339 74.1798 25.8322 74.7908L25.825 77.4638L27.8167 80.2377L31.034 87.4062L32.4486 92.3743L34.5355 95.0529L36.9078 97.9233L38.7967 103.466L40.5913 108.721L42.7778 109.872L45.6353 109.307L47.2609 106.543L49.0715 105.88L49.0757 104.352Z" stroke="white" stroke-opacity="0.6" stroke-width="2"/>
</g>
<defs>
<filter id="filter0_b_545_4837" x="-7.66406" y="-7.98145" width="131.188" height="135.358" filterUnits="userSpaceOnUse" color-interpolation-filters="sRGB">
<feFlood flood-opacity="0" result="BackgroundImageFix"/>
<feGaussianBlur in="BackgroundImageFix" stdDeviation="4"/>
<feComposite in2="SourceAlpha" operator="in" result="effect1_backgroundBlur_545_4837"/>
<feBlend mode="normal" in="SourceGraphic" in2="effect1_backgroundBlur_545_4837" result="shape"/>
</filter>
</defs>
</svg>
