<svg width="99" height="117" viewBox="0 0 99 117" fill="none" xmlns="http://www.w3.org/2000/svg">
<path d="M2.69531 0.818893C1.81172 1.3853 1.31328 1.88374 0.792188 2.81264L0.0898438 4.05874V48.3064V92.5767L0.724219 93.1205C1.49453 93.7775 2.21953 93.8228 3.0125 93.1884L3.60156 92.7353V49.1673C3.60156 19.3744 3.66953 5.3728 3.82813 4.91967C4.32656 3.51498 1.65313 3.60561 44.2016 3.60561H83.1703L83.7141 4.23998L84.2578 4.87436V14.5033V24.1322L84.8242 24.6759C85.5492 25.4236 86.7047 25.4462 87.3844 24.7212C87.8828 24.2001 87.8828 24.1548 87.8828 14.39C87.8828 7.59311 87.7922 4.2853 87.6109 3.69624C87.2711 2.51811 85.957 1.04546 84.8469 0.524361C83.9633 0.116547 82.2867 0.093895 43.9297 0.093895H3.91875L2.69531 0.818893Z" fill="#FFBD4E"/>
<path d="M12.4141 14.9116C11.0547 15.3874 10.2391 16.1351 9.60469 17.3811L9.01562 18.5819L9.08359 28.2108L9.15156 37.8397L9.78594 38.7913C10.1258 39.3124 10.8281 40.0147 11.3492 40.3546L12.3008 40.989L21.8164 41.0569C32.3742 41.1249 32.4875 41.1249 33.9375 39.6976C35.4781 38.2022 35.4328 38.5194 35.5008 28.6413C35.5914 18.0835 35.5461 17.7437 33.9828 16.1804C33.2352 15.4327 32.6234 15.0476 31.8758 14.8663C30.3125 14.4585 13.5242 14.5038 12.4141 14.9116ZM31.3547 18.7858L31.9211 19.3296V27.803C31.9211 36.0499 31.8984 36.2991 31.4453 36.8882L30.9922 37.4772H22.2695C13.8641 37.4772 13.5469 37.4546 13.1164 37.0241C12.6859 36.5937 12.6633 36.2765 12.6633 27.8483C12.6633 19.1936 12.6633 19.1483 13.1617 18.6726C13.6375 18.2421 13.9094 18.2194 22.2242 18.2194H30.8109L31.3547 18.7858Z" fill="#FFBD4E"/>
<path d="M23.4247 25.6963L20.9099 28.1885L19.913 27.1689C19.0747 26.3307 18.7802 26.1494 18.0778 26.1494C17.4208 26.1494 17.1036 26.2854 16.7638 26.7385C15.8575 27.8939 16.22 28.7549 18.5083 30.9525C19.913 32.3119 20.2075 32.4932 20.9778 32.4932C21.7935 32.4932 22.0427 32.3119 25.1919 29.14C28.2958 26.0361 28.5224 25.7416 28.5224 24.9486C28.5224 23.8385 27.888 23.2041 26.7778 23.2041C26.0302 23.2041 25.713 23.4307 23.4247 25.6963Z" fill="#FFBD4E"/>
<path d="M42.9769 18.8994C42.4105 19.4885 42.3199 19.715 42.4332 20.3268C42.7051 21.7768 42.9543 21.8447 48.573 21.8447C54.1918 21.8447 54.441 21.7768 54.7129 20.3268C54.8262 19.715 54.7355 19.4885 54.1691 18.8994L53.4894 18.2197H48.573H43.6566L42.9769 18.8994Z" fill="#FFBD4E"/>
<path d="M60.1318 18.4916C59.0217 19.0806 58.7951 20.2361 59.5881 21.2556L60.0412 21.8447H68.9678C78.8685 21.8447 78.6646 21.8674 78.9592 20.3267C79.0725 19.715 78.9818 19.4885 78.4154 18.8994L77.7357 18.2197H69.149C63.3943 18.2424 60.4264 18.3103 60.1318 18.4916Z" fill="#FFBD4E"/>
<path d="M42.8184 26.2854C42.184 27.0783 42.2293 27.8033 42.8864 28.5736L43.4301 29.208H57.5903C71.184 29.208 71.7731 29.1854 72.2262 28.7775C72.8606 28.1885 72.8833 26.7838 72.2489 26.1494C71.7958 25.6963 71.5012 25.6963 57.545 25.6963H43.2715L42.8184 26.2854Z" fill="#FFBD4E"/>
<path d="M85.2102 29.7744C84.9383 29.8877 84.5984 30.2502 84.4852 30.5674C84.3492 30.9299 84.2586 36.7072 84.2586 45.7018V60.2471L78.957 69.4229L73.6555 78.5986L66.8133 78.7119L59.9711 78.8252L59.5406 79.3689C58.9516 80.0939 58.9969 81.1135 59.6766 81.7705L60.2203 82.3369H65.7938C68.8523 82.3369 71.3445 82.3822 71.3445 82.4502C71.3445 82.5182 70.9141 83.3338 70.393 84.2627L69.4188 85.9619H56.55H43.6586L42.9789 86.6416C42.4125 87.2307 42.3219 87.4572 42.4352 88.0689C42.7297 89.5416 42.0727 89.4736 55.2586 89.5869L67.2438 89.7002L66.1789 91.558L65.1141 93.4385H59.4047C53.9672 93.4385 53.65 93.4611 53.2195 93.8916C52.6305 94.4807 52.6305 95.7041 53.1969 96.4064C53.6273 96.9275 53.7406 96.9502 58.2719 97.0635L62.9164 97.1768L60.9 100.688C58.2945 105.22 58.0906 105.809 58.1133 108.958C58.1133 110.317 58.1813 111.722 58.2719 112.085L58.4305 112.696L31.7641 112.651C2.5375 112.583 4.32734 112.674 3.82891 111.246C3.69297 110.861 3.60234 108.12 3.60234 104.744C3.60234 99.0119 3.60234 98.876 3.10391 98.4229C2.10703 97.4939 0.430469 98.0377 0.090625 99.3971C0 99.6916 -0.0226563 102.682 0.0226563 106.035L0.090625 112.13L0.792969 113.376C1.31406 114.305 1.8125 114.803 2.69609 115.347L3.91953 116.095H43.9305C82.2875 116.095 83.9641 116.072 84.8477 115.664C85.9578 115.143 87.2719 113.671 87.6117 112.492C87.8156 111.881 87.8836 107.1 87.8836 95.6135V79.6182L93.2305 70.3971C98.8266 60.7682 99.0758 60.2018 98.2148 59.2502C97.9883 59.001 95.9266 57.7096 93.6156 56.3955C90.1039 54.3564 89.2883 53.9939 88.6539 54.0619L87.8836 54.1525V42.4166V30.658L87.3172 30.1143C86.7508 29.5252 86.0938 29.4346 85.2102 29.7744ZM91.9164 59.6807C93.0719 60.3377 94.0688 60.9721 94.1367 61.0627C94.25 61.2439 92.2563 64.8916 92.0297 64.8916C91.8258 64.8916 87.4305 62.3541 87.4305 62.2408C87.4305 61.9916 89.5828 58.3666 89.6961 58.4119C89.7641 58.4572 90.7609 59.0236 91.9164 59.6807ZM88.0648 66.9533C89.1523 67.5877 90.0813 68.1541 90.1266 68.1994C90.1945 68.2447 89.2203 70.0346 88.5859 70.9861C88.4273 71.2354 87.9289 71.0314 86.0258 69.9666L83.6469 68.6525L84.5531 67.0893C85.1648 66.0471 85.55 65.5939 85.7766 65.6619C85.9352 65.7299 86.9773 66.3189 88.0648 66.9533ZM84.2133 73.1838C85.4141 73.8861 86.4336 74.4752 86.4789 74.5205C86.5016 74.5432 84.5531 78.0322 82.1063 82.2463C78.3227 88.7713 77.6883 90.0174 77.8016 90.6064C78.0055 91.7846 79.2742 92.4189 80.4977 91.9432C80.6789 91.8752 81.5852 90.5158 82.4914 88.9525L84.1453 86.0979L84.2133 98.6041C84.2359 107.304 84.1906 111.269 84.0094 111.586C83.4883 112.606 82.6727 112.696 75.1281 112.696H68.0367L69.0563 111.586C69.6453 110.974 70.8688 109.117 71.8203 107.463C72.7719 105.786 74.4484 102.909 75.5133 101.051C76.5781 99.1705 77.4617 97.426 77.4617 97.1541C77.4617 96.3158 76.6234 95.4775 75.7625 95.4775C75.3547 95.4775 74.8563 95.5455 74.6523 95.6135C74.4711 95.6814 72.7039 98.5588 70.7328 102.003C68.4898 105.922 66.7906 108.618 66.1789 109.253C65.5898 109.842 64.525 110.544 63.5734 110.997L61.9422 111.767L61.7383 110.249C61.3531 107.191 61.1266 107.667 71.1406 90.3119C82.1289 71.2807 81.7664 71.915 81.9023 71.915C81.9703 71.915 83.0125 72.4814 84.2133 73.1838Z" fill="#FFBD4E"/>
<path d="M43.0947 33.2861C42.4377 33.7619 42.2338 34.7814 42.6642 35.6197C43.0947 36.4807 43.3892 36.5713 45.383 36.5713C47.49 36.5713 48.2377 36.0955 48.2377 34.7588C48.2377 33.3994 47.49 32.9463 45.315 32.9463C44.1369 32.9463 43.4345 33.0596 43.0947 33.2861Z" fill="#FFBD4E"/>
<path d="M53.3553 33.4221C52.517 34.0791 52.517 35.4385 53.3553 36.0955C53.9217 36.5486 54.2389 36.5713 59.042 36.5713H64.117L64.6607 36.0049C65.0232 35.665 65.2271 35.1893 65.2271 34.7588C65.2271 34.3283 65.0232 33.8525 64.6607 33.5127L64.117 32.9463H59.042C54.2389 32.9463 53.9217 32.9689 53.3553 33.4221Z" fill="#FFBD4E"/>
<path d="M11.8711 45.317C10.8063 45.8834 9.92266 46.7897 9.46953 47.7866C9.08438 48.6249 9.03906 49.4178 9.03906 58.0499C9.03906 66.0022 9.08438 67.5202 9.40156 68.2452C9.83203 69.31 10.7156 70.2389 11.8258 70.8053C12.6414 71.2358 13.1625 71.2358 22.4742 71.1905L32.2844 71.1225L33.2359 70.5108C33.7344 70.1709 34.4594 69.4006 34.7992 68.8116L35.4336 67.7241V58.0952V48.4663L34.8672 47.4467C34.55 46.903 33.8477 46.1327 33.3266 45.7475L32.3297 45.0678L22.4516 45.0225C13.7516 44.9772 12.4602 44.9999 11.8711 45.317ZM31.4914 49.01C31.8992 49.5084 31.9219 50.0069 31.9219 58.1178C31.9219 66.3194 31.8992 66.7272 31.4914 67.135C31.2422 67.3842 30.6984 67.6561 30.2906 67.7241C29.8828 67.792 25.9633 67.8374 21.5906 67.792C14.1141 67.7241 13.593 67.7014 13.1398 67.2936C12.6641 66.8631 12.6641 66.7272 12.6641 58.0952C12.6641 50.0295 12.6867 49.3045 13.0719 48.9874C13.2758 48.7834 13.6156 48.5795 13.7969 48.5116C13.9781 48.4436 17.943 48.3983 22.5875 48.4209L31.0609 48.4663L31.4914 49.01Z" fill="#FFBD4E"/>
<path d="M23.6289 55.8744L21.0688 58.3893L19.936 57.3471C18.5992 56.101 17.7383 55.9424 16.8547 56.8486C15.7899 57.8908 16.0391 58.5932 18.1914 60.7908C19.9813 62.6033 20.1625 62.7393 21.0461 62.7393C21.9524 62.7393 22.0883 62.6033 25.2375 59.4314C28.3867 56.2596 28.5227 56.101 28.5227 55.2174C28.5227 54.4697 28.3867 54.1752 27.9336 53.8127C26.8235 52.9291 26.393 53.133 23.6289 55.8744Z" fill="#FFBD4E"/>
<path d="M42.9574 48.9869C42.2777 49.7346 42.2324 50.6861 42.8667 51.4338L43.4332 52.0908H48.5535C53.5378 52.0908 53.6738 52.0682 54.1722 51.5924C54.8746 50.89 54.8519 49.576 54.1496 49.0096C53.6738 48.6244 53.1753 48.5791 48.4628 48.5791C43.773 48.5791 43.2972 48.6244 42.9574 48.9869Z" fill="#FFBD4E"/>
<path d="M59.5863 49.1679C58.7027 50.278 59.1785 51.7507 60.5152 52.0905C60.8098 52.1585 64.8426 52.2038 69.4871 52.1585L77.9605 52.0905L78.5043 51.4562C79.1613 50.6859 79.2066 49.9609 78.5723 49.1679L78.1191 48.5788H69.0793H60.0394L59.5863 49.1679Z" fill="#FFBD4E"/>
<path d="M43.0008 56.2596C42.593 56.5768 42.457 56.9166 42.457 57.6416C42.457 58.3666 42.593 58.7064 43.0008 59.0236C43.4992 59.4314 44.1336 59.4541 57.5234 59.4541C71.3211 59.4541 71.525 59.4541 72.1141 58.9783C72.907 58.3666 72.9297 57.0299 72.182 56.3275L71.6609 55.8291H57.5914C44.1336 55.8291 43.4992 55.8518 43.0008 56.2596Z" fill="#FFBD4E"/>
<path d="M42.9993 63.7361C42.4102 64.3479 42.3196 64.5744 42.4329 65.1861C42.6595 66.4096 43.2712 66.7041 45.4235 66.7041C47.6891 66.7041 48.2329 66.3643 48.2329 64.9369C48.2329 63.6002 47.6665 63.215 45.4915 63.1018C43.747 63.0338 43.7016 63.0564 42.9993 63.7361Z" fill="#FFBD4E"/>
<path d="M53.7398 63.3057C52.7202 63.7361 52.4257 65.458 53.2187 66.251C53.6491 66.6814 53.9663 66.7041 58.9507 66.7041C64.1843 66.7041 64.2523 66.7041 64.7281 66.183C65.3398 65.526 65.3624 64.4385 64.796 63.7361C64.3656 63.1924 64.3202 63.1924 59.2906 63.1471C56.5265 63.1244 54.0116 63.1924 53.7398 63.3057Z" fill="#FFBD4E"/>
<path d="M12.3242 75.3363C11.3047 75.6308 10.0586 76.7637 9.51484 77.8738C9.06172 78.8254 9.03906 79.1879 9.03906 88.273V97.698L9.67344 98.8988C10.1266 99.7824 10.6023 100.303 11.418 100.802L12.5055 101.482L21.4773 101.55C32.0805 101.64 32.3977 101.595 33.9609 100.009C35.5469 98.4457 35.5922 98.1285 35.5016 87.548C35.4336 77.7605 35.4563 78.0097 34.0289 76.5824C32.5789 75.0871 32.5563 75.0871 22.293 75.1097C17.1953 75.1097 12.7094 75.223 12.3242 75.3363ZM31.4461 79.3012C31.8992 79.8902 31.9219 80.1394 31.9219 88.3863V96.8597L31.3555 97.4035L30.8117 97.9699H22.4062C14.0688 97.9699 13.3211 97.9019 12.8453 97.1996C12.7547 97.0637 12.6641 93.0535 12.6641 88.273C12.6641 79.9129 12.6867 79.5957 13.1172 79.1652C13.5477 78.7347 13.8648 78.7121 22.2703 78.7121H30.993L31.4461 79.3012Z" fill="#FFBD4E"/>
<path d="M23.4941 86.1193L21.0472 88.5662L20.0956 87.6146C19.5519 87.1162 18.8948 86.6178 18.6003 86.5271C17.3769 86.1646 16.0628 87.4787 16.38 88.7474C16.448 89.0193 17.3542 90.1068 18.3964 91.1263C21.1378 93.7771 20.9566 93.8224 25.1706 89.6537C28.4105 86.4365 28.5238 86.3006 28.5238 85.3717C28.5238 84.1935 28.0027 83.6951 26.8019 83.6951C25.9863 83.6951 25.7597 83.8537 23.4941 86.1193Z" fill="#FFBD4E"/>
<path d="M43.0008 79.1424C42.593 79.4596 42.457 79.7994 42.457 80.5244C42.457 81.2494 42.593 81.5893 43.0008 81.9064C43.4766 82.2916 43.9523 82.3369 48.5063 82.3369C51.2477 82.3369 53.6492 82.2463 53.8758 82.1104C54.5781 81.7479 54.918 80.6377 54.5781 79.8447C54.4195 79.4596 54.1023 79.0518 53.8758 78.9385C53.6492 78.8025 51.2477 78.7119 48.5063 78.7119C43.9523 78.7119 43.4766 78.7572 43.0008 79.1424Z" fill="#FFBD4E"/>
<path d="M42.8184 94.0275C42.184 94.8205 42.2293 95.5455 42.8864 96.3158C43.4075 96.9275 43.5208 96.9502 45.4012 96.9502C47.1911 96.9502 47.395 96.9049 47.8028 96.4064C48.3692 95.7041 48.3692 94.4807 47.7801 93.8916C47.395 93.5064 47.0325 93.4385 45.3106 93.4385C43.3848 93.4385 43.2489 93.4611 42.8184 94.0275Z" fill="#FFBD4E"/>
</svg>
